<svg width="70" height="70" viewBox="0 0 70 70" fill="none" xmlns="http://www.w3.org/2000/svg">
<path d="M48.4611 16.6671C50.0754 16.6671 51.6534 16.1885 52.9957 15.2916C54.3379 14.3947 55.3841 13.12 56.0018 11.6286C56.6196 10.1372 56.7812 8.49609 56.4663 6.91282C56.1513 5.32954 55.374 3.87521 54.2325 2.73374C53.091 1.59226 51.6367 0.814906 50.0534 0.499974C48.4702 0.185041 46.8291 0.346676 45.3377 0.964439C43.8462 1.5822 42.5715 2.62835 41.6747 3.97058C40.7778 5.31281 40.2991 6.89085 40.2991 8.50514C40.3015 10.6691 41.1622 12.7438 42.6923 14.2739C44.2225 15.8041 46.2971 16.6648 48.4611 16.6671ZM48.4611 5.78414C48.9993 5.78414 49.5253 5.94373 49.9728 6.24271C50.4203 6.5417 50.769 6.96666 50.975 7.46386C51.1809 7.96106 51.2348 8.50816 51.1298 9.03598C51.0248 9.56381 50.7657 10.0486 50.3852 10.4292C50.0046 10.8097 49.5198 11.0689 48.992 11.1739C48.4641 11.2789 47.917 11.225 47.4198 11.019C46.9226 10.8131 46.4977 10.4643 46.1987 10.0169C45.8997 9.56938 45.7401 9.04331 45.7401 8.50514C45.7409 7.78373 46.0278 7.0921 46.538 6.58198C47.0481 6.07187 47.7397 5.78494 48.4611 5.78414ZM13.9081 42.7841C11.2183 42.7841 8.58887 43.5818 6.35236 45.0762C4.11585 46.5705 2.3727 48.6946 1.34335 51.1796C0.313998 53.6647 0.0446728 56.3992 0.569432 59.0374C1.09419 61.6755 2.38947 64.0988 4.29146 66.0008C6.19345 67.9028 8.61674 69.1981 11.2549 69.7228C13.893 70.2476 16.6275 69.9782 19.1126 68.9489C21.5977 67.9195 23.7217 66.1764 25.2161 63.9399C26.7105 61.7034 27.5081 59.074 27.5081 56.3841C27.5026 52.7784 26.0673 49.322 23.5171 46.7729C20.9669 44.2238 17.5099 42.7901 13.9041 42.7861L13.9081 42.7841ZM13.9081 64.5501C12.2938 64.5501 10.7158 64.0714 9.37355 63.1746C8.03131 62.2777 6.98517 61.003 6.36741 59.5116C5.74964 58.0202 5.58801 56.3791 5.90294 54.7958C6.21787 53.2125 6.99523 51.7582 8.13671 50.6167C9.27818 49.4753 10.7325 48.6979 12.3158 48.383C13.8991 48.068 15.5402 48.2297 17.0316 48.8474C18.523 49.4652 19.7977 50.5113 20.6946 51.8536C21.5914 53.1958 22.0701 54.7738 22.0701 56.3881C22.0683 58.5531 21.2073 60.6289 19.6762 62.1596C18.1451 63.6903 16.0691 64.5508 13.9041 64.5521L13.9081 64.5501ZM69.9541 56.3901C69.9541 57.3088 69.8617 58.2251 69.6781 59.1251C69.5238 59.8223 69.1016 60.4309 68.5027 60.8196C67.9037 61.2083 67.1759 61.346 66.4763 61.203C65.7768 61.06 65.1614 60.6477 64.7631 60.055C64.3648 59.4624 64.2154 58.7369 64.3471 58.0351C64.6987 56.3146 64.4852 54.5265 63.7382 52.9372C62.9912 51.3479 61.7508 50.0424 60.2017 49.2152C58.6526 48.3879 56.8778 48.0833 55.1415 48.3465C53.4052 48.6098 51.8005 49.4269 50.5662 50.6761C49.332 51.9254 48.5343 53.5399 48.2921 55.2792C48.0498 57.0185 48.3759 58.7896 49.2217 60.3285C50.0676 61.8675 51.3879 63.0921 52.9862 63.8198C54.5844 64.5475 56.3749 64.7395 58.0911 64.3671C58.7935 64.2215 59.5249 64.3591 60.1264 64.75C60.7278 65.1409 61.1506 65.7535 61.3027 66.4544C61.4548 67.1554 61.324 67.8881 60.9386 68.4931C60.5533 69.0982 59.9447 69.5266 59.2451 69.6851C56.4957 70.2833 53.6284 70.0139 51.0384 68.9141C48.4485 67.8143 46.2635 65.9383 44.7845 63.5446C43.3054 61.1509 42.6053 58.3574 42.7805 55.5491C42.9557 52.7408 43.9977 50.056 45.7627 47.8647C47.5278 45.6734 49.9291 44.0835 52.6356 43.3142C55.3422 42.5449 58.2207 42.634 60.8745 43.5692C63.5283 44.5044 65.8266 46.2398 67.4528 48.536C69.079 50.8323 69.9529 53.5764 69.9541 56.3901ZM39.1541 52.3511L37.9651 63.4811C37.8939 64.148 37.5789 64.7651 37.0806 65.2139C36.5823 65.6628 35.9358 65.9118 35.2651 65.9131C35.1676 65.913 35.0701 65.9076 34.9731 65.8971C34.2558 65.8203 33.5983 65.4618 33.1452 64.9004C32.6922 64.3389 32.4806 63.6205 32.5571 62.9031L33.7461 51.7731C33.7937 51.3297 33.7314 50.8813 33.5646 50.4676C33.3979 50.054 33.1319 49.6877 32.7901 49.4011L21.0461 39.5431C21.0181 39.5201 20.9911 39.4961 20.9641 39.4711C19.3743 38.0171 18.4221 35.9948 18.3143 33.843C18.2064 31.6913 18.9516 29.5838 20.3881 27.9781L20.4161 27.9471L29.4161 18.2331C30.2169 17.3545 31.2006 16.6621 32.2979 16.2046C33.3951 15.7471 34.5793 15.5357 35.7671 15.5851C37.6942 15.634 39.5396 16.3736 40.9671 17.6691L41.3191 17.9891C43.9201 20.3561 46.2182 23.0358 48.1611 25.9671L51.2911 30.6901C51.5388 31.065 51.8757 31.3726 52.2715 31.5852C52.6674 31.7978 53.1098 31.9087 53.5591 31.9081H61.2481C61.6098 31.9012 61.9692 31.9665 62.3053 32.1001C62.6414 32.2337 62.9476 32.4329 63.2058 32.6863C63.464 32.9396 63.6691 33.2418 63.8091 33.5753C63.9492 33.9088 64.0213 34.2669 64.0213 34.6286C64.0213 34.9904 63.9492 35.3484 63.8091 35.682C63.6691 36.0155 63.464 36.3177 63.2058 36.571C62.9476 36.8243 62.6414 37.0236 62.3053 37.1572C61.9692 37.2908 61.6098 37.3561 61.2481 37.3491H53.5591C52.2118 37.3502 50.8854 37.0169 49.6986 36.3791C48.5118 35.7414 47.5018 34.8192 46.7591 33.6951L43.6291 28.9721C43.3631 28.5721 43.0871 28.1771 42.8061 27.7871L35.6921 35.3981C35.4496 35.6651 35.1565 35.8811 34.8298 36.0338C34.5031 36.1865 34.1494 36.2726 33.789 36.2874C33.4287 36.3021 33.0691 36.245 32.731 36.1195C32.393 35.994 32.0832 35.8026 31.8198 35.5563C31.5564 35.3101 31.3445 35.0139 31.1966 34.685C31.0486 34.3562 30.9675 34.0012 30.9579 33.6407C30.9484 33.2802 31.0106 32.9215 31.1409 32.5852C31.2712 32.249 31.4671 31.942 31.7171 31.6821L39.2861 23.5821C38.7571 23.0431 37.3041 21.6901 37.3041 21.6901C36.7583 21.2241 36.055 20.9845 35.3382 21.0204C34.6215 21.0563 33.9456 21.365 33.4491 21.8831L33.4211 21.9141L24.4211 31.6241C23.9532 32.1544 23.7095 32.8457 23.7414 33.5522C23.7733 34.2587 24.0783 34.9252 24.5921 35.4111L36.2921 45.2321C37.3179 46.0918 38.1162 47.191 38.6164 48.4324C39.1166 49.6739 39.3034 51.0194 39.1601 52.3501L39.1541 52.3511Z" fill="url(#paint0_linear_3_4798)"/>
<defs>
<linearGradient id="paint0_linear_3_4798" x1="35.1311" y1="69.996" x2="35.1311" y2="7.30843" gradientUnits="userSpaceOnUse">
<stop stop-color="#FF0707"/>
<stop offset="1" stop-color="#FF6D12"/>
</linearGradient>
</defs>
</svg>
