<svg width="72" height="72" viewBox="0 0 72 72" fill="none" xmlns="http://www.w3.org/2000/svg">
<path d="M16.186 54.9181C16.7384 54.9181 17.2683 54.6986 17.6589 54.308C18.0495 53.9173 18.269 53.3875 18.269 52.8351C18.269 52.2826 18.0495 51.7528 17.6589 51.3622C17.2683 50.9715 16.7384 50.7521 16.186 50.7521H11.303C10.7505 50.7521 10.2207 50.9715 9.83008 51.3622C9.43944 51.7528 9.21999 52.2826 9.21999 52.8351C9.21999 53.3875 9.43944 53.9173 9.83008 54.308C10.2207 54.6986 10.7505 54.9181 11.303 54.9181H16.186ZM5.05299 61.1681C5.05272 61.4417 5.10642 61.7128 5.21099 61.9657C5.31557 62.2186 5.46897 62.4484 5.66244 62.6419C5.8559 62.8355 6.08562 62.989 6.33847 63.0937C6.59132 63.1984 6.86232 63.2522 7.13599 63.2521H24.518C25.0706 63.2521 25.6005 63.0326 25.9912 62.6418C26.382 62.2511 26.6015 61.7212 26.6015 61.1686C26.6015 60.616 26.382 60.086 25.9912 59.6953C25.6005 59.3046 25.0706 59.0851 24.518 59.0851H7.13599C6.86241 59.0849 6.59148 59.1387 6.3387 59.2434C6.08592 59.348 5.85624 59.5014 5.66279 59.6949C5.46934 59.8883 5.31591 60.118 5.21128 60.3708C5.10664 60.6236 5.05285 60.8945 5.05299 61.1681ZM32.944 67.4181H2.96899C2.41654 67.4181 1.88672 67.6375 1.49608 68.0282C1.10544 68.4188 0.885986 68.9486 0.885986 69.5011C0.885986 70.0535 1.10544 70.5833 1.49608 70.974C1.88672 71.3646 2.41654 71.5841 2.96899 71.5841H32.943C33.4954 71.5841 34.0253 71.3646 34.4159 70.974C34.8065 70.5833 35.026 70.0535 35.026 69.5011C35.026 68.9486 34.8065 68.4188 34.4159 68.0282C34.0253 67.6375 33.4954 67.4181 32.943 67.4181H32.944ZM39.731 20.2851C41.0285 20.2998 42.3157 20.0536 43.5161 19.5611C44.7165 19.0686 45.8057 18.3398 46.719 17.4181L59.829 4.30808C60.1203 4.01676 60.3188 3.64559 60.3991 3.2415C60.4795 2.83741 60.4383 2.41856 60.2806 2.03792C60.1229 1.65728 59.8559 1.33194 59.5133 1.10306C59.1708 0.874182 58.768 0.752037 58.356 0.752075H36.794C36.5194 0.752179 36.2476 0.806568 35.9941 0.912113C35.7406 1.01766 35.5105 1.17228 35.317 1.36708L28.636 8.08407C27.9986 8.72151 27.5777 9.54313 27.4327 10.4328C27.2877 11.3225 27.426 12.2353 27.828 13.0421C29.275 16.5371 34.404 20.2831 39.73 20.2851H39.731ZM68.679 57.8781L59.204 50.7521H44.55C43.9974 50.7521 43.4675 50.5326 43.0767 50.1418C42.686 49.7511 42.4665 49.2212 42.4665 48.6686C42.4665 48.116 42.686 47.586 43.0767 47.1953C43.4675 46.8046 43.9974 46.5851 44.55 46.5851H54.775L54.175 42.4181H43.36C42.8075 42.4181 42.2777 42.1986 41.8871 41.808C41.4964 41.4173 41.277 40.8875 41.277 40.3351C41.277 39.7826 41.4964 39.2528 41.8871 38.8622C42.2777 38.4715 42.8075 38.2521 43.36 38.2521H53.581L52.981 34.0851H42.169C41.6165 34.0851 41.0867 33.8656 40.6961 33.475C40.3054 33.0843 40.086 32.5545 40.086 32.0021C40.086 31.4496 40.3054 30.9198 40.6961 30.5292C41.0867 30.1385 41.6165 29.9191 42.169 29.9191H52.386L51.701 25.1401C51.5229 23.3367 50.929 21.5992 49.966 20.0641C48.6558 21.4632 47.0697 22.5756 45.3078 23.3308C43.546 24.0861 41.6468 24.4679 39.73 24.4521C32.414 24.4521 25.975 19.4591 23.979 14.6361C23.439 13.4253 23.1874 12.1056 23.2441 10.7811C23.3009 9.45654 23.6644 8.16325 24.306 7.00308C23.3762 6.87491 22.4294 6.96071 21.5378 7.25393C20.6461 7.54715 19.8332 8.04006 19.161 8.69508L8.86099 18.9951L22.12 32.2521C22.5106 32.6427 22.7301 33.1726 22.7301 33.7251C22.7301 34.2776 22.5106 34.8074 22.12 35.1981C21.7293 35.5887 21.1995 35.8082 20.647 35.8082C20.0945 35.8082 19.5646 35.5887 19.174 35.1981L6.06299 22.0901C4.73919 24.0893 4.14644 26.4844 4.38495 28.8703C4.62347 31.2561 5.67862 33.4865 7.37199 35.1841L35.828 63.6401C38.3411 66.1667 41.3303 68.1698 44.6228 69.5334C47.9152 70.8969 51.4454 71.594 55.009 71.5841H64.093C65.6915 71.5855 67.25 71.084 68.5478 70.1506C69.8455 69.2172 70.8168 67.8993 71.324 66.3833C71.8312 64.8674 71.8487 63.2303 71.374 61.7039C70.8993 60.1774 69.9565 58.839 68.679 57.8781Z" fill="url(#paint0_linear_3_4808)"/>
<defs>
<linearGradient id="paint0_linear_3_4808" x1="36.3018" y1="0.752075" x2="36.3018" y2="71.5842" gradientUnits="userSpaceOnUse">
<stop stop-color="#5558FF"/>
<stop offset="1" stop-color="#00C0FF"/>
</linearGradient>
</defs>
</svg>
