<svg width="72" height="72" viewBox="0 0 72 72" fill="none" xmlns="http://www.w3.org/2000/svg">
<path d="M71.545 6.80705V37.5191C71.5432 39.1697 70.8866 40.7523 69.7194 41.9195C68.5522 43.0867 66.9697 43.7432 65.319 43.7451H61.478C61.7919 42.4246 61.8025 41.0502 61.5092 39.725C61.2159 38.3999 60.6262 37.1584 59.7844 36.0937C58.9426 35.0291 57.8706 34.1689 56.6488 33.5779C55.427 32.9868 54.0872 32.6802 52.73 32.6811H19.53C18.1723 32.6801 16.8321 32.9867 15.61 33.578C14.3878 34.1693 13.3155 35.0298 12.4737 36.095C11.6318 37.1601 11.0422 38.4021 10.7492 39.7278C10.4562 41.0535 10.4675 42.4283 10.782 43.7491H6.93901C5.28765 43.7472 3.70451 43.0901 2.5372 41.922C1.36989 40.754 0.713806 39.1704 0.713013 37.5191L0.713013 6.80705C0.714865 5.15639 1.37141 3.57385 2.53861 2.40665C3.70581 1.23945 5.28834 0.582907 6.93901 0.581055L65.32 0.581055C66.9707 0.582907 68.5532 1.23945 69.7204 2.40665C70.8876 3.57385 71.5442 5.15639 71.546 6.80705H71.545ZM57.573 41.6691C57.5728 42.844 57.1454 43.9787 56.3705 44.8618C55.5955 45.745 54.5259 46.3162 53.361 46.4691L50.641 69.5811C50.6092 69.8517 50.5243 70.1134 50.3913 70.3513C50.2583 70.5892 50.0798 70.7985 49.8659 70.9674C49.652 71.1362 49.4069 71.2613 49.1447 71.3355C48.8824 71.4096 48.6082 71.4314 48.3375 71.3996C48.0669 71.3677 47.8051 71.2829 47.5673 71.1499C47.3294 71.0169 47.1201 70.8383 46.9512 70.6244C46.7823 70.4105 46.6572 70.1655 46.5831 69.9032C46.5089 69.641 46.4872 69.3667 46.519 69.0961L47.06 64.4961H42.546L42.353 69.4191C42.3314 69.969 42.0922 70.4878 41.6881 70.8614C41.2839 71.2349 40.7479 71.4327 40.198 71.4111C39.6481 71.3894 39.1293 71.1503 38.7557 70.7461C38.3821 70.342 38.1844 69.806 38.206 69.2561L38.393 64.4951H33.866L34.053 69.2561C34.0637 69.5284 34.0207 69.8001 33.9264 70.0558C33.8321 70.3114 33.6883 70.546 33.5033 70.7461C33.3184 70.9462 33.0958 71.1079 32.8483 71.222C32.6008 71.3361 32.3333 71.4004 32.061 71.4111C31.7887 71.4218 31.517 71.3787 31.2613 71.2844C31.0056 71.1901 30.7711 71.0463 30.571 70.8614C30.3708 70.6764 30.2091 70.4538 30.095 70.2063C29.9809 69.9589 29.9167 69.6913 29.906 69.4191L29.713 64.4961H25.198L25.739 69.0961C25.8033 69.6432 25.6477 70.1935 25.3062 70.6258C24.9648 71.0582 24.4657 71.3372 23.9185 71.4016C23.3714 71.4659 22.8211 71.3102 22.3887 70.9688C21.9564 70.6274 21.6773 70.1282 21.613 69.5811L18.898 46.4691C17.6802 46.3076 16.5693 45.6893 15.7904 44.7395C15.0114 43.7896 14.6226 42.5792 14.7027 41.3534C14.7827 40.1275 15.3258 38.978 16.2217 38.1376C17.1177 37.2971 18.2996 36.8287 19.528 36.8271H52.728C54.0122 36.8271 55.2438 37.3372 56.1518 38.2452C57.0599 39.1533 57.57 40.3849 57.57 41.6691H57.573ZM29.224 52.0451L29.007 46.5111H23.082L23.733 52.0451H29.224ZM29.55 60.3451L29.387 56.1951H24.221L24.713 60.3461L29.55 60.3451ZM38.719 56.1951H33.54L33.703 60.3451H38.555L38.719 56.1951ZM38.882 52.0451L39.099 46.5111H33.16L33.377 52.0451H38.882ZM48.038 56.1951H42.872L42.713 60.3461H47.553L48.038 56.1951ZM49.177 46.5111H43.251L43.034 52.0451H48.525L49.177 46.5111Z" fill="url(#paint0_linear_3_4828)"/>
<defs>
<linearGradient id="paint0_linear_3_4828" x1="36.1295" y1="71.4158" x2="36.1295" y2="0.581055" gradientUnits="userSpaceOnUse">
<stop stop-color="#FF81FF"/>
<stop offset="1" stop-color="#A93AFF"/>
</linearGradient>
</defs>
</svg>
