<svg width="152" height="35" viewBox="0 0 152 35" fill="none" xmlns="http://www.w3.org/2000/svg">
<path d="M51.8357 24.3306H54.8218V12.9638H58.9425V10.3958H47.715V12.9638H51.8357V24.3306Z" fill="#EF6239"/>
<path d="M62.2767 14.1383C59.5296 14.1383 57.8972 15.7507 57.7778 17.7613H60.2462C60.286 16.9252 60.9031 16.1688 62.1175 16.1688C63.2521 16.1688 63.9091 16.7461 63.9091 17.5821C63.9091 18.0002 63.6503 18.3187 63.1526 18.3187H61.4605C59.2708 18.3187 57.7977 19.5131 57.7977 21.4839C57.7977 23.1959 59.1314 24.4898 61.0823 24.4898C62.4559 24.4898 63.5707 23.8727 63.9091 22.9371V24.3306H66.6562V17.8808C66.6562 15.6114 64.8049 14.1383 62.2767 14.1383ZM61.779 22.4792C61.0027 22.4792 60.4453 22.0214 60.4453 21.3644C60.4453 20.5881 61.0425 20.0705 61.8786 20.0705H63.9091V20.2098C63.9091 21.4839 63.1327 22.4792 61.779 22.4792Z" fill="#EF6239"/>
<path d="M68.7149 24.3306H71.4819V9.93793H68.7149V24.3306Z" fill="#EF6239"/>
<path d="M80.377 20.9265C80.158 21.7825 79.4215 22.2204 78.3067 22.2204C76.9132 22.2204 76.0174 21.3445 75.8183 19.9312H83.0246C83.0445 19.7122 83.0644 19.4136 83.0644 19.0353C83.0644 16.7461 81.651 14.1383 78.1076 14.1383C74.7035 14.1383 73.1508 16.7461 73.1508 19.2941C73.1508 21.8223 74.9026 24.4898 78.3067 24.4898C80.7751 24.4898 82.6862 23.0963 83.0843 20.9265H80.377ZM78.1076 16.1688C79.4414 16.1688 80.2177 17.0646 80.2974 18.1794H75.8581C76.097 16.7859 76.8535 16.1688 78.1076 16.1688Z" fill="#EF6239"/>
<path d="M84.5938 24.3306H87.3808V18.8363C87.3808 17.5423 88.2368 16.6067 89.4511 16.6067C90.6057 16.6067 91.382 17.4826 91.382 18.6969V24.3306H94.169V18.0798C94.169 15.7706 92.6959 14.1383 90.4265 14.1383C89.0529 14.1383 87.9382 14.7156 87.3808 15.691V14.2975H84.5938V24.3306Z" fill="#EF6239"/>
<path d="M97.1825 11.3314V14.2975H95.2516V16.6067H97.1825V20.6876C97.1825 23.0167 98.6755 24.3306 100.985 24.3306H102.637V22.0015H101.363C100.467 22.0015 99.9496 21.5436 99.9496 20.5682V16.6067H102.637V14.2975H99.9496V11.3314H97.1825Z" fill="#EF6239"/>
<path d="M104.291 28.3916H107.058V23.4348C107.595 24.1116 108.57 24.4898 109.705 24.4898C112.592 24.4898 114.543 22.4394 114.543 19.314C114.543 16.1887 112.751 14.1383 109.944 14.1383C108.65 14.1383 107.655 14.616 107.058 15.3924V14.2975H104.291V28.3916ZM109.367 22.101C107.874 22.101 106.898 20.9862 106.898 19.314C106.898 17.622 107.874 16.5072 109.367 16.5072C110.82 16.5072 111.815 17.622 111.815 19.314C111.815 20.9862 110.82 22.101 109.367 22.101Z" fill="#EF6239"/>
<path d="M116.207 24.3306H118.974V9.93793H116.207V24.3306Z" fill="#EF6239"/>
<path d="M125.263 14.1383C122.516 14.1383 120.884 15.7507 120.764 17.7613H123.233C123.272 16.9252 123.89 16.1688 125.104 16.1688C126.239 16.1688 126.895 16.7461 126.895 17.5821C126.895 18.0002 126.637 18.3187 126.139 18.3187H124.447C122.257 18.3187 120.784 19.5131 120.784 21.4839C120.784 23.1959 122.118 24.4898 124.069 24.4898C125.442 24.4898 126.557 23.8727 126.895 22.9371V24.3306H129.643V17.8808C129.643 15.6114 127.791 14.1383 125.263 14.1383ZM124.765 22.4792C123.989 22.4792 123.432 22.0214 123.432 21.3644C123.432 20.5881 124.029 20.0705 124.865 20.0705H126.895V20.2098C126.895 21.4839 126.119 22.4792 124.765 22.4792Z" fill="#EF6239"/>
<path d="M136.2 24.4898C138.808 24.4898 140.878 22.8176 141.177 20.5881H138.35C138.151 21.4839 137.335 22.101 136.32 22.101C134.807 22.101 133.911 20.9464 133.911 19.314C133.911 17.6817 134.787 16.5072 136.28 16.5072C137.295 16.5072 138.151 17.1641 138.31 18.0599H141.097C140.918 15.7308 138.828 14.1383 136.2 14.1383C133.095 14.1383 131.024 16.3877 131.024 19.314C131.024 22.2403 133.095 24.4898 136.2 24.4898Z" fill="#EF6239"/>
<path d="M149.293 20.9265C149.074 21.7825 148.337 22.2204 147.222 22.2204C145.829 22.2204 144.933 21.3445 144.734 19.9312H151.94C151.96 19.7122 151.98 19.4136 151.98 19.0353C151.98 16.7461 150.567 14.1383 147.023 14.1383C143.619 14.1383 142.067 16.7461 142.067 19.2941C142.067 21.8223 143.818 24.4898 147.222 24.4898C149.691 24.4898 151.602 23.0963 152 20.9265H149.293ZM147.023 16.1688C148.357 16.1688 149.133 17.0646 149.213 18.1794H144.774C145.013 16.7859 145.769 16.1688 147.023 16.1688Z" fill="#EF6239"/>
<path d="M14.6829 26.9098C13.6544 28.9124 11.6701 30.2694 9.39021 30.2694C7.11028 30.2694 5.12558 28.9123 4.09736 26.9097L0.790558 28.4029C1.5223 30.1262 2.72539 31.5924 4.25269 32.622C5.77998 33.6517 7.56527 34.2002 9.39021 34.2005C11.2151 34.2002 13.0003 33.6516 14.5275 32.6221C16.0547 31.5925 17.2578 30.1264 17.9896 28.4032L14.6829 26.9098Z" fill="#EF6239"/>
<path d="M17.9896 5.27435C19.4025 5.27435 20.5479 4.09364 20.5479 2.63717C20.5479 1.1807 19.4025 0 17.9896 0C16.5766 0 15.4312 1.1807 15.4312 2.63717C15.4312 4.09364 16.5766 5.27435 17.9896 5.27435Z" fill="#EF6239"/>
<path d="M29.0533 4.78845C27.82 4.78846 26.5988 5.03887 25.4594 5.52538C24.32 6.01189 23.2847 6.72499 22.4126 7.62394C21.5406 8.52289 20.8488 9.5901 20.3769 10.7646C19.9049 11.9392 19.662 13.198 19.662 14.4693C19.662 17.0368 20.6514 19.4991 22.4127 21.3146C24.1739 23.1301 26.5626 24.15 29.0533 24.1501C31.544 24.15 33.9327 23.1301 35.6939 21.3146C37.4552 19.4991 38.4446 17.0368 38.4446 14.4693C38.4446 11.9018 37.4552 9.43947 35.694 7.62396C33.9328 5.80845 31.5441 4.78848 29.0533 4.78845Z" fill="#EF6239"/>
<path d="M29.0541 18.9064C28.4889 18.9064 27.9291 18.7916 27.4069 18.5686C26.8846 18.3457 26.4101 18.0188 26.0104 17.6068C25.6107 17.1948 25.2936 16.7056 25.0773 16.1673C24.861 15.629 24.7496 15.052 24.7496 14.4693C24.7496 13.8866 24.861 13.3096 25.0773 12.7713C25.2936 12.233 25.6107 11.7438 26.0104 11.3318C26.4101 10.9198 26.8846 10.593 27.4069 10.37C27.9291 10.147 28.4889 10.0323 29.0541 10.0323C29.6194 10.0323 30.1791 10.1471 30.7013 10.37C31.2236 10.593 31.6981 10.9198 32.0978 11.3319C32.4974 11.7439 32.8145 12.233 33.0308 12.7713C33.2471 13.3097 33.3585 13.8866 33.3584 14.4693C33.3585 15.052 33.2471 15.629 33.0308 16.1673C32.8145 16.7056 32.4974 17.1947 32.0978 17.6068C31.6981 18.0188 31.2236 18.3456 30.7013 18.5686C30.1791 18.7916 29.6194 18.9064 29.0541 18.9064Z" fill="#F9F8FC"/>
<path d="M9.39132 4.78827C8.15803 4.78828 6.93681 5.03869 5.7974 5.5252C4.65799 6.01171 3.62269 6.7248 2.75063 7.62375C1.87857 8.5227 1.1868 9.58991 0.71485 10.7644C0.242896 11.939 -7.35911e-06 13.1978 1.67226e-10 14.4691C1.48627e-05 17.0366 0.98946 19.4989 2.75067 21.3144C4.51188 23.1299 6.90059 24.1499 9.39132 24.1499C11.8821 24.1499 14.2708 23.1299 16.032 21.3144C17.7932 19.499 18.7827 17.0366 18.7828 14.4691C18.7827 11.9016 17.7933 9.43926 16.0321 7.62375C14.2708 5.80824 11.8821 4.78828 9.39132 4.78827Z" fill="#EF6239"/>
<path d="M9.39057 18.9062C8.24897 18.9062 7.15412 18.4387 6.34688 17.6066C5.53965 16.7745 5.08615 15.6459 5.08615 14.4691C5.08617 13.2923 5.53968 12.1638 6.34691 11.3317C7.15414 10.4996 8.24898 10.0321 9.39057 10.0321C9.95583 10.0321 10.5156 10.1469 11.0378 10.3698C11.56 10.5928 12.0345 10.9196 12.4342 11.3317C12.834 11.7437 13.151 12.2328 13.3673 12.7711C13.5837 13.3095 13.695 13.8864 13.695 14.4691C13.695 15.0518 13.5837 15.6288 13.3673 16.1671C13.151 16.7055 12.834 17.1946 12.4343 17.6066C12.0346 18.0186 11.56 18.3455 11.0378 18.5685C10.5156 18.7914 9.95584 18.9062 9.39057 18.9062Z" fill="#F9F8FC"/>
</svg>
