<svg width="1440" height="970" viewBox="0 0 1440 970" fill="none" xmlns="http://www.w3.org/2000/svg">
<g clip-path="url(#clip0_10628_3690)">
<g opacity="0.1">
<path d="M-360.218 899.539C-419.543 862.843 -422.397 772.734 -387.536 712.186C-352.675 651.638 -291.923 611.68 -238.102 567.237C-184.078 522.794 -132.296 465.916 -127.81 396.193C-122.102 307.104 -195.902 226.169 -186.32 137.283C-178.981 68.1726 -122.51 15.7791 -62.981 -13.5777C-29.3431 -30.0908 9.39148 -36.0029 44.2526 -49.4581C201.841 -111.433 342.101 -11.3351 440.365 -92.6777C546.783 -180.748 541.278 -279.215 521.707 -327.736C496.632 -389.915 412.231 -527.728 246.08 -489.809C178.6 -474.315 109.49 -461.268 40.3792 -465.549C-62.981 -471.869 -163.487 -553.212 -170.215 -656.776C-174.7 -727.721 -138.004 -801.317 -163.487 -867.573C-180.612 -912.016 -224.239 -942.8 -270.721 -953.809C-317.202 -964.817 -366.13 -958.09 -412 -945.246" stroke="url(#paint0_linear_10628_3690)" stroke-miterlimit="10"/>
<path d="M-355.529 899.335C-414.854 859.174 -420.155 767.638 -385.294 704.643C-351.248 643.075 -289.884 602.098 -234.84 558.675C-180.408 515.659 -127.81 461.634 -120.675 394.359C-111.501 308.327 -178.777 228.208 -168.788 139.73C-160.837 69.3959 -108.239 15.3713 -50.7491 -17.0435C-17.7227 -35.7992 21.4196 -44.3615 57.3 -59.0399C209.588 -121.219 346.586 -26.4213 443.015 -105.725C546.579 -191.145 543.521 -287.166 525.173 -336.094C501.728 -398.069 420.182 -530.379 259.739 -497.352C193.483 -483.693 124.984 -472.684 56.4846 -477.373C-44.2253 -483.897 -141.877 -561.57 -150.643 -661.261C-156.759 -730.167 -123.325 -802.948 -148.401 -868.593C-165.526 -913.443 -207.318 -945.246 -252.373 -958.498C-297.835 -971.749 -346.559 -968.487 -393.244 -958.09" stroke="url(#paint1_linear_10628_3690)" stroke-miterlimit="10"/>
<path d="M-350.84 898.927C-409.961 855.504 -417.912 762.337 -382.847 696.692C-349.413 634.105 -287.642 592.109 -231.375 549.501C-176.331 507.912 -123.325 456.946 -113.336 392.116C-100.696 309.346 -161.652 229.635 -151.051 141.768C-142.489 70.4152 -93.9687 14.5559 -38.3132 -21.1207C-5.69465 -42.119 33.6515 -53.5354 70.7552 -69.2331C217.743 -131.616 351.683 -41.9151 445.869 -119.384C546.579 -202.154 546.171 -295.729 528.843 -344.86C507.233 -406.428 428.337 -533.437 273.398 -505.507C208.569 -493.683 140.477 -484.713 72.59 -489.605C-25.4697 -496.333 -120.064 -570.336 -131.072 -666.357C-138.819 -733.429 -108.851 -805.19 -133.315 -870.02C-150.236 -915.278 -190.397 -948.1 -234.025 -963.39C-278.672 -979.088 -327.192 -979.088 -374.285 -971.137" stroke="url(#paint2_linear_10628_3690)" stroke-miterlimit="10"/>
<path d="M-346.151 898.724C-405.272 852.038 -415.67 757.24 -380.605 688.945C-347.782 625.339 -285.399 582.323 -228.113 540.735C-172.661 500.573 -118.84 452.461 -106.201 390.077C-90.2992 310.366 -144.731 231.47 -133.723 144.011C-124.549 71.6384 -80.1058 13.9443 -26.0813 -24.9941C5.9257 -48.2349 45.6796 -62.3017 84.0065 -79.2226C225.897 -141.402 356.372 -57.205 448.723 -132.839C546.579 -213.163 548.618 -304.087 532.512 -353.626C512.737 -414.99 436.491 -536.698 287.261 -513.458C223.655 -503.468 156.175 -496.944 89.1031 -501.837C-6.30627 -508.769 -97.8422 -579.103 -111.093 -671.25C-120.471 -736.487 -93.9687 -807.025 -117.821 -871.447C-134.742 -917.113 -173.069 -950.751 -215.473 -968.283C-259.1 -986.427 -307.417 -989.689 -355.121 -984.185" stroke="url(#paint3_linear_10628_3690)" stroke-miterlimit="10"/>
<path d="M-341.666 898.52C-400.583 848.573 -413.631 752.144 -378.362 681.402C-346.151 616.777 -283.36 572.741 -224.647 531.968C-168.788 493.234 -114.355 448.179 -98.8615 388.243C-79.4942 311.589 -127.403 233.304 -115.986 146.457C-106.201 73.0654 -65.6313 13.3326 -13.6454 -28.6639C17.9539 -54.1471 57.9117 -71.068 97.4617 -88.8044C234.256 -150.78 361.468 -72.0873 451.781 -145.683C546.579 -223.356 551.268 -311.63 536.386 -361.577C518.242 -422.737 444.646 -539.145 301.124 -520.797C238.537 -512.642 171.873 -508.157 105.412 -513.254C12.6534 -520.389 -76.0285 -587.257 -91.3184 -675.531C-102.327 -738.934 -79.0864 -808.452 -102.327 -872.262C-119.248 -918.336 -155.944 -952.993 -196.717 -972.768C-239.529 -993.359 -287.438 -999.882 -335.958 -996.824" stroke="url(#paint4_linear_10628_3690)" stroke-miterlimit="10"/>
<path d="M-336.977 898.316C-395.895 844.903 -411.388 747.047 -376.12 673.655C-344.52 608.214 -281.322 562.956 -221.385 523.202C-165.118 485.895 -109.666 443.694 -91.7261 386.204C-68.6892 312.812 -110.482 235.139 -98.4537 148.7C-88.0565 74.2886 -51.5645 12.5171 -1.41338 -32.3334C29.5743 -60.0592 69.9398 -79.6304 110.713 -98.5899C242.411 -160.158 366.157 -87.1734 454.432 -158.934C546.375 -233.957 553.51 -319.785 539.851 -370.14C523.338 -430.892 452.393 -542.407 314.783 -528.544C253.419 -522.428 187.367 -519.778 121.518 -525.282C31.4091 -532.621 -54.4186 -595.82 -71.7472 -680.22C-84.3869 -741.788 -64.6119 -810.287 -87.2411 -873.485C-103.958 -919.967 -139.023 -955.847 -178.369 -977.457C-220.162 -1000.49 -267.867 -1010.28 -316.998 -1009.67" stroke="url(#paint5_linear_10628_3690)" stroke-miterlimit="10"/>
<path d="M-332.288 898.112C-391.002 841.437 -409.146 741.95 -373.877 665.908C-342.889 599.448 -279.283 552.967 -218.123 514.232C-161.448 478.352 -105.385 439.209 -84.5909 383.961C-58.0883 313.628 -93.3571 236.77 -80.9213 150.738C-69.9125 75.3079 -37.4978 11.4978 10.8185 -36.4108C41.3985 -66.583 81.9678 -88.6005 123.76 -108.783C250.361 -169.739 370.642 -102.667 457.082 -172.593C546.171 -245.17 555.753 -328.347 543.317 -378.906C528.639 -439.25 459.936 -546.076 328.238 -536.698C267.894 -532.417 202.657 -532.01 137.623 -537.718C50.3686 -545.261 -33.0127 -604.79 -52.1762 -685.521C-66.4468 -745.254 -49.9336 -812.529 -72.155 -875.32C-88.8721 -922.209 -122.102 -959.109 -160.021 -982.962C-200.998 -1008.44 -248.499 -1021.49 -298.039 -1023.33" stroke="url(#paint6_linear_10628_3690)" stroke-miterlimit="10"/>
<path d="M-327.599 897.704C-386.109 837.768 -406.903 736.65 -371.431 658.161C-341.055 590.682 -277.041 543.181 -214.658 505.466C-157.371 470.808 -100.696 434.928 -77.2517 382.127C-47.2834 315.055 -76.2323 238.605 -63.1849 153.185C-51.5645 76.735 -23.2271 10.8862 23.4582 -40.0804C53.4266 -72.699 94.4037 -97.1629 137.419 -118.365C259.128 -178.506 375.943 -117.549 460.344 -185.641C546.579 -255.567 558.403 -336.094 547.394 -387.061C534.347 -447.201 466.256 -565.851 342.509 -544.038C283.999 -533.844 218.762 -543.222 154.34 -549.134C69.7359 -556.881 -10.7913 -612.944 -31.9934 -689.802C-48.0988 -747.7 -34.8475 -813.956 -56.4573 -875.932C-72.9705 -923.229 -104.57 -961.352 -141.266 -987.039C-181.223 -1015.17 -228.52 -1031.28 -278.875 -1035.56" stroke="url(#paint7_linear_10628_3690)" stroke-miterlimit="10"/>
<path d="M-323.114 897.5C-381.624 834.302 -404.661 731.757 -369.392 650.415C-339.628 582.119 -275.206 533.395 -211.6 496.699C-153.905 463.469 -96.619 430.443 -70.3202 380.088C-37.0901 316.074 -59.3115 240.44 -45.8563 155.427C-33.6243 77.9583 -9.56813 9.86695 35.4863 -43.7499C64.843 -78.8149 106.228 -105.725 150.467 -128.151C267.282 -187.476 380.428 -132.636 462.994 -198.892C546.375 -266.168 560.646 -344.249 550.86 -395.623C539.444 -455.356 474.206 -570.948 355.964 -551.988C298.474 -542.814 234.052 -555.25 170.242 -561.366C88.2876 -569.317 10.4108 -621.711 -12.6261 -694.695C-30.3625 -750.962 -20.373 -815.995 -41.3713 -877.359C-57.8844 -925.064 -87.6489 -964.41 -122.918 -991.932C-162.06 -1022.72 -208.949 -1041.88 -259.916 -1048.61" stroke="url(#paint8_linear_10628_3690)" stroke-miterlimit="10"/>
<path d="M-318.425 897.297C-376.731 830.632 -402.418 726.661 -366.946 642.872C-337.793 573.557 -272.963 523.61 -208.134 487.933C-150.236 455.926 -91.9301 426.162 -62.9811 378.253C-26.2851 317.501 -41.9828 242.274 -28.1199 157.874C-15.2763 79.3852 4.70255 9.0515 47.9222 -47.4194C76.6673 -84.9308 118.664 -114.288 163.922 -137.936C275.845 -196.242 385.525 -147.722 465.848 -211.94C546.375 -276.769 563.092 -351.996 554.53 -403.778C544.744 -463.103 482.157 -575.433 369.827 -559.328C313.152 -551.173 249.75 -566.463 186.755 -572.783C107.451 -580.734 32.2245 -629.865 7.35279 -698.976C-12.2184 -753.408 -5.28689 -817.422 -25.8774 -878.174C-42.1867 -926.287 -70.3202 -966.856 -104.162 -996.417C-142.693 -1030.05 -189.378 -1052.28 -240.956 -1061.45" stroke="url(#paint9_linear_10628_3690)" stroke-miterlimit="10"/>
<path d="M-313.736 897.093C-372.042 827.166 -399.972 721.564 -364.703 635.125C-335.958 564.995 -271.128 513.824 -204.872 479.167C-146.566 448.587 -87.445 421.677 -55.8457 376.215C-15.6841 318.52 -25.0619 244.109 -10.5874 160.116C2.86776 80.6085 18.5655 8.0321 60.1542 -51.293C88.2877 -91.2508 130.692 -122.85 176.97 -147.722C283.999 -205.008 390.01 -162.808 468.498 -225.191C546.171 -287.37 565.335 -360.15 557.995 -412.34C549.841 -471.461 490.108 -580.122 383.486 -567.278C327.423 -560.551 265.244 -578.287 202.861 -585.015C126.207 -593.169 53.4266 -638.835 26.924 -703.869C5.51801 -756.67 9.1876 -819.257 -10.7913 -879.601C-26.8967 -928.122 -53.3993 -969.914 -86.0179 -1001.31C-123.325 -1037.39 -169.807 -1062.67 -221.997 -1074.29" stroke="url(#paint10_linear_10628_3690)" stroke-miterlimit="10"/>
<path d="M-309.048 896.685C-367.149 823.497 -397.729 716.263 -362.257 627.174C-334.123 556.025 -268.886 503.631 -201.406 469.993C-142.693 440.636 -82.9599 416.988 -48.5065 373.972C-4.87918 319.54 -7.73331 245.74 6.94506 162.155C21.2157 81.6279 32.4283 6.60509 72.59 -55.3702C100.112 -97.7744 142.924 -131.82 190.425 -157.915C292.562 -213.978 395.106 -178.302 471.556 -238.85C546.375 -298.379 567.781 -368.509 561.869 -421.106C555.345 -479.82 498.467 -564.628 397.349 -575.229C341.897 -581.141 280.941 -590.315 219.17 -597.043C145.166 -605.401 74.8325 -647.398 46.699 -708.762C23.2544 -759.728 24.0698 -821.296 4.49867 -880.825C-11.6068 -929.956 -36.2746 -972.768 -67.4661 -1006.2C-103.754 -1044.94 -150.032 -1073.27 -202.833 -1087.34" stroke="url(#paint11_linear_10628_3690)" stroke-miterlimit="10"/>
<path d="M-304.563 896.481C-362.664 820.031 -395.487 711.371 -360.218 619.631C-332.492 547.666 -267.051 494.049 -198.348 461.431C-139.227 433.501 -78.6788 412.707 -41.5751 372.137C5.51796 320.763 9.18756 247.575 24.2737 164.601C39.1559 83.055 46.0874 5.78959 84.6181 -58.836C111.325 -103.89 154.952 -139.975 203.472 -167.497C300.92 -222.337 399.795 -193.184 474.003 -251.897C545.967 -308.776 569.616 -376.46 565.131 -429.465C560.238 -487.771 505.398 -568.909 410.804 -582.976C356.168 -591.131 296.231 -601.936 235.275 -609.071C163.922 -617.429 95.8307 -655.96 66.2701 -713.45C40.7868 -762.582 38.7482 -823.13 19.7886 -882.048C3.88704 -931.587 -19.1498 -975.622 -48.9143 -1010.89C-84.1832 -1052.28 -130.257 -1083.67 -183.874 -1100.18" stroke="url(#paint12_linear_10628_3690)" stroke-miterlimit="10"/>
<path d="M-299.874 896.277C-357.772 816.362 -393.04 706.274 -357.772 611.884C-330.657 538.9 -264.809 484.06 -194.882 452.664C-135.353 425.958 -74.1936 408.425 -34.2359 370.302C16.1191 321.986 26.5163 249.614 42.0101 167.048C57.5039 84.4819 60.1542 4.97409 97.054 -62.5056C123.149 -110.006 167.184 -148.333 216.927 -177.078C309.687 -230.695 404.688 -208.066 477.061 -264.945C546.171 -319.173 572.266 -384.207 569.004 -437.619C565.539 -495.517 513.145 -573.191 424.667 -590.519C370.846 -600.916 311.929 -613.352 251.585 -620.895C182.882 -629.458 117.033 -664.523 86.0452 -718.139C58.5233 -765.64 53.4266 -824.965 35.0787 -883.271C19.1771 -933.218 -1.82113 -978.68 -30.5663 -1015.58C-64.8158 -1059.82 -110.89 -1094.07 -164.914 -1113.03" stroke="url(#paint13_linear_10628_3690)" stroke-miterlimit="10"/>
<path d="M-295.185 896.073C-353.083 812.896 -390.594 701.381 -355.529 604.137C-328.823 530.337 -262.974 474.07 -191.621 443.694C-131.684 418.211 -69.7086 403.94 -27.1006 368.06C26.7201 323.005 43.641 251.244 59.5425 169.086C75.8518 85.5012 73.8132 3.75089 109.49 -66.583C134.769 -116.53 179.62 -157.1 230.179 -187.272C318.249 -239.462 409.377 -223.56 479.915 -278.4C546.171 -329.978 574.509 -392.565 572.878 -446.386C571.043 -504.08 520.892 -578.287 438.734 -598.47C385.932 -611.517 327.83 -625.176 268.098 -632.923C202.045 -641.486 138.439 -673.085 106.024 -723.032C76.4634 -768.698 68.5127 -827.004 50.5724 -884.698C34.8747 -935.053 15.5074 -981.738 -11.8106 -1020.68C-44.837 -1067.57 -90.9107 -1104.87 -145.547 -1126.28" stroke="url(#paint14_linear_10628_3690)" stroke-miterlimit="10"/>
<path d="M-290.496 895.869C-348.19 809.226 -388.352 696.284 -353.287 596.39C-326.988 521.571 -260.935 464.081 -188.359 434.928C-128.218 410.668 -65.4274 399.455 -19.9653 366.225C37.3212 324.229 60.7658 253.079 77.0751 171.533C93.996 86.9283 87.6761 2.73156 121.722 -70.2525C146.186 -122.85 191.648 -165.458 243.43 -197.057C327.015 -248.024 414.27 -238.646 482.769 -291.651C546.171 -340.783 576.751 -400.516 576.547 -454.744C576.14 -512.031 528.435 -583.18 452.393 -606.217C400.407 -621.915 343.324 -636.797 284.407 -644.951C221.005 -653.718 159.437 -681.443 125.799 -727.721C93.996 -771.348 83.3949 -828.839 65.8624 -885.921C50.3686 -936.684 32.8361 -984.796 6.74124 -1025.37C-25.2658 -1075.11 -71.1357 -1115.27 -126.587 -1139.12" stroke="url(#paint15_linear_10628_3690)" stroke-miterlimit="10"/>
<path d="M-286.011 895.462C-343.501 805.761 -385.905 691.188 -351.044 588.847C-325.357 513.213 -258.896 454.295 -185.097 426.162C-124.549 403.125 -60.9424 394.97 -12.8299 364.186C47.7183 325.248 77.8905 254.914 94.6076 173.572C112.344 87.9477 101.335 1.50842 133.954 -74.1259C157.602 -129.17 203.88 -173.817 256.681 -206.843C335.577 -256.178 418.959 -253.732 485.419 -304.903C545.967 -351.384 578.79 -408.67 580.013 -463.307C581.236 -520.185 535.978 -588.684 466.052 -613.964C415.085 -632.516 358.818 -648.417 300.512 -656.776C239.964 -665.542 180.028 -689.802 145.166 -732.41C111.121 -774.203 97.8694 -830.47 80.7446 -886.941C65.2508 -938.111 49.757 -987.447 24.8853 -1030.05C-5.89848 -1082.45 -51.7684 -1125.67 -107.832 -1151.97" stroke="url(#paint16_linear_10628_3690)" stroke-miterlimit="10"/>
<path d="M-281.322 895.258C-338.812 802.091 -383.459 686.091 -348.801 581.1C-323.522 504.447 -257.062 444.306 -181.835 417.396C-120.879 395.582 -56.6612 390.485 -5.69463 362.148C58.3194 326.267 95.0153 256.749 112.14 175.814C130.488 89.1711 114.994 0.489239 146.186 -77.9993C169.019 -135.49 216.316 -182.175 269.933 -216.832C344.344 -264.741 423.648 -269.226 488.273 -318.358C545.764 -362.393 581.032 -417.029 583.683 -471.869C586.333 -528.34 543.929 -594.189 479.711 -621.914C429.968 -643.32 374.312 -660.241 316.618 -669.008C258.72 -677.774 200.822 -698.16 164.738 -737.303C128.246 -777.057 112.548 -832.508 96.0346 -888.368C80.7446 -939.946 67.0856 -990.505 43.2333 -1034.95C13.6727 -1090.2 -32.4011 -1136.27 -88.8721 -1165.01" stroke="url(#paint17_linear_10628_3690)" stroke-miterlimit="10"/>
<path d="M-276.633 895.054C-333.919 798.625 -381.012 681.198 -346.355 573.353C-321.483 495.884 -254.819 434.316 -178.165 408.425C-116.802 387.835 -51.7684 386 1.84842 360.109C69.3281 327.287 112.548 258.38 130.08 178.057C149.244 90.394 129.061 -0.530283 159.029 -81.8729C181.047 -141.81 229.159 -190.534 283.795 -226.822C353.722 -273.303 428.948 -284.516 491.739 -331.813C546.375 -373.198 583.887 -425.184 587.964 -480.635C592.041 -536.902 552.491 -600.101 494.185 -629.865C445.665 -654.533 390.621 -672.066 333.743 -681.24C278.495 -690.006 222.432 -706.723 185.328 -742.399C146.39 -779.911 128.245 -834.751 112.14 -889.999C97.0539 -941.984 85.2297 -993.97 62.6006 -1040.04C34.2632 -1097.94 -11.8106 -1147.07 -69.097 -1178.27" stroke="url(#paint18_linear_10628_3690)" stroke-miterlimit="10"/>
<path d="M-271.944 894.85C-329.23 795.16 -378.566 676.102 -344.113 565.606C-319.649 487.322 -252.984 424.123 -174.904 399.659C-113.336 380.292 -47.4872 381.515 8.98374 358.07C79.7253 328.51 129.673 260.215 147.409 180.299C167.388 91.6173 142.516 -1.5495 171.057 -85.5424C192.259 -148.129 241.391 -198.688 296.639 -236.403C362.08 -281.254 433.433 -299.398 494.185 -344.656C545.967 -383.595 585.721 -432.931 591.226 -488.586C596.73 -544.445 560.442 -605.401 507.437 -637.204C460.344 -665.338 405.707 -683.278 349.44 -692.656C296.843 -701.422 242.818 -714.062 204.491 -746.477C163.107 -781.542 142.516 -835.974 126.818 -890.61C111.936 -943.004 101.947 -996.213 80.5408 -1044.33C53.4266 -1105.08 7.35282 -1157.06 -50.5452 -1190.7" stroke="url(#paint19_linear_10628_3690)" stroke-miterlimit="10"/>
<path d="M-267.459 894.646C-324.541 791.49 -375.916 671.209 -341.87 558.063C-317.814 478.759 -250.946 414.337 -171.642 391.097C-109.666 372.749 -43.0022 377.438 16.119 356.439C90.3263 329.937 146.797 262.457 164.941 182.949C185.736 93.2482 156.175 -2.36509 183.289 -89.0082C203.676 -154.042 253.827 -206.231 309.89 -245.985C370.846 -289.205 438.122 -314.28 496.836 -357.704C545.763 -393.992 587.556 -440.677 594.691 -496.944C601.623 -552.6 568.8 -611.11 521.096 -644.748C475.837 -676.551 421.201 -694.491 365.546 -704.48C315.599 -713.247 263.409 -722.013 224.063 -751.166C180.231 -783.784 157.194 -837.809 141.904 -891.629C127.226 -944.431 119.071 -998.863 98.6848 -1048.81C72.7938 -1112.21 26.7201 -1167.05 -31.7895 -1203.34" stroke="url(#paint20_linear_10628_3690)" stroke-miterlimit="10"/>
<path d="M-262.77 894.239C-319.852 787.821 -373.673 665.908 -339.627 550.112C-316.183 469.993 -248.907 404.144 -168.38 381.923C-105.997 364.798 -38.721 372.545 23.2544 353.993C100.927 330.752 163.922 263.68 182.474 184.784C203.88 94.0636 169.834 -3.7921 195.521 -93.2894C215.093 -160.769 266.467 -214.794 323.142 -256.382C379.816 -297.971 443.015 -329.978 499.69 -371.567C545.763 -405.205 589.799 -449.444 598.361 -505.915C606.719 -561.162 577.771 -617.429 534.755 -653.106C491.739 -688.783 436.695 -706.723 381.855 -716.916C334.558 -725.682 284.407 -730.167 243.838 -756.466C197.356 -786.435 171.873 -840.255 157.398 -893.464C142.72 -946.673 136.808 -1002.53 117.441 -1054.31C92.7727 -1120.37 46.4951 -1178.27 -12.6261 -1217" stroke="url(#paint21_linear_10628_3690)" stroke-miterlimit="10"/>
</g>
</g>
<g clip-path="url(#clip1_10628_3690)">
<path opacity="0.5" d="M1229.5 661C1438.92 414.503 1600 511 1746 447L1830.5 525.5L1956 1079L472 1058.5C484.333 1048.17 538.844 972.1 725 916.5C951 849 1077 840.5 1229.5 661Z" fill="#FCC12A"/>
<path d="M1328.5 608C1537.92 361.503 1699 458 1845 394L1929.5 472.5L2055 1026L571 1005.5C583.333 995.167 637.844 919.1 824 863.5C1050 796 1176 787.5 1328.5 608Z" fill="#F0967D"/>
</g>
<g opacity="0.05" clip-path="url(#clip2_10628_3690)">
<path d="M20.5082 765.731L-29.4678 737.174L-29.8878 736.964V736.544C-30.0978 726.885 -30.0978 717.436 -30.3078 707.776L-30.7277 679.009V676.909L-29.0479 677.959C-20.6485 682.789 -12.6691 687.618 -4.47979 692.658L7.90924 700.007L13.9988 703.577L17.1485 705.467C18.1984 706.097 19.4583 706.937 20.0883 708.196C20.9282 709.456 20.9282 710.926 20.9282 712.186V715.756V722.895V737.174L20.7182 751.452C20.7182 756.072 20.7182 760.902 20.5082 765.731ZM20.5082 765.731C20.5082 756.282 20.0883 746.623 19.8783 737.174L19.4583 722.685L19.2483 715.546V711.976C19.2483 710.716 19.0384 709.876 18.6184 709.036C18.1984 708.196 17.3585 707.566 16.3086 707.147L13.1588 705.257L7.06931 701.687L-5.31971 694.548C-13.5091 689.718 -21.6984 684.889 -30.0978 680.059L-28.4179 679.009L-28.2079 707.567C-28.2079 717.226 -27.9979 726.675 -28.2079 736.334L-28.6279 735.494L20.5082 765.731Z" fill="#F0967D"/>
<path d="M20.5082 771.191L20.2982 798.908V812.767V819.696C20.2982 820.956 20.2982 822.006 20.2982 823.266C20.2982 824.526 19.6683 825.996 18.6184 826.626L-5.10978 841.114L-17.0788 848.254L-22.9584 851.823L-25.8981 853.503L-27.368 854.343C-27.998 854.553 -28.4179 854.973 -29.0479 855.183L-30.3078 855.813L-30.5178 854.343C-30.5178 853.923 -30.7278 853.293 -30.9377 852.453C-30.9377 852.243 -30.9377 852.033 -30.9377 851.823V851.403V850.563V846.994L-30.7278 839.854L-30.5178 825.576L-30.0978 811.297L-29.8878 804.158V800.588V798.698C-29.8878 798.068 -29.6778 797.228 -29.2579 796.808C-28.4179 795.549 -27.158 795.129 -26.1081 794.499L-22.9584 792.819L-16.6589 789.249L-4.26984 782.11L8.11919 774.97L14.2087 771.401C16.3085 770.351 18.1984 768.881 20.5082 768.041V771.191ZM20.5082 771.191L20.2982 768.041C17.9884 768.881 16.0986 770.351 13.9987 771.401L7.90919 774.97L-4.26984 782.32L-16.4489 789.669L-22.5384 793.449L-25.6882 795.339C-26.7381 795.968 -27.788 796.388 -28.208 797.228C-28.6279 798.068 -28.6279 799.118 -28.6279 800.378V803.948V811.087V825.366V839.644V846.784V850.353V851.193V851.613C-28.6279 851.823 -28.6279 851.823 -28.6279 851.823C-28.6279 852.243 -28.4179 852.873 -28.208 853.503L-29.8878 852.663C-29.4679 852.453 -28.8379 852.243 -28.4179 852.033L-26.9481 851.193L-24.0083 849.514L-17.9188 845.944L-5.94971 839.014L17.9884 825.366C19.8783 824.316 19.2483 821.586 19.4583 819.276L19.6683 812.347L20.0882 798.488L20.5082 771.191Z" fill="#F0967D"/>
<path d="M-27.368 739.694L-3.63985 752.922L8.32921 759.432L14.2087 762.582L17.1485 764.261L20.0883 765.941L20.7182 766.361L20.0883 766.781C19.0384 767.411 18.1984 768.251 17.1485 768.881L13.7888 770.771L7.69926 774.34L-4.68977 781.48L-17.0788 788.619L-23.3783 792.189L-26.5281 793.869C-27.578 794.499 -28.6279 795.339 -30.3078 795.339C-31.1477 795.339 -31.9876 795.129 -32.6176 794.709C-33.2475 794.289 -33.6675 794.079 -34.2974 793.869L-37.4472 792.189L-43.7467 788.619L-56.1357 781.48L-68.5248 774.34L-74.4043 770.771C-76.5041 769.511 -78.604 768.461 -80.4938 766.991L-81.3337 766.361L-80.4938 765.941L-54.0359 751.663L-40.8069 744.313L-34.2974 740.744C-33.2475 740.114 -32.1976 739.484 -30.9377 739.064C-29.6778 738.644 -28.4179 739.064 -27.368 739.694ZM-27.368 739.694C-28.4179 739.064 -29.6778 738.644 -30.9377 739.064C-32.1976 739.274 -33.2475 740.114 -34.2974 740.744L-40.8069 744.313L-53.8259 751.663L-79.8639 766.781V765.731C-77.974 766.991 -75.8742 768.251 -73.7743 769.301L-67.4748 772.661L-54.8758 779.59L-42.2768 786.519L-35.9773 790.089L-32.8276 791.769L-31.3577 792.609C-30.9377 792.819 -30.5177 793.029 -30.0978 793.029C-29.2578 793.029 -28.4179 792.609 -27.368 791.979L-24.2182 790.299L-17.9187 786.729L-5.31971 779.8L7.27929 772.871L13.5788 769.511L16.7286 767.831C17.7785 767.201 18.6184 766.571 19.6683 765.941V766.781L16.9385 764.891L13.9988 763.212L8.11923 759.852L-3.63985 753.132L-27.368 739.694Z" fill="#F0967D"/>
<path d="M-33.0376 971.092L-56.9757 957.654L-68.9448 951.144L-75.0343 947.785L-77.974 946.105C-79.024 945.475 -79.8639 944.845 -80.9138 944.215L-81.5438 943.795L-80.7038 943.375C-72.5145 938.545 -64.3251 933.716 -56.1358 928.886L-43.7467 921.747L-37.4472 918.177L-34.2975 916.497C-33.2476 915.868 -31.9877 915.238 -30.5178 915.238C-29.0479 915.238 -27.578 915.868 -26.5281 916.497L-23.3783 918.177L-17.2888 921.747L-4.89978 928.886L7.48925 936.026C11.4789 938.545 15.6786 940.645 19.6683 943.375L20.2982 943.795L19.6683 944.425L18.1984 945.685C17.5685 946.105 17.1485 946.315 16.5185 946.735L13.1588 948.625L6.64931 952.194L-6.57965 959.334L-19.5986 966.683L-26.1081 970.253C-27.158 970.882 -28.2079 971.512 -29.4678 971.932C-30.7277 972.142 -31.9877 971.722 -33.0376 971.092ZM-33.0376 971.092C-31.9877 971.722 -30.7277 972.142 -29.4678 971.722C-28.2079 971.302 -27.158 970.673 -26.1081 970.043L-19.5986 966.263L-6.57965 958.914L6.43933 951.354L12.9488 947.575L16.0986 945.685C16.5185 945.265 17.1485 945.055 17.5685 944.845L19.0383 943.585V944.635C10.849 939.805 2.44964 935.396 -5.9497 930.776L-18.3387 923.847L-24.6382 920.277L-27.788 918.597C-28.8379 917.967 -29.6778 917.757 -30.5178 917.757C-31.3577 917.757 -32.4076 918.177 -33.2476 918.807L-36.3973 920.487L-42.6968 924.057L-55.2958 930.986C-63.6952 935.606 -72.0945 940.015 -80.2839 944.635V943.795L-77.5541 945.685L-74.6143 947.365L-68.7348 950.934L-56.9757 957.864L-33.0376 971.092Z" fill="#F0967D"/>
<path d="M-29.6778 976.552C-29.6778 975.292 -29.2579 974.032 -28.2079 973.192C-27.158 972.562 -26.1081 971.932 -25.0582 971.302L-18.7587 967.523L-5.9497 959.963L6.85929 952.194L13.1588 948.415L16.3085 946.525C17.3585 945.895 18.4084 945.265 19.6683 944.845L20.5082 944.635V945.475C20.7182 947.995 20.7182 950.304 20.7182 952.614V959.753V974.032V988.311V995.45V999.02C20.7182 1000.07 20.9282 1001.54 20.0883 1003.01C19.6683 1003.64 19.0383 1004.27 18.6184 1004.69C17.9884 1005.11 17.5685 1005.32 16.9385 1005.74L13.7888 1007.63L7.69923 1011.2L-4.68979 1018.34L-17.0788 1025.48L-23.3783 1029.05C-25.4782 1030.1 -27.368 1031.57 -29.6778 1032.41L-30.3078 1032.62V1031.99C-30.3078 1031.36 -30.5178 1030.94 -30.5178 1030.31C-30.5178 1029.68 -30.5178 1029.05 -30.5178 1028.42V1025.06L-30.3078 1018.13L-29.8878 1004.48L-29.6778 976.552ZM-29.6778 976.552L-29.8878 1004.06V1017.71V1024.64V1028C-29.8878 1028.63 -29.8878 1029.26 -29.8878 1029.68C-29.8878 1030.1 -29.6778 1030.73 -29.4678 1031.36L-30.3078 1030.94C-28.2079 1030.1 -26.3181 1028.63 -24.2183 1027.37L-18.1287 1023.59L-5.9497 1016.24L6.22935 1008.89L12.3189 1005.32L15.4686 1003.43C16.5185 1002.8 17.3585 1002.38 17.7784 1001.54C18.1984 1000.91 18.1984 999.86 18.1984 998.6V995.03L18.4084 987.891L18.6184 973.612L19.0383 959.334L19.2483 952.194C19.2483 949.884 19.4583 947.365 19.2483 945.055L20.0883 945.685C19.0383 945.895 17.9884 946.525 16.9385 947.155L13.7888 949.044L7.27927 952.824L-5.73971 960.173L-18.5487 967.733L-25.0582 971.512C-26.1081 972.142 -27.158 972.772 -28.2079 973.402C-29.2579 974.032 -29.6778 975.292 -29.6778 976.552Z" fill="#F0967D"/>
<path d="M20.0883 942.955L-4.68977 928.886L-29.8878 914.398L-30.3078 914.188V913.768C-30.5178 904.319 -30.5178 894.659 -30.7277 885.21L-31.1477 856.653V854.973L-29.6778 855.603C-29.2579 855.813 -28.6279 856.023 -27.998 856.233C-27.158 856.653 -26.738 856.863 -26.3181 857.283L-23.1683 859.173L-17.0788 862.952L-4.68977 870.302L7.69925 877.651L13.7888 881.431L16.9385 883.32L18.4084 884.37C19.0384 884.79 19.6683 885.21 19.8783 885.84C20.2983 886.47 20.2983 887.31 20.2983 887.94V889.83V893.4V900.539V914.818L20.0883 929.096V936.236V939.805V941.695C20.2983 941.905 20.0883 942.535 20.0883 942.955ZM20.0883 942.955C20.0883 942.325 20.2983 941.695 20.2983 941.275V939.385L20.0883 935.816L19.8783 928.676L19.4583 914.398L19.2483 900.119L19.0384 892.98V889.41V887.52C19.0384 887.1 19.0384 886.47 18.8284 886.26C18.4084 885.63 17.3585 885 16.3086 884.37L13.1588 882.481L7.06931 878.911L-5.31972 871.561L-17.7088 864.212L-23.7983 860.642L-26.948 858.753C-27.368 858.543 -27.9979 858.123 -28.4179 857.913L-30.0978 857.283L-28.6279 856.233L-28.4179 884.79C-28.4179 894.239 -28.2079 903.899 -28.4179 913.348L-28.8379 912.508L20.0883 942.955Z" fill="#F0967D"/>
<path d="M18.4084 882.271L-5.52969 868.832L-17.4987 862.322L-23.5883 858.963L-26.528 857.283L-29.4678 855.393L-30.3077 854.973L-29.4678 854.553L-4.68975 840.064L7.69927 832.925L13.9988 829.355L17.1485 827.676C18.1984 827.046 19.4584 826.416 20.9282 826.416C22.3981 826.416 23.868 827.046 24.9179 827.676L28.0677 829.355L34.3672 832.925L46.7562 840.064L59.1452 847.204L65.2347 850.773C67.3346 852.033 69.4344 853.083 71.3243 854.553L71.9542 854.973L71.3243 855.603C69.2244 857.283 67.1246 858.333 64.8148 859.383L58.3053 862.952L45.0763 870.092L32.0574 877.441L25.5479 881.011C24.4979 881.641 23.448 882.271 22.1881 882.691C20.7182 883.32 19.4583 882.901 18.4084 882.271ZM18.4084 882.271C19.4583 882.901 20.7183 883.32 21.9782 882.901C23.2381 882.481 24.288 881.851 25.3379 881.221L31.8474 877.441L44.8664 870.092L57.8853 862.532L64.3948 858.753C66.4946 857.493 68.8045 856.233 70.6943 854.763V855.813C62.505 850.983 54.1056 846.574 45.7063 841.954L33.3173 835.025L27.0178 831.455L23.868 829.775C22.8181 829.145 21.9782 828.725 21.1382 828.725C20.2983 828.725 19.4583 829.145 18.4084 829.775L15.2587 831.455L8.95917 835.025L-3.63983 841.954L-28.8379 855.603V854.763L-26.1081 856.653L-23.1683 858.333L-17.2888 861.902L-5.52969 868.832L18.4084 882.271Z" fill="#F0967D"/>
<path d="M121.09 764.681L96.7323 750.403L84.5532 743.473L78.4637 739.904L75.3139 738.224C74.894 738.014 74.264 737.594 73.844 737.174C73.4241 736.754 73.0041 736.124 72.7941 735.284C72.3742 725.625 72.3742 716.386 72.1642 707.147L71.9542 693.078V686.149V682.579V680.899C71.9542 680.269 72.1642 679.639 72.1642 679.009L72.3742 677.329L73.844 678.169C74.894 678.799 75.9439 679.219 76.9938 679.849L80.1436 681.739L86.2331 685.309L98.4121 692.658L110.591 700.007L116.681 703.787L119.62 705.677C120.67 706.307 121.72 706.937 122.56 708.197C123.4 709.456 123.19 710.926 123.19 711.976V715.546V722.685V736.964C123.19 746.413 123.4 756.072 123.19 765.521C122.35 765.101 121.72 765.101 121.09 764.681ZM121.09 764.681C121.72 765.101 122.35 765.101 122.98 765.311C123.19 755.862 122.77 746.413 122.77 736.754L122.35 722.475L122.14 715.336V711.766C122.14 710.506 122.14 709.456 121.51 708.616C120.88 707.777 120.04 707.357 118.99 706.727L115.841 705.047L109.751 701.477L97.3622 694.338L84.9732 687.198L78.8837 683.629L75.7339 681.739L72.5841 680.059L74.264 679.219C74.264 679.639 74.054 680.269 74.054 680.689V682.369V685.939V692.868V706.937C74.054 716.176 73.844 725.835 73.844 734.864C74.054 735.914 74.684 736.544 75.7339 736.964L78.6737 738.854L84.7632 742.423L96.7323 749.773L121.09 764.681Z" fill="#F0967D"/>
<path d="M122.98 771.191L122.77 798.908V812.767V819.696C122.77 820.956 122.77 822.006 122.77 823.266C122.56 824.526 121.93 825.786 120.88 826.626C112.901 831.665 105.132 836.285 97.1522 841.114L85.1832 848.254L79.3036 851.823L76.3639 853.503L73.2141 855.183L71.7442 856.023V854.343L71.5342 850.774V847.204L71.7442 840.064L71.9542 825.786L72.1642 811.507L72.3742 804.368V800.798C72.3742 799.538 72.3742 798.278 73.2141 797.018C73.8441 795.759 75.104 795.129 76.1539 794.499L79.3036 792.819L85.6031 789.249L97.9922 782.11L122.77 767.831L122.98 771.191ZM122.98 771.191L122.77 767.411L98.2021 782.11L86.0231 789.459L79.9336 793.239L76.7838 795.129C75.7339 795.759 74.894 796.388 74.264 797.228C73.8441 798.068 73.6341 799.118 73.6341 800.378V803.948V811.087V825.366V839.645V846.784V850.354L73.8441 853.923L72.1642 852.873L75.104 851.403L78.0437 849.724L84.1333 846.154L96.1023 839.225C104.082 834.605 112.271 830.195 120.04 825.576C120.88 824.946 121.3 824.106 121.51 823.056C121.72 822.006 121.72 820.746 121.72 819.696L121.93 812.767L122.35 798.908L122.98 771.191Z" fill="#F0967D"/>
<path d="M75.314 739.904L99.0421 753.132L111.011 759.642L116.891 763.001L119.83 764.681L122.77 766.571L123.4 766.991L122.56 767.411L97.7822 781.9L85.3932 789.039L79.0937 792.609L75.9439 794.289C74.894 794.919 73.6341 795.758 72.1642 795.758C70.4843 795.758 69.2244 794.919 68.1745 794.499L65.0248 792.819L58.7253 789.249L46.3362 782.11L33.9472 774.97L27.8577 771.401L24.7079 769.511C23.658 768.881 22.6081 768.251 21.7682 767.411L20.9282 766.781L21.7682 766.361C23.868 764.891 26.1778 763.841 28.2776 762.581L34.7871 759.012L48.0161 751.872L61.2451 744.523L67.7545 740.953C68.8045 740.324 69.8544 739.694 71.1143 739.484C73.0041 738.854 74.264 739.274 75.314 739.904ZM75.314 739.904C74.264 739.274 73.0041 738.854 71.7442 739.064C70.4843 739.274 69.4344 740.114 68.3845 740.534L61.875 744.313L48.856 751.872L35.8371 759.432L29.3276 763.211C27.2277 764.471 24.9179 765.731 23.0281 767.201V766.151C24.078 766.781 24.9179 767.411 25.9678 768.041L29.1176 769.721L35.4171 773.081L48.0161 780.01L60.4051 786.939L66.7046 790.509L69.8544 792.189C70.9043 792.819 71.7442 793.239 72.5842 793.239C73.4241 793.239 74.264 792.819 75.314 792.189L78.4637 790.509L84.7632 786.939L97.3622 780.01L122.56 766.361V767.201L119.83 765.311L116.891 763.631L111.011 760.272L99.2521 753.342L75.314 739.904Z" fill="#F0967D"/>
<path d="M71.3242 733.814C71.3242 735.074 70.9043 736.334 69.8543 737.174C68.8044 737.804 67.7545 738.434 66.7046 739.064L60.4051 742.843L47.5961 750.403L34.9971 758.172L28.6976 761.952C26.5977 763.211 24.4979 764.681 22.1881 765.731L21.3481 766.151L21.1382 765.311L20.9282 763.631C20.9282 763.002 20.9282 762.372 20.9282 761.742V758.172V751.033V736.754V722.475V715.336V711.766C20.9282 710.716 20.7182 709.246 21.5581 707.777C21.9781 706.937 22.608 706.517 23.238 706.097L24.7079 705.257L27.8576 703.367L33.9472 699.797L46.3362 692.658L58.7252 685.519L65.0247 681.949L68.1745 680.269L69.6444 679.429C69.8543 679.219 70.0643 679.219 70.4843 679.009L71.3242 678.799L71.9542 678.589V679.219C72.1642 681.529 71.9542 683.839 71.9542 686.149L71.7442 693.078L71.3242 706.727V733.814ZM71.3242 733.814L71.5342 706.517V692.868V685.939C71.5342 683.629 71.5342 681.319 71.3242 679.219L71.9542 679.639L71.1142 679.849C71.1142 679.849 70.6943 680.059 70.4843 680.269L69.0144 681.109L65.8647 682.999L59.7751 686.778L47.5961 694.128L35.2071 701.687L29.1175 705.257L25.9678 707.147L24.4979 707.987C24.0779 708.197 23.8679 708.407 23.658 708.826C23.238 709.456 23.448 710.506 23.238 711.766V715.336L23.028 722.475L22.818 736.754L22.3981 751.033L22.1881 758.172V761.742C22.1881 762.372 22.1881 763.002 22.1881 763.421L22.3981 765.101L21.5581 764.681C23.658 763.631 25.9678 762.372 28.0676 761.112L34.5771 757.542L47.3861 750.193L60.1951 742.633L66.7046 738.854C67.7545 738.224 68.8044 737.594 69.8543 736.964C70.9043 736.544 71.3242 735.074 71.3242 733.814Z" fill="#F0967D"/>
<path d="M71.1142 796.808C71.7442 815.497 72.1642 834.605 72.5841 853.503V854.763L71.5342 854.343L70.4843 853.923L69.6443 853.503L67.9645 852.663L64.8147 850.983C62.7149 849.933 60.6151 848.674 58.5152 847.414L46.1262 840.274L33.7372 832.925C29.5375 830.405 25.5478 828.095 21.5581 825.366L21.1382 824.946V824.316L20.7182 796.178C20.7182 786.729 20.5082 777.07 20.7182 767.621V765.941L21.9781 766.781L46.7561 781.9L71.1142 796.808ZM71.1142 796.808L45.9162 782.53L21.1382 768.251L22.3981 767.411C22.608 776.86 22.6081 786.519 22.818 795.968L23.238 824.526L22.818 823.686C26.5977 826.416 30.7974 828.725 34.7871 831.245L47.1761 838.595L59.5652 845.734L65.8647 849.304L69.0144 850.983L70.4843 851.823L71.3242 852.243L71.9542 852.453L70.9042 853.293C70.6943 834.815 70.9043 815.917 71.1142 796.808Z" fill="#F0967D"/>
<path d="M71.5342 858.753L71.3242 886.89V900.959V907.888V911.458C71.3242 912.718 70.9043 914.188 69.8543 915.028C68.8044 915.867 67.7545 916.287 66.9146 917.127L63.9748 919.017L57.8853 922.587L45.9162 929.936C37.9369 934.766 29.9575 939.595 21.7681 944.215L20.0883 945.055V943.165C19.8783 938.335 20.0883 933.506 20.0883 928.886L20.2982 914.608L20.7182 900.329L20.9282 893.19V889.62C20.9282 888.57 20.9282 887.1 21.5581 885.84C22.1881 884.58 23.448 883.95 24.4979 883.32L27.6477 881.641L33.9472 878.071L46.3362 870.932L58.7252 863.792L64.8147 860.223C66.9146 858.963 69.0144 857.703 71.1143 856.863C71.3242 857.283 71.5342 858.123 71.5342 858.753ZM71.5342 858.753C71.5342 857.913 71.3242 857.283 71.1143 856.443C69.0144 857.493 66.9146 858.753 64.8147 860.013L58.7252 863.582L46.5462 870.932L34.3671 878.281L28.2776 882.061L25.1279 883.95C24.0779 884.58 23.238 885.21 22.8181 886.05C22.3981 886.89 22.3981 888.15 22.3981 889.2V892.77V899.909V914.188C22.3981 923.637 22.1881 933.296 22.3981 942.745L20.7182 941.695C28.9076 937.076 36.8869 932.456 45.0763 927.626L57.2553 920.697L63.3449 917.337L66.4946 915.657C67.5445 915.028 68.5944 914.608 69.4344 913.978C70.2743 913.348 70.6943 912.298 70.6943 911.248V907.678L70.9043 900.749L71.3242 886.68L71.5342 858.753Z" fill="#F0967D"/>
<path d="M21.3482 945.055C29.7475 949.464 37.9369 954.294 46.3362 959.124L58.7252 966.263L64.8147 969.833L67.9645 971.512C69.0144 972.142 70.2743 972.772 70.9043 974.032C71.7442 975.292 71.7442 976.762 71.7442 978.022V981.591V988.731L71.9542 1003.01L72.1642 1017.29V1024.43V1028L71.9542 1031.57V1033.25L70.2743 1032.62C67.9645 1031.57 65.8647 1030.31 63.9748 1029.05L57.8853 1025.48L45.4963 1018.13L33.1072 1010.78L27.0177 1007.21L23.868 1005.32C23.028 1004.69 21.5581 1004.27 20.7182 1002.8C20.2982 1002.17 20.0883 1001.33 20.0883 1000.7V998.81V995.24V988.101V973.822L20.2982 959.544V952.404C21.1382 949.674 20.9282 947.365 21.3482 945.055ZM21.3482 945.055C21.1382 947.365 21.3482 949.884 21.3482 952.194L21.5581 959.334L21.9781 973.612L22.1881 987.891L22.3981 995.03V998.6V1000.28C22.3981 1000.7 22.6081 1001.12 22.818 1001.54C23.238 1002.17 24.2879 1002.8 25.3378 1003.43L28.4876 1005.32L34.5771 1008.89L46.9662 1016.24L59.3552 1023.59L65.4447 1027.16L68.5944 1029.05C69.6444 1029.68 70.6943 1030.1 71.7442 1030.52L70.0643 1031.57L70.2743 1028V1024.43V1017.29V1003.01V988.731V981.591V978.022C70.2743 976.762 70.2743 975.922 69.8543 975.082C69.4344 974.242 68.5944 973.612 67.5445 972.982L64.3948 971.092L58.3052 967.313L46.1262 959.963L21.3482 945.055Z" fill="#F0967D"/>
<path d="M69.8543 971.093L45.9162 957.654L33.9472 950.934L27.8576 947.575C25.7578 946.525 23.868 945.475 21.9781 944.005L21.3481 943.585L21.9781 943.165C23.868 941.695 25.9678 940.645 28.0676 939.385L34.1571 935.816L46.5462 928.676L58.9352 921.537L65.2347 917.967L68.3844 916.287C69.4344 915.658 70.4843 914.818 72.1642 914.818C73.844 914.818 75.1039 915.658 76.1538 916.078L79.3036 917.757L85.3931 921.327L97.7821 928.466L110.171 935.606L116.261 939.175C118.361 940.435 120.46 941.485 122.35 942.955L122.98 943.375L122.35 943.795L120.88 944.845C120.25 945.265 119.83 945.475 119.2 945.895L115.841 947.575L109.331 951.144L96.3123 958.284L83.2933 965.423L76.7838 968.993C75.7339 969.623 74.684 970.253 73.4241 970.673C72.1642 971.932 70.9042 971.722 69.8543 971.093ZM69.8543 971.093C70.9042 971.722 72.3741 971.932 73.4241 971.302C74.474 970.673 75.5239 970.043 76.5738 969.413L83.0833 965.633L95.8923 958.284L108.701 950.724L115.211 946.945L118.361 945.055C118.99 944.635 119.41 944.425 119.83 944.215L121.3 942.955V944.005C113.111 939.175 104.712 934.766 96.3123 930.146L83.9232 923.217L77.6237 919.647L74.474 917.967C73.4241 917.337 72.5841 916.917 71.7442 916.917C70.9042 916.917 70.0643 917.547 69.0144 917.967L65.8647 919.647L59.5651 923.007L47.3861 930.566L34.7871 937.286L28.4876 940.645C26.3878 941.695 24.2879 942.955 22.3981 944.215V943.375C24.0779 944.845 26.1778 945.895 28.2776 946.945L34.1571 950.514L46.1262 957.444L69.8543 971.093Z" fill="#F0967D"/>
<path d="M73.0041 976.972C73.0041 975.712 73.2141 974.452 74.264 973.612C75.104 972.772 76.3639 972.352 77.4138 971.512L83.7133 967.733L96.5223 960.173L109.331 952.404L115.631 948.625C117.731 947.365 119.83 945.895 122.14 944.845L122.77 944.425L122.98 945.265C122.98 945.895 123.19 946.315 123.4 946.945C123.4 947.785 123.4 948.205 123.4 948.835V952.404V959.544V973.822V988.101V995.24V998.81C123.4 999.86 123.61 1001.33 122.77 1002.8C122.35 1003.43 121.72 1004.06 121.09 1004.48L119.62 1005.32L116.471 1007.21L110.381 1010.78L97.9921 1017.92L85.6031 1025.06L79.3036 1028.63L76.1539 1030.31C75.1039 1030.94 74.054 1031.57 72.7941 1031.99L72.1642 1032.2V1031.57C71.9542 1029.26 72.1642 1026.95 72.1642 1024.64L72.3742 1017.92L72.7941 1004.27L73.0041 976.972ZM73.0041 976.972L72.7941 1004.27V1017.92V1024.64C72.7941 1026.95 72.7941 1029.26 73.0041 1031.36L72.3742 1030.94C73.4241 1030.52 74.474 1029.89 75.5239 1029.26L78.6737 1027.37L84.7632 1023.59L96.9422 1016.24L109.121 1008.89L115.211 1005.32L118.361 1003.43L119.83 1002.59C120.25 1002.38 120.46 1002.17 120.67 1001.75C121.09 1001.12 121.09 1000.07 121.09 998.81V995.24L121.3 988.101L121.51 973.822L121.93 959.544L122.14 952.404V948.835C122.14 948.205 122.14 947.575 122.14 947.155C122.14 946.735 121.93 946.105 121.93 945.475L122.77 945.895C120.46 946.945 118.361 948.205 116.261 949.464L109.751 953.244L96.7322 960.593L83.9233 968.153L77.4138 971.932C76.3639 972.562 75.104 973.192 74.264 973.822C73.2141 974.452 73.0041 975.712 73.0041 976.972Z" fill="#F0967D"/>
<path d="M119.62 941.275L95.8923 927.416L83.9232 920.487L78.0437 917.127L75.1039 915.448C74.054 914.818 73.0041 913.768 72.7941 912.508C72.3741 903.059 72.3741 894.03 72.1642 884.79C71.9542 875.551 71.7442 866.522 71.9542 857.283V856.653L72.3741 856.443L72.7941 856.023C72.7941 856.023 73.0041 856.023 73.2141 855.813C73.2141 855.813 73.4241 855.813 73.634 855.813C73.844 855.813 73.844 855.813 74.054 855.813H74.264L74.684 856.023L75.5239 856.443C76.1538 856.653 76.5738 857.073 77.2037 857.283L80.3535 859.173L86.443 862.742L98.6221 870.092C106.811 874.921 114.791 879.961 122.98 885L123.19 885.21V885.63L122.98 914.398V942.955L119.62 941.275ZM119.62 941.275L122.77 942.955L122.35 914.398L121.72 885.84L121.93 886.47C113.741 881.641 105.342 877.021 97.3622 872.192L85.1831 865.052L79.0936 861.482L75.9439 859.593C75.5239 859.383 74.8939 858.963 74.474 858.753L73.634 858.333L73.2141 858.123H73.4241C73.634 858.123 73.634 858.123 73.634 858.123C73.844 858.123 73.844 858.123 73.634 858.123L73.4241 858.333L73.844 857.493C73.634 866.522 73.844 875.761 73.844 885C73.844 894.24 73.634 903.479 73.634 912.508C73.844 914.608 76.3638 915.448 78.2537 916.707L84.1332 920.277L95.8923 927.416L119.62 941.275Z" fill="#F0967D"/>
<path d="M120.67 882.271L96.9422 869.042L84.9732 862.532L78.8836 859.173L75.9439 857.493L73.0041 855.603L72.1642 855.183L73.0041 854.763L97.7822 840.274L110.171 833.135L116.471 829.565L119.62 827.886C120.67 827.256 121.72 826.416 123.4 826.416C125.08 826.206 126.34 827.256 127.39 827.676L130.54 829.355L136.839 832.925L149.228 840.064L161.617 847.204L167.707 850.773C169.806 852.033 171.906 853.083 173.796 854.553L174.426 854.973L173.796 855.393C171.696 857.073 169.597 858.123 167.287 859.383L160.777 862.952L147.548 870.092L134.529 877.441L128.02 881.011C126.97 881.641 125.92 882.271 124.66 882.69C122.98 883.32 121.72 882.9 120.67 882.271ZM120.67 882.271C121.72 882.9 122.98 883.32 124.24 883.11C125.5 882.9 126.55 882.061 127.6 881.431L134.109 877.651L147.128 870.302L160.147 862.742L166.657 858.963C168.757 857.703 171.066 856.443 172.956 854.973V856.023C171.066 854.763 168.967 853.713 166.867 852.453L160.567 849.094L147.968 842.164L135.579 835.235L129.28 831.665L126.13 829.985C125.08 829.355 124.24 828.935 123.4 828.935C122.56 828.935 121.72 829.565 120.67 830.195L117.521 831.875L111.221 835.445L98.6221 842.374L73.4241 856.023V855.183L76.1539 857.073L79.0936 858.753L84.9732 862.112L96.7322 869.042L120.67 882.271Z" fill="#F0967D"/>
<path d="M174.006 733.814C174.006 735.074 173.796 736.334 172.746 737.174C171.696 738.014 170.646 738.434 169.596 739.064L163.087 742.843L150.278 750.403L137.679 758.382L131.38 762.372C129.28 763.631 127.18 765.101 124.87 766.151L124.03 766.571V765.731C124.03 764.471 123.82 763.211 123.82 762.162V758.592V751.453V737.174V722.895V715.756V712.186C123.82 711.136 123.61 709.666 124.45 708.197C124.87 707.567 125.5 706.937 126.13 706.517L127.81 705.677L130.96 703.787L137.049 700.217L149.438 693.078L161.827 685.939L168.127 682.369C170.226 681.319 172.116 679.849 174.426 679.009L175.056 678.799V679.639C175.266 681.949 175.056 684.259 175.056 686.568L174.846 693.288L174.426 706.937L174.006 733.814ZM174.006 733.814L174.216 706.517V692.868V686.149C174.216 683.839 174.216 681.529 174.006 679.429L174.846 679.849C172.746 680.899 170.646 682.159 168.757 683.419L162.667 687.198L150.488 694.548L138.099 701.897L132.009 705.467L128.86 707.357L127.18 707.987C126.76 708.197 126.55 708.616 126.34 708.826C125.92 709.456 125.92 710.506 125.92 711.766V715.336L125.71 722.475L125.5 736.754L125.08 751.033V758.382V761.952C125.08 763.211 125.29 764.261 125.29 765.521L124.45 765.101C126.76 764.051 128.86 762.792 130.96 761.532L137.469 757.752L150.488 750.403L163.297 742.843L169.806 739.064C170.856 738.434 171.906 737.804 172.956 737.174C173.586 736.334 174.006 735.074 174.006 733.814Z" fill="#F0967D"/>
<path d="M124.24 767.831C126.34 768.671 128.44 769.931 130.54 771.191L136.839 774.76L149.228 781.9L161.617 789.039L167.707 792.609L170.856 794.499C171.906 795.129 173.166 795.549 174.006 797.018C174.846 798.278 174.636 799.748 174.636 801.008V804.578V811.717L174.846 825.996L175.056 840.274V847.414C175.056 849.724 175.266 852.243 174.846 854.553L174.636 856.233L173.166 855.603C170.856 854.553 168.967 853.293 166.867 852.033L160.777 848.464L148.598 841.114L136.419 833.765L130.33 830.195L127.18 828.306C126.34 827.676 124.87 827.046 124.03 825.786C123.19 824.316 123.4 823.056 123.4 821.796V818.226V811.087V796.808L123.61 782.53V775.39C124.03 772.661 124.03 770.141 124.24 767.831ZM124.24 767.831C124.03 770.141 124.24 772.661 124.24 774.97L124.45 782.11L124.87 796.388L125.08 810.667L125.29 817.807V821.376C125.29 822.636 125.29 823.686 125.71 824.316C126.13 825.156 127.18 825.576 128.23 826.206L131.38 828.096L137.469 831.665L149.858 838.805L162.247 845.944L168.337 849.514C170.436 850.773 172.536 852.033 174.426 852.873L172.746 853.923C172.956 851.613 172.956 849.304 172.956 846.784V839.644V825.366V811.087V803.948V800.378C172.956 799.118 172.956 798.068 172.536 797.228C172.116 796.388 171.066 795.968 170.016 795.339L166.867 793.449L160.777 789.669L148.598 782.32L136.419 774.76L130.33 770.981C128.44 770.141 126.34 768.881 124.24 767.831Z" fill="#F0967D"/>
<path d="M174.006 859.593L173.796 887.31V901.169V908.098C173.796 909.358 173.796 910.408 173.796 911.668C173.796 912.928 173.166 914.188 172.116 915.028L148.388 929.516L136.419 936.656L130.54 940.225C128.65 941.485 126.55 942.535 124.45 943.585L122.98 944.425V942.745L122.77 939.175V935.606L122.98 928.466L123.19 914.188L123.4 899.909L123.61 892.77V889.2C123.61 887.94 123.61 886.68 124.45 885.42C125.08 884.16 126.34 883.53 127.39 882.9L130.54 881.221L136.839 877.651L149.228 870.512L174.006 856.233V859.593ZM174.006 859.593L173.796 856.233L149.228 870.932L137.049 878.281L130.96 882.061L127.81 883.95C126.76 884.58 125.92 885.21 125.29 886.05C124.87 886.89 124.66 887.94 124.66 889.2V892.77V899.909V914.188V928.466V935.606V939.175L124.87 942.745L123.19 941.695C125.29 940.855 127.18 939.595 129.28 938.335L135.369 934.766L147.338 927.836L171.486 914.188C173.376 913.138 172.956 910.408 172.956 908.098L173.166 901.169L173.586 887.31L174.006 859.593Z" fill="#F0967D"/>
<path d="M173.166 974.242C173.796 992.93 174.216 1011.83 174.636 1030.94V1031.57L174.216 1031.78L173.586 1032.2C173.376 1032.2 173.376 1032.2 173.166 1032.41H172.956C172.746 1032.41 172.536 1032.2 172.746 1032.41L172.326 1032.2L171.276 1031.36C170.646 1031.15 170.226 1030.73 169.806 1030.52L166.657 1028.84L160.567 1025.27L148.388 1018.13L123.82 1003.64L123.19 1003.22V1002.59L122.98 973.822C122.98 964.163 122.77 954.714 122.98 945.055V943.375L124.24 944.215L149.018 959.334L173.166 974.242ZM173.166 974.242L147.968 959.963L123.19 945.685L124.45 944.845C124.66 954.504 124.66 963.953 124.87 973.612L125.29 1002.38L124.66 1001.33L149.018 1016.03L161.197 1023.38L167.287 1026.95L170.226 1028.84C170.646 1029.05 171.276 1029.47 171.696 1029.68L172.536 1030.1L172.956 1030.31C172.956 1030.31 172.956 1030.31 172.746 1030.31H172.536C172.326 1030.31 172.536 1030.31 172.536 1030.31L172.746 1030.1L172.326 1030.94C172.956 1012.04 172.956 993.35 173.166 974.242Z" fill="#F0967D"/>
<path d="M172.326 971.302L148.388 957.864L136.419 951.354L130.33 947.995C128.44 946.945 126.34 945.895 124.45 944.425L123.82 944.005L124.45 943.585C126.34 941.905 128.44 940.855 130.54 939.595L136.629 936.026L149.018 928.886L161.407 921.747L167.707 918.177L170.856 916.497C171.906 915.868 172.956 915.028 174.636 915.028C175.476 915.028 176.316 915.238 176.946 915.658C177.576 916.077 177.996 916.287 178.626 916.497L181.776 918.177L188.075 921.747L200.464 928.886L212.853 936.026L218.943 939.595C221.042 940.855 223.142 941.905 225.032 943.375L225.662 944.005L224.822 944.425C220.413 946.945 216.213 949.254 211.803 951.564L198.784 958.704L185.765 965.843L179.256 969.413C178.206 970.043 177.156 970.672 175.896 971.092C174.846 972.142 173.376 971.932 172.326 971.302ZM172.326 971.302C173.376 971.932 174.846 972.142 175.896 971.512C176.946 971.092 177.996 970.253 179.046 969.623L185.555 965.843L198.574 958.494L211.383 950.934C215.583 948.415 219.993 945.895 224.192 943.375V944.425C222.302 942.955 220.203 941.905 218.103 940.855L211.803 937.496L199.204 930.566L186.605 923.637L180.306 920.067L177.156 918.387L175.686 917.547C175.266 917.337 174.846 917.127 174.426 917.127C173.586 917.127 172.746 917.547 171.696 918.177L168.547 919.857L162.247 923.427L149.648 930.356L137.049 937.286L130.75 940.645C128.65 941.695 126.55 942.955 124.66 944.215V943.375C126.34 944.845 128.44 945.685 130.33 946.945L136.209 950.514L147.968 957.444L172.326 971.302Z" fill="#F0967D"/>
<path d="M175.476 976.972C175.476 975.712 175.686 974.452 176.736 973.612C177.576 972.772 178.836 972.352 179.886 971.512L186.185 967.733L198.994 960.173L211.803 952.404L218.103 948.625C220.203 947.365 222.302 945.895 224.612 944.845L225.242 944.425L225.452 945.265C225.662 945.895 225.872 946.315 225.872 947.155V949.044V952.614V959.753V974.032V988.311V995.45V999.02V1000.91C225.872 1001.54 225.662 1002.38 225.242 1003.22C224.402 1004.69 222.932 1005.11 222.092 1005.74L218.943 1007.63L212.853 1011.2L200.464 1018.34C192.275 1022.96 183.875 1027.79 175.476 1032.41L174.636 1032.83V1031.99C174.636 1030.94 174.426 1029.68 174.426 1028.63V1025.27L174.636 1018.55L175.056 1004.9L175.476 976.972ZM175.476 976.972L175.266 1004.27V1017.92V1024.85V1028.21C175.266 1029.26 175.476 1030.52 175.476 1031.57L174.636 1031.15C182.825 1026.32 191.015 1021.28 199.204 1016.45L211.593 1009.1L217.683 1005.53L220.832 1003.64C221.882 1003.01 222.932 1002.38 223.142 1001.75C223.352 1001.33 223.352 1001.12 223.352 1000.49V998.81V995.24L223.562 988.101L223.772 973.822L224.192 959.544L224.402 952.404V948.835V947.155C224.402 946.735 224.192 946.105 223.982 945.475L224.822 945.895C222.512 946.945 220.412 948.205 218.313 949.464L211.803 953.244L198.784 960.593L185.975 968.153L179.466 971.932C178.416 972.562 177.156 972.982 176.316 973.822C175.686 974.242 175.266 975.712 175.476 976.972Z" fill="#F0967D"/>
<path d="M223.142 941.905L198.994 927.836L186.815 920.907L180.726 917.337L177.786 915.658C177.366 915.448 176.736 915.028 176.316 914.608C175.896 914.188 175.476 913.348 175.476 912.718C175.056 903.269 175.056 894.03 174.846 884.58L174.636 870.512V863.582V860.013V858.333C174.636 857.703 174.846 857.073 174.846 856.443L175.056 854.763L176.526 855.603C177.576 856.233 178.626 856.653 179.676 857.283L182.825 859.173L188.915 862.742L201.094 870.092L213.273 877.441L219.363 881.221L222.302 883.11C223.352 883.74 224.612 884.37 225.242 885.63C226.082 886.89 225.872 888.36 225.872 889.41V892.98V900.119V914.398C225.872 923.847 226.082 933.506 225.872 942.955C224.402 942.325 223.772 942.325 223.142 941.905ZM223.142 941.905C223.772 942.325 224.612 942.325 225.242 942.745C225.242 933.296 225.032 923.637 225.032 914.188L224.612 899.909L224.402 892.77V889.2C224.402 887.94 224.402 886.89 223.772 886.05C223.142 885.21 222.302 884.79 221.252 884.16L218.103 882.481L212.013 878.911L199.624 871.772L187.235 864.632L181.146 861.062L177.996 859.173L174.846 857.493L176.526 856.653C176.526 857.073 176.316 857.703 176.316 858.123V859.803V863.372V870.302V884.37L176.106 912.298C176.106 913.348 176.946 913.978 177.996 914.608L180.936 916.497L186.815 920.067L198.784 927.416L223.142 941.905Z" fill="#F0967D"/>
<path d="M276.688 860.013L276.478 887.73V901.589V908.518C276.478 909.778 276.478 910.828 276.478 912.088C276.268 913.348 275.638 914.608 274.588 915.238C266.609 920.277 258.839 924.897 250.86 929.726L227.132 944.005L225.662 944.845L225.452 942.955C225.452 941.695 225.242 940.435 225.242 939.385V935.816L225.452 928.676L225.662 914.398L225.872 900.119L226.082 892.98V889.41C226.082 888.36 226.082 886.89 226.712 885.63C227.342 884.37 228.812 883.74 229.652 883.111L232.802 881.431L239.101 877.861L251.49 870.722L263.879 863.582L270.179 860.013C272.278 858.753 274.168 857.493 276.478 856.653L276.688 860.013ZM276.688 860.013V856.653C274.588 857.493 272.488 858.963 270.389 860.223L264.299 863.792L251.91 871.142L239.731 878.491L233.641 882.271L230.492 884.16C229.442 884.79 228.392 885.21 227.972 886.26C227.552 887.1 227.552 888.15 227.552 889.41V892.98V900.119V914.398V928.676V935.816V939.385C227.552 940.645 227.762 941.695 227.762 942.955L226.082 942.115L250.02 928.256C258 923.637 266.189 919.227 273.958 914.608C274.798 913.978 275.428 913.138 275.638 912.088C275.848 911.038 275.848 909.778 275.848 908.728L276.058 901.799L276.478 887.94L276.688 860.013Z" fill="#F0967D"/>
<path d="M275.848 974.452C276.478 993.14 276.898 1012.04 277.318 1031.15V1032.41L276.268 1031.99L275.218 1031.57L274.378 1031.15C273.748 1030.94 273.328 1030.52 272.698 1030.31L269.549 1028.63C267.449 1027.58 265.349 1026.32 263.249 1025.06L250.86 1017.92L238.471 1010.57C234.271 1008.05 230.282 1005.74 226.292 1003.01L225.872 1002.59V1001.96L225.662 973.612C225.662 964.163 225.452 954.714 225.662 945.265V944.005L226.712 944.425L227.762 944.845L228.602 945.265C229.232 945.475 229.652 945.895 230.282 946.105L233.431 947.785L239.731 951.354L252.12 958.704L264.299 966.263C267.869 968.993 271.858 971.512 275.848 974.452ZM275.848 974.452C271.858 971.932 267.659 969.413 263.459 967.103L251.07 959.963L238.471 953.034L232.172 949.674L229.022 947.995C228.392 947.785 227.972 947.365 227.342 947.155L226.502 946.735L225.872 946.525L226.922 945.685C227.132 955.134 227.132 964.583 227.342 974.032L227.762 1002.38L227.342 1001.54C231.122 1004.27 235.321 1006.79 239.311 1009.1L251.7 1016.45L264.089 1023.59L270.389 1027.16L273.538 1028.84C273.958 1029.05 274.588 1029.47 275.008 1029.68L275.848 1030.1L276.478 1030.31L275.428 1031.15C275.428 1012.46 275.638 993.56 275.848 974.452Z" fill="#F0967D"/>
<path d="M274.168 970.673L250.44 957.444L238.471 950.934C234.481 948.625 230.492 946.735 226.712 944.215L226.082 943.795L226.712 943.375C227.762 942.745 228.602 941.905 229.652 941.275L232.802 939.385L239.101 935.816L251.49 928.676L263.879 921.537L270.179 917.967L273.328 916.287C274.378 915.658 275.638 914.818 277.318 914.818C278.998 914.818 280.258 915.658 281.098 916.287L284.247 917.967L290.547 921.537L302.936 928.676L315.325 935.816L321.415 939.385C323.514 940.645 325.614 941.695 327.504 943.375L328.344 944.005L327.504 944.425L301.046 958.914L287.817 966.263L281.308 969.833C280.258 970.463 279.208 971.092 277.948 971.302C276.478 971.932 275.218 971.302 274.168 970.673ZM274.168 970.673C275.218 971.302 276.478 971.722 277.738 971.512C278.998 971.302 280.048 970.463 281.098 970.043L287.607 966.263L300.626 958.704L326.664 943.585V944.635C324.774 943.165 322.674 942.115 320.575 941.065L314.275 937.706L301.676 930.776L289.077 923.847L282.778 920.277L279.628 918.597C278.578 917.967 277.738 917.337 276.898 917.337C276.058 917.337 275.218 917.757 274.168 918.387L271.019 920.067L264.719 923.637L252.12 930.566L239.521 937.496L233.221 940.855L230.072 942.535C229.022 943.165 228.182 943.795 227.132 944.425V943.585C230.912 946.105 234.901 948.205 238.681 950.514L250.44 957.444L274.168 970.673Z" fill="#F0967D"/>
<path d="M277.948 976.972C277.948 975.712 278.158 974.452 279.208 973.612C280.048 972.772 281.308 972.352 282.358 971.512L288.867 967.733L301.676 960.173L314.485 952.404L320.785 948.625C322.884 947.365 324.984 945.895 327.294 944.845L328.134 944.425L328.344 945.265L328.554 946.945C328.554 947.575 328.554 948.205 328.554 948.835V952.404V959.544V973.822V988.101V995.24V998.81C328.554 999.86 328.554 1001.54 327.924 1002.8C327.084 1004.27 325.614 1004.9 324.774 1005.53L321.625 1007.42L315.535 1010.99L303.146 1018.13L290.757 1025.27L284.457 1028.84C282.358 1029.89 280.468 1031.36 278.158 1032.2L277.528 1032.41V1031.78C277.318 1029.47 277.528 1027.16 277.528 1024.85L277.738 1018.13L278.158 1004.48L277.948 976.972ZM277.948 976.972L277.738 1004.27V1017.92V1024.85C277.738 1027.16 277.738 1029.47 277.948 1031.57L277.108 1031.15C279.208 1030.31 281.308 1028.84 283.198 1027.79L289.287 1024.01L301.466 1016.66L313.855 1009.31L319.945 1005.74L323.094 1003.85C324.144 1003.22 324.984 1002.8 325.404 1001.96C325.824 1001.33 325.824 1000.28 325.824 999.02V995.45L326.034 988.311L326.244 974.032L326.664 959.753L326.874 952.614V949.044C326.874 948.415 326.874 947.785 326.874 947.365L326.664 945.685L327.504 946.105C325.194 947.155 323.094 948.415 320.995 949.674L314.485 953.454L301.466 960.803L288.657 968.363L282.148 972.142C281.098 972.772 279.838 973.402 278.998 974.032C278.158 974.452 277.948 975.712 277.948 976.972Z" fill="#F0967D"/>
<path d="M278.158 913.768C277.528 895.079 277.108 875.971 276.688 857.073V855.813L277.738 856.233L278.788 856.653L279.628 857.073C280.258 857.283 280.678 857.703 281.308 857.913L284.457 859.593C286.557 860.643 288.657 861.902 290.757 862.952L303.146 870.092L315.535 877.441C319.735 879.961 323.724 882.271 327.714 885L328.134 885.42V886.05L328.344 914.608C328.344 924.267 328.554 933.716 328.344 943.375V945.055L327.084 944.215L302.306 929.096L278.158 913.768ZM278.158 913.768L303.356 928.046L328.134 942.325L326.874 943.165C326.664 933.716 326.664 924.057 326.454 914.608L326.034 886.05L326.454 886.89C322.674 884.16 318.475 881.851 314.485 879.331L302.096 871.982L289.707 864.842L283.408 861.273L280.258 859.593C279.838 859.383 279.208 858.963 278.788 858.753L277.948 858.333L277.318 858.123L278.368 857.283C278.578 875.761 278.368 894.659 278.158 913.768Z" fill="#F0967D"/>
<path d="M378.32 974.242L379.16 1002.8L379.79 1031.78V1033.25L378.53 1032.41C370.131 1027.58 361.941 1022.75 353.752 1017.92L328.974 1003.43L328.344 1003.01V1002.38L328.134 973.612C328.134 963.953 327.924 954.504 328.134 944.845V943.165L329.394 944.005L354.172 959.124L378.32 974.242ZM378.32 974.242L353.122 959.964L328.344 945.685L329.604 944.845C329.814 954.504 329.814 963.953 330.024 973.612L330.444 1002.38L329.814 1001.33L354.592 1016.03C362.781 1021.07 371.181 1025.9 379.37 1030.94L378.11 1031.78V1003.22L378.32 974.242Z" fill="#F0967D"/>
<path d="M125.92 650.662L149.858 664.101L161.827 670.61L167.917 673.97C170.016 675.02 171.906 676.069 173.796 677.539L174.426 677.959L173.796 678.379C172.746 679.009 171.906 679.849 170.856 680.479L167.707 682.369L161.617 685.939L149.228 693.078L136.839 700.217L130.54 703.787L127.39 705.467C126.34 706.097 125.29 706.937 123.61 706.937C122.77 706.937 121.93 706.727 121.3 706.307C120.67 705.887 120.25 705.677 119.62 705.467L116.471 703.787L110.171 700.217L97.7822 693.078L85.3931 685.939L79.3036 682.369C77.2038 681.109 75.1039 680.059 73.2141 678.589L72.5841 677.749L73.4241 677.329L99.672 663.051L112.691 655.911L119.2 652.342C120.25 651.712 121.3 651.082 122.56 650.662C123.61 649.822 124.87 650.032 125.92 650.662ZM125.92 650.662C124.87 650.032 123.4 649.822 122.35 650.452C121.3 650.872 120.25 651.712 118.99 652.342L112.481 656.121L99.462 663.471L86.653 671.03L73.844 678.589V677.539C75.7339 678.799 77.8337 680.059 79.9336 681.109L86.2331 684.469L98.8321 691.398L111.431 698.327L117.731 701.897L120.88 703.577L122.35 704.417C122.77 704.627 123.19 704.837 123.61 704.837C124.45 704.837 125.29 704.417 126.34 703.787L129.49 702.107L135.789 698.537L148.388 691.608L160.987 684.679L167.287 681.319L170.436 679.639C171.486 679.009 172.326 678.379 173.376 677.749V678.589C171.696 677.119 169.597 676.069 167.707 675.02L161.827 671.45L150.068 664.52L125.92 650.662Z" fill="#F0967D"/>
<path d="M24.0779 591.447L48.226 605.516L60.4051 612.445L66.4946 616.015L69.4344 617.695C70.4843 618.115 71.7442 618.955 71.9542 620.424C72.1641 621.894 72.1642 622.734 72.1642 623.994V627.564L72.5841 634.493L73.0041 648.352L73.2141 662.211V669.14V672.71C73.2141 673.97 73.4241 675.019 73.2141 676.279L73.0041 677.539L71.9542 677.119C71.5342 676.909 71.1142 676.909 70.9042 676.699L70.0643 676.279C69.4344 676.069 69.0144 675.649 68.3845 675.439L65.2347 673.76L58.9352 670.19L46.5462 663.051C42.3465 660.531 38.3568 658.011 34.3671 655.491C30.3774 652.972 26.1778 650.452 22.3981 647.722L22.1881 647.512V647.302L22.3981 618.745V590.187C22.6081 590.817 23.448 591.027 24.0779 591.447ZM24.0779 591.447C23.448 591.027 22.6081 591.027 21.7681 590.607L22.1881 619.165L22.818 647.722V647.092C26.8077 649.612 30.7974 652.132 34.9971 654.441L47.3861 661.581L59.7751 668.72L66.0746 672.08L69.2244 673.76L70.6943 674.6L71.5342 675.02C71.7442 675.02 71.9542 675.229 72.1642 675.229L70.9042 676.279C71.1142 675.439 70.9043 673.97 71.1142 672.92V669.35V662.421V648.562V634.703V627.774V624.204C71.1142 623.154 71.1142 621.684 71.1142 620.844C70.9043 619.795 70.0643 619.375 69.0144 618.745L66.0746 616.855L59.9851 613.075L48.0161 605.726L24.0779 591.447Z" fill="#F0967D"/>
<path d="M24.7079 651.502L48.0161 664.52L71.5342 677.539L72.1642 677.959L71.5342 678.379C70.4843 679.009 69.6444 679.849 68.5945 680.479L65.4447 682.369L59.3552 685.938L46.9662 693.078L34.5771 700.217L28.2776 703.787L25.1279 705.467C24.078 706.097 22.818 706.727 21.1382 706.727C19.6683 706.727 18.1984 705.887 17.3585 705.467L14.2087 703.787L7.90921 700.217L-4.47981 693.078L-16.8688 685.938L-22.9584 682.369L-26.1081 680.269L-29.0479 678.379L-29.8878 677.749L-29.0479 677.329C-20.2286 672.29 -11.1993 667.67 -2.37998 662.841L10.849 655.491L17.5685 651.712C18.6184 651.082 19.8783 650.452 21.1382 650.452C22.3981 650.242 23.658 650.872 24.7079 651.502ZM24.7079 651.502C23.658 650.872 22.3981 650.452 21.1382 650.452C19.8783 650.452 18.6184 651.082 17.5685 651.712L11.059 655.491L-2.16999 663.051C-10.9893 668.09 -19.8086 673.13 -28.4179 678.379V677.329C-20.2286 682.159 -11.6193 686.568 -3.42989 691.188L9.16913 698.117L15.4686 701.687L18.6184 703.367C19.6683 703.997 20.5082 704.417 21.3482 704.417C22.1881 704.417 23.028 703.997 24.078 703.367L27.2277 701.687L33.5272 698.117L46.1262 691.188L58.7252 684.259L65.0247 680.899L68.1745 679.219C69.2244 678.589 70.0644 677.959 71.1143 677.329V678.169L59.5652 671.45L48.0161 664.73L24.7079 651.502Z" fill="#F0967D"/>
<path d="M20.9282 593.757L20.7182 621.474V635.333V642.263C20.7182 643.522 20.7182 644.572 20.7182 645.832C20.5082 647.092 19.8783 648.352 18.8284 649.192C10.849 654.231 3.07959 658.851 -4.89978 663.681L-16.8688 670.82L-22.7484 674.39L-25.6881 676.069L-28.8379 677.749L-30.3078 678.589V676.699L-30.5178 673.13V669.56L-30.3078 662.421L-30.0978 648.142L-29.8878 633.863L-29.6778 626.724V623.154C-29.6778 621.894 -29.6778 620.634 -28.8379 619.375C-28.2079 618.115 -26.948 617.485 -25.8981 616.855L-22.7484 615.175L-16.4489 611.605L-4.05984 604.466L20.7182 590.187L20.9282 593.757ZM20.9282 593.757L20.7182 589.977L-3.84986 604.676L-16.0289 612.235L-22.1184 616.015L-25.2682 617.905C-26.3181 618.535 -27.158 619.165 -27.788 620.005C-28.2079 620.844 -28.2079 621.894 -28.2079 623.154V626.724V633.863V648.142C-28.2079 657.591 -28.4179 667.25 -28.2079 676.699L-29.8878 675.649L-26.948 674.18L-24.0083 672.5L-17.9188 668.93L-5.9497 662.001C2.02967 657.381 10.219 652.972 17.9884 648.352C18.8284 647.722 19.4583 646.882 19.4583 645.832C19.6683 644.782 19.6683 643.522 19.6683 642.473L19.8783 635.543L20.2982 621.684L20.9282 593.757Z" fill="#F0967D"/>
<path d="M-77.3441 587.877L-52.986 574.019L-40.8069 567.089L-34.7174 563.52L-31.5677 561.84C-30.5177 561.21 -29.0479 561 -27.788 561.42C-19.3886 565.83 -11.4092 570.449 -3.21988 574.859L8.95915 581.578L15.0487 584.938C17.1485 585.988 19.0384 587.038 21.1382 588.507L22.6081 589.557L20.9282 590.397C12.7389 595.227 4.33952 599.636 -4.05982 604.256L-16.6588 611.185L-22.9583 614.545L-26.1081 616.435C-27.158 616.855 -28.2079 617.695 -29.6778 617.905C-31.1477 617.905 -32.4076 617.065 -33.2475 616.645L-36.3973 614.755L-42.4868 611.185L-54.8758 604.046L-67.2648 596.697L-73.5643 593.127C-75.6642 591.867 -77.764 590.817 -79.6539 589.347L-77.3441 587.877ZM-77.3441 587.877L-79.6539 589.347C-77.764 590.817 -75.6642 591.867 -73.5643 592.917L-67.2648 596.487L-54.8758 603.416L-42.2768 610.345L-35.9773 613.705L-32.8276 615.385C-31.7776 616.015 -30.7277 616.645 -29.8878 616.435C-28.8379 616.435 -27.9979 615.805 -26.948 615.175L-23.7983 613.285L-17.7087 609.715L-5.31972 602.576L19.4583 588.507V590.397C17.9884 589.137 15.8886 587.877 13.7888 586.828L7.69925 583.258L-4.47979 576.329C-12.4592 571.709 -20.6485 566.879 -28.6279 562.26C-30.3078 561.42 -32.4076 563.1 -34.5074 564.15L-40.5969 567.509L-52.776 574.229L-77.3441 587.877Z" fill="#F0967D"/>
</g>
<g clip-path="url(#clip3_10628_3690)">
<g opacity="0.1">
<path d="M667.782 1587.54C608.457 1550.84 605.603 1460.73 640.464 1400.19C675.325 1339.64 736.077 1299.68 789.898 1255.24C843.922 1210.79 895.704 1153.92 900.19 1084.19C905.898 995.104 832.098 914.169 841.68 825.283C849.019 756.173 905.49 703.779 965.019 674.422C998.657 657.909 1037.39 651.997 1072.25 638.542C1229.84 576.567 1370.1 676.665 1468.36 595.322C1574.78 507.252 1569.28 408.785 1549.71 360.264C1524.63 298.085 1440.23 160.272 1274.08 198.191C1206.6 213.685 1137.49 226.732 1068.38 222.451C965.019 216.131 864.513 134.788 857.785 31.2244C853.3 -39.721 889.996 -113.317 864.513 -179.573C847.388 -224.016 803.761 -254.8 757.279 -265.809C710.798 -276.817 661.87 -270.09 616 -257.246" stroke="url(#paint22_linear_10628_3690)" stroke-miterlimit="10"/>
<path d="M672.471 1587.34C613.146 1547.17 607.845 1455.64 642.706 1392.64C676.752 1331.08 738.116 1290.1 793.16 1246.67C847.592 1203.66 900.19 1149.63 907.325 1082.36C916.499 996.327 849.223 916.208 859.212 827.73C867.163 757.396 919.761 703.371 977.251 670.957C1010.28 652.201 1049.42 643.639 1085.3 628.96C1237.59 566.781 1374.59 661.579 1471.01 582.275C1574.58 496.855 1571.52 400.834 1553.17 351.906C1529.73 289.931 1448.18 157.621 1287.74 190.648C1221.48 204.307 1152.98 215.316 1084.48 210.627C983.775 204.103 886.123 126.43 877.357 26.7393C871.241 -42.1675 904.675 -114.948 879.599 -180.593C862.474 -225.443 820.682 -257.246 775.627 -270.498C730.165 -283.749 681.441 -280.487 634.756 -270.09" stroke="url(#paint23_linear_10628_3690)" stroke-miterlimit="10"/>
<path d="M677.16 1586.93C618.039 1543.5 610.088 1450.34 645.153 1384.69C678.587 1322.11 740.358 1280.11 796.625 1237.5C851.669 1195.91 904.675 1144.95 914.664 1080.12C927.304 997.346 866.348 917.635 876.949 829.768C885.511 758.415 934.031 702.556 989.687 666.879C1022.31 645.881 1061.65 634.465 1098.76 618.767C1245.74 556.384 1379.68 646.085 1473.87 568.616C1574.58 485.846 1574.17 392.271 1556.84 343.14C1535.23 281.572 1456.34 154.563 1301.4 182.493C1236.57 194.317 1168.48 203.287 1100.59 198.395C1002.53 191.667 907.936 117.664 896.928 21.6427C889.181 -45.4293 919.149 -117.19 894.685 -182.02C877.764 -227.278 837.603 -260.1 793.975 -275.39C749.329 -291.088 700.808 -291.088 653.715 -283.137" stroke="url(#paint24_linear_10628_3690)" stroke-miterlimit="10"/>
<path d="M681.849 1586.72C622.728 1540.04 612.33 1445.24 647.395 1376.95C680.218 1313.34 742.601 1270.32 799.887 1228.73C855.339 1188.57 909.16 1140.46 921.799 1078.08C937.701 998.366 883.269 919.47 894.277 832.011C903.451 759.638 947.894 701.944 1001.92 663.006C1033.93 639.765 1073.68 625.698 1112.01 608.777C1253.9 546.598 1384.37 630.795 1476.72 555.161C1574.58 474.837 1576.62 383.913 1560.51 334.374C1540.74 273.01 1464.49 151.302 1315.26 174.542C1251.65 184.532 1184.18 191.056 1117.1 186.163C1021.69 179.231 930.158 108.897 916.907 16.7499C907.529 -48.4873 934.031 -119.025 910.179 -183.447C893.258 -229.113 854.931 -262.751 812.527 -280.283C768.9 -298.427 720.583 -301.689 672.879 -296.185" stroke="url(#paint25_linear_10628_3690)" stroke-miterlimit="10"/>
<path d="M686.334 1586.52C627.417 1536.57 614.369 1440.14 649.638 1369.4C681.849 1304.78 744.64 1260.74 803.353 1219.97C859.212 1181.23 913.645 1136.18 929.139 1076.24C948.506 999.589 900.597 921.304 912.014 834.457C921.799 761.065 962.369 701.333 1014.35 659.336C1045.95 633.853 1085.91 616.932 1125.46 599.196C1262.26 537.22 1389.47 615.913 1479.78 542.317C1574.58 464.644 1579.27 376.37 1564.39 326.423C1546.24 265.263 1472.65 148.855 1329.12 167.203C1266.54 175.358 1199.87 179.843 1133.41 174.746C1040.65 167.611 951.972 100.743 936.682 12.4687C925.673 -50.9337 948.914 -120.452 925.673 -184.262C908.752 -230.336 872.056 -264.993 831.283 -284.768C788.471 -305.359 740.562 -311.882 692.042 -308.824" stroke="url(#paint26_linear_10628_3690)" stroke-miterlimit="10"/>
<path d="M691.023 1586.32C632.105 1532.9 616.612 1435.05 651.88 1361.66C683.48 1296.21 746.678 1250.96 806.615 1211.2C862.882 1173.89 918.334 1131.69 936.274 1074.2C959.311 1000.81 917.518 923.139 929.546 836.7C939.943 762.289 976.436 700.517 1026.59 655.667C1057.57 627.941 1097.94 608.37 1138.71 589.41C1270.41 527.842 1394.16 600.827 1482.43 529.066C1574.38 454.043 1581.51 368.215 1567.85 317.86C1551.34 257.108 1480.39 145.593 1342.78 159.456C1281.42 165.572 1215.37 168.222 1149.52 162.718C1059.41 155.379 973.581 92.1804 956.253 7.77978C943.613 -53.7878 963.388 -122.287 940.759 -185.485C924.042 -231.967 888.977 -267.847 849.631 -289.457C807.838 -312.494 760.133 -322.28 711.002 -321.668" stroke="url(#paint27_linear_10628_3690)" stroke-miterlimit="10"/>
<path d="M695.712 1586.11C636.998 1529.44 618.854 1429.95 654.123 1353.91C685.111 1287.45 748.717 1240.97 809.877 1202.23C866.552 1166.35 922.615 1127.21 943.409 1071.96C969.912 1001.63 934.643 924.77 947.079 838.738C958.088 763.308 990.502 699.498 1038.82 651.589C1069.4 621.417 1109.97 599.399 1151.76 579.217C1278.36 518.261 1398.64 585.333 1485.08 515.407C1574.17 442.83 1583.75 359.653 1571.32 309.094C1556.64 248.75 1487.94 141.924 1356.24 151.302C1295.89 155.583 1230.66 155.99 1165.62 150.282C1078.37 142.739 994.987 83.2103 975.824 2.47923C961.553 -57.2536 978.066 -124.529 955.845 -187.32C939.128 -234.209 905.898 -271.109 867.979 -294.962C827.002 -320.445 779.501 -333.492 729.961 -335.327" stroke="url(#paint28_linear_10628_3690)" stroke-miterlimit="10"/>
<path d="M700.401 1585.7C641.891 1525.77 621.097 1424.65 656.569 1346.16C686.945 1278.68 750.959 1231.18 813.342 1193.47C870.629 1158.81 927.304 1122.93 950.748 1070.13C980.717 1003.05 951.768 926.605 964.815 841.185C976.435 764.735 1004.77 698.886 1051.46 647.92C1081.43 615.301 1122.4 590.837 1165.42 569.635C1287.13 509.494 1403.94 570.451 1488.34 502.359C1574.58 432.433 1586.4 351.906 1575.39 300.939C1562.35 240.799 1494.26 122.149 1370.51 143.962C1312 154.156 1246.76 144.778 1182.34 138.866C1097.74 131.119 1017.21 75.0556 996.007 -1.80199C979.901 -59.7 993.152 -125.956 971.543 -187.932C955.03 -235.229 923.43 -273.352 886.734 -299.039C846.777 -327.172 799.48 -343.278 749.125 -347.559" stroke="url(#paint29_linear_10628_3690)" stroke-miterlimit="10"/>
<path d="M704.886 1585.5C646.376 1522.3 623.339 1419.76 658.608 1338.41C688.372 1270.12 752.794 1221.4 816.4 1184.7C874.095 1151.47 931.381 1118.44 957.68 1068.09C990.91 1004.07 968.689 928.44 982.144 843.427C994.376 765.958 1018.43 697.867 1063.49 644.25C1092.84 609.185 1134.23 582.275 1178.47 559.849C1295.28 500.524 1408.43 555.364 1490.99 489.108C1574.38 421.832 1588.65 343.751 1578.86 292.377C1567.44 232.644 1502.21 117.052 1383.96 136.012C1326.47 145.186 1262.05 132.75 1198.24 126.634C1116.29 118.683 1038.41 66.2893 1015.37 -6.69477C997.638 -62.9618 1007.63 -127.995 986.629 -189.359C970.116 -237.064 940.351 -276.41 905.082 -303.932C865.94 -334.716 819.051 -353.879 768.084 -360.607" stroke="url(#paint30_linear_10628_3690)" stroke-miterlimit="10"/>
<path d="M709.575 1585.3C651.269 1518.63 625.582 1414.66 661.054 1330.87C690.207 1261.56 755.037 1211.61 819.866 1175.93C877.764 1143.93 936.07 1114.16 965.019 1066.25C1001.71 1005.5 986.017 930.274 999.88 845.874C1012.72 767.385 1032.7 697.051 1075.92 640.581C1104.67 603.069 1146.66 573.712 1191.92 550.064C1303.84 491.758 1413.52 540.278 1493.85 476.06C1574.38 411.231 1591.09 336.004 1582.53 284.222C1572.74 224.897 1510.16 112.567 1397.83 128.672C1341.15 136.827 1277.75 121.537 1214.76 115.217C1135.45 107.266 1060.22 58.1347 1035.35 -10.9759C1015.78 -65.4082 1022.71 -129.422 1002.12 -190.174C985.813 -238.287 957.68 -278.856 923.838 -308.417C885.307 -342.055 838.622 -364.276 787.044 -373.45" stroke="url(#paint31_linear_10628_3690)" stroke-miterlimit="10"/>
<path d="M714.264 1585.09C655.958 1515.17 628.028 1409.56 663.297 1323.12C692.042 1252.99 756.872 1201.82 823.128 1167.17C881.434 1136.59 940.555 1109.68 972.154 1064.21C1012.32 1006.52 1002.94 932.109 1017.41 848.116C1030.87 768.608 1046.57 696.032 1088.15 636.707C1116.29 596.749 1158.69 565.15 1204.97 540.278C1312 482.992 1418.01 525.192 1496.5 462.809C1574.17 400.63 1593.33 327.85 1586 275.66C1577.84 216.539 1518.11 107.878 1411.49 120.722C1355.42 127.449 1293.24 109.713 1230.86 102.985C1154.21 94.8307 1081.43 49.1646 1054.92 -15.8687C1033.52 -68.6701 1037.19 -131.257 1017.21 -191.601C1001.1 -240.122 974.601 -281.914 941.982 -313.31C904.675 -349.394 858.193 -374.673 806.003 -386.294" stroke="url(#paint32_linear_10628_3690)" stroke-miterlimit="10"/>
<path d="M718.952 1584.69C660.851 1511.5 630.271 1404.26 665.743 1315.17C693.877 1244.02 759.114 1191.63 826.594 1157.99C885.307 1128.64 945.04 1104.99 979.493 1061.97C1023.12 1007.54 1020.27 933.74 1034.95 850.155C1049.22 769.628 1060.43 694.605 1100.59 632.63C1128.11 590.226 1170.92 556.18 1218.42 530.085C1320.56 474.022 1423.11 509.698 1499.56 449.15C1574.38 389.621 1595.78 319.491 1589.87 266.894C1583.35 208.18 1526.47 123.372 1425.35 112.771C1369.9 106.859 1308.94 97.6847 1247.17 90.9572C1173.17 82.5986 1102.83 40.6022 1074.7 -20.7615C1051.25 -71.7281 1052.07 -133.296 1032.5 -192.825C1016.39 -241.956 991.725 -284.768 960.534 -318.202C924.246 -356.937 877.968 -385.274 825.167 -399.341" stroke="url(#paint33_linear_10628_3690)" stroke-miterlimit="10"/>
<path d="M723.437 1584.48C665.336 1508.03 632.513 1399.37 667.782 1307.63C695.508 1235.67 760.949 1182.05 829.652 1149.43C888.773 1121.5 949.321 1100.71 986.425 1060.14C1033.52 1008.76 1037.19 935.575 1052.27 852.601C1067.16 771.055 1074.09 693.79 1112.62 629.164C1139.32 584.11 1182.95 548.025 1231.47 520.503C1328.92 465.663 1427.8 494.816 1502 436.103C1573.97 379.224 1597.62 311.54 1593.13 258.535C1588.24 200.229 1533.4 119.091 1438.8 105.024C1384.17 96.8693 1324.23 86.0644 1263.28 78.9291C1191.92 70.5706 1123.83 32.0399 1094.27 -25.4504C1068.79 -74.5822 1066.75 -135.13 1047.79 -194.048C1031.89 -243.587 1008.85 -287.622 979.086 -322.891C943.817 -364.276 897.743 -395.671 844.126 -412.185" stroke="url(#paint34_linear_10628_3690)" stroke-miterlimit="10"/>
<path d="M728.126 1584.28C670.228 1504.36 634.96 1394.27 670.228 1299.88C697.343 1226.9 763.191 1172.06 833.118 1140.66C892.646 1113.96 953.806 1096.43 993.764 1058.3C1044.12 1009.99 1054.52 937.614 1070.01 855.048C1085.5 772.482 1088.15 692.974 1125.05 625.494C1151.15 577.994 1195.18 539.667 1244.93 510.922C1337.69 457.305 1432.69 479.934 1505.06 423.055C1574.17 368.827 1600.27 303.793 1597 250.381C1593.54 192.483 1541.14 114.809 1452.67 97.4809C1398.85 87.0837 1339.93 74.6479 1279.58 67.1048C1210.88 58.5425 1145.03 23.4774 1114.05 -30.1394C1086.52 -77.6402 1081.43 -136.965 1063.08 -195.271C1047.18 -245.218 1026.18 -290.68 997.434 -327.58C963.184 -371.819 917.11 -406.069 863.086 -425.028" stroke="url(#paint35_linear_10628_3690)" stroke-miterlimit="10"/>
<path d="M732.815 1584.07C674.917 1500.9 637.406 1389.38 672.471 1292.14C699.177 1218.34 765.026 1162.07 836.379 1131.69C896.316 1106.21 958.291 1091.94 1000.9 1056.06C1054.72 1011.01 1071.64 939.244 1087.54 857.086C1103.85 773.501 1101.81 691.751 1137.49 621.417C1162.77 571.47 1207.62 530.9 1258.18 500.728C1346.25 448.538 1437.38 464.44 1507.91 409.6C1574.17 358.022 1602.51 295.435 1600.88 241.614C1599.04 183.92 1548.89 109.713 1466.73 89.5301C1413.93 76.4827 1355.83 62.8237 1296.1 55.0767C1230.05 46.5144 1166.44 14.9151 1134.02 -35.0322C1104.46 -80.6982 1096.51 -139.004 1078.57 -196.698C1062.87 -247.053 1043.51 -293.738 1016.19 -332.677C983.163 -379.566 937.089 -416.874 882.453 -438.28" stroke="url(#paint36_linear_10628_3690)" stroke-miterlimit="10"/>
<path d="M737.504 1583.87C679.81 1497.23 639.648 1384.28 674.713 1284.39C701.012 1209.57 767.065 1152.08 839.641 1122.93C899.782 1098.67 962.573 1087.46 1008.03 1054.22C1065.32 1012.23 1088.77 941.079 1105.08 859.533C1122 774.928 1115.68 690.732 1149.72 617.747C1174.19 565.15 1219.65 522.542 1271.43 490.943C1355.02 439.976 1442.27 449.354 1510.77 396.349C1574.17 347.217 1604.75 287.484 1604.55 233.256C1604.14 175.969 1556.43 104.82 1480.39 81.7832C1428.41 66.0855 1371.32 51.2032 1312.41 43.0486C1249 34.2823 1187.44 6.55653 1153.8 -39.7211C1122 -83.3485 1111.39 -140.839 1093.86 -197.921C1078.37 -248.684 1060.84 -296.796 1034.74 -337.366C1002.73 -387.109 956.864 -427.271 901.413 -451.123" stroke="url(#paint37_linear_10628_3690)" stroke-miterlimit="10"/>
<path d="M741.989 1583.46C684.499 1493.76 642.095 1379.19 676.956 1276.85C702.643 1201.21 769.104 1142.3 842.903 1114.16C903.451 1091.12 967.058 1082.97 1015.17 1052.19C1075.72 1013.25 1105.89 942.914 1122.61 861.571C1140.34 775.948 1129.34 689.508 1161.95 613.874C1185.6 558.83 1231.88 514.183 1284.68 481.157C1363.58 431.821 1446.96 434.268 1513.42 383.097C1573.97 336.616 1606.79 279.33 1608.01 224.693C1609.24 167.815 1563.98 99.3157 1494.05 74.0363C1443.09 55.4844 1386.82 39.5829 1328.51 31.2243C1267.96 22.4581 1208.03 -1.802 1173.17 -44.41C1139.12 -86.2026 1125.87 -142.47 1108.74 -198.941C1093.25 -250.111 1077.76 -299.447 1052.89 -342.055C1022.1 -394.448 976.232 -437.668 920.168 -463.967" stroke="url(#paint38_linear_10628_3690)" stroke-miterlimit="10"/>
<path d="M746.678 1583.26C689.188 1490.09 644.541 1374.09 679.199 1269.1C704.478 1192.45 770.938 1132.31 846.165 1105.4C907.121 1083.58 971.339 1078.49 1022.31 1050.15C1086.32 1014.27 1123.02 944.749 1140.14 863.814C1158.49 777.171 1142.99 688.489 1174.19 610.001C1197.02 552.51 1244.32 505.825 1297.93 471.168C1372.34 423.259 1451.65 418.774 1516.27 369.642C1573.76 325.607 1609.03 270.971 1611.68 216.131C1614.33 159.66 1571.93 93.8114 1507.71 66.0855C1457.97 44.6796 1402.31 27.7587 1344.62 18.9925C1286.72 10.2262 1228.82 -10.1604 1192.74 -49.3027C1156.25 -89.0566 1140.55 -144.508 1124.03 -200.368C1108.74 -251.946 1095.09 -302.505 1071.23 -346.947C1041.67 -402.195 995.599 -448.269 939.128 -477.014" stroke="url(#paint39_linear_10628_3690)" stroke-miterlimit="10"/>
<path d="M751.367 1583.05C694.081 1486.63 646.988 1369.2 681.645 1261.35C706.517 1183.88 773.181 1122.32 849.835 1096.43C911.198 1075.83 976.232 1074 1029.85 1048.11C1097.33 1015.29 1140.55 946.38 1158.08 866.057C1177.24 778.394 1157.06 687.47 1187.03 606.127C1209.05 546.19 1257.16 497.466 1311.8 461.178C1381.72 414.697 1456.95 403.484 1519.74 356.187C1574.38 314.802 1611.89 262.816 1615.96 207.365C1620.04 151.098 1580.49 87.8992 1522.19 58.1347C1473.67 33.4669 1418.62 15.9344 1361.74 6.76044C1306.49 -2.00581 1250.43 -18.7228 1213.33 -54.3994C1174.39 -91.9108 1156.25 -146.751 1140.14 -201.999C1125.05 -253.984 1113.23 -305.97 1090.6 -352.044C1062.26 -409.942 1016.19 -459.074 958.903 -490.265" stroke="url(#paint40_linear_10628_3690)" stroke-miterlimit="10"/>
<path d="M756.056 1582.85C698.77 1483.16 649.434 1364.1 683.887 1253.61C708.351 1175.32 775.016 1112.12 853.096 1087.66C914.664 1068.29 980.513 1069.52 1036.98 1046.07C1107.73 1016.51 1157.67 948.215 1175.41 868.299C1195.39 779.617 1170.52 686.45 1199.06 602.458C1220.26 539.871 1269.39 489.312 1324.64 451.597C1390.08 406.746 1461.43 388.602 1522.19 343.344C1573.97 304.405 1613.72 255.069 1619.23 199.414C1624.73 143.555 1588.44 82.5987 1535.44 50.7955C1488.34 22.662 1433.71 4.72175 1377.44 -4.6561C1324.84 -13.4223 1270.82 -26.062 1232.49 -58.4768C1191.11 -93.5418 1170.52 -147.974 1154.82 -202.61C1139.94 -255.004 1129.95 -308.213 1108.54 -356.325C1081.43 -417.077 1035.35 -469.063 977.455 -502.701" stroke="url(#paint41_linear_10628_3690)" stroke-miterlimit="10"/>
<path d="M760.541 1582.65C703.459 1479.49 652.084 1359.21 686.13 1246.06C710.186 1166.76 777.054 1102.34 856.358 1079.1C918.334 1060.75 984.998 1065.44 1044.12 1044.44C1118.33 1017.94 1174.8 950.457 1192.94 870.949C1213.74 781.248 1184.18 685.635 1211.29 598.992C1231.68 533.958 1281.83 481.769 1337.89 442.015C1398.85 398.795 1466.12 373.72 1524.84 330.296C1573.76 294.008 1615.56 247.323 1622.69 191.055C1629.62 135.4 1596.8 76.8904 1549.1 43.2525C1503.84 11.4493 1449.2 -6.49086 1393.55 -16.4803C1343.6 -25.2466 1291.41 -34.0128 1252.06 -63.1657C1208.23 -95.7843 1185.19 -149.809 1169.9 -203.63C1155.23 -256.431 1147.07 -310.863 1126.68 -360.81C1100.79 -424.213 1054.72 -479.053 996.21 -515.341" stroke="url(#paint42_linear_10628_3690)" stroke-miterlimit="10"/>
<path d="M765.23 1582.24C708.148 1475.82 654.327 1353.91 688.373 1238.11C711.817 1157.99 779.093 1092.14 859.62 1069.92C922.003 1052.8 989.279 1060.54 1051.25 1041.99C1128.93 1018.75 1191.92 951.68 1210.47 872.784C1231.88 782.064 1197.83 684.208 1223.52 594.711C1243.09 527.231 1294.47 473.206 1351.14 431.618C1407.82 390.029 1471.01 358.022 1527.69 316.433C1573.76 282.795 1617.8 238.556 1626.36 182.085C1634.72 126.838 1605.77 70.5705 1562.75 34.8939C1519.74 -0.782675 1464.7 -18.7228 1409.86 -28.9162C1362.56 -37.6824 1312.41 -42.1674 1271.84 -68.4662C1225.36 -98.4345 1199.87 -152.255 1185.4 -205.464C1170.72 -258.673 1164.81 -314.533 1145.44 -366.315C1120.77 -432.367 1074.5 -490.265 1015.37 -529" stroke="url(#paint43_linear_10628_3690)" stroke-miterlimit="10"/>
</g>
</g>
<defs>
<linearGradient id="paint0_linear_10628_3690" x1="60.4864" y1="-959.348" x2="60.4864" y2="899.539" gradientUnits="userSpaceOnUse">
<stop stop-color="#5850EA"/>
<stop offset="1" stop-color="#5850EA" stop-opacity="0"/>
</linearGradient>
<linearGradient id="paint1_linear_10628_3690" x1="64.0707" y1="-967.215" x2="64.0707" y2="899.335" gradientUnits="userSpaceOnUse">
<stop stop-color="#5850EA"/>
<stop offset="1" stop-color="#5850EA" stop-opacity="0"/>
</linearGradient>
<linearGradient id="paint2_linear_10628_3690" x1="66.9184" y1="-976.374" x2="66.9184" y2="898.927" gradientUnits="userSpaceOnUse">
<stop stop-color="#5850EA"/>
<stop offset="1" stop-color="#5850EA" stop-opacity="0"/>
</linearGradient>
<linearGradient id="paint3_linear_10628_3690" x1="69.6815" y1="-986.613" x2="69.6815" y2="898.724" gradientUnits="userSpaceOnUse">
<stop stop-color="#5850EA"/>
<stop offset="1" stop-color="#5850EA" stop-opacity="0"/>
</linearGradient>
<linearGradient id="paint4_linear_10628_3690" x1="72.4969" y1="-997.539" x2="72.4969" y2="898.52" gradientUnits="userSpaceOnUse">
<stop stop-color="#5850EA"/>
<stop offset="1" stop-color="#5850EA" stop-opacity="0"/>
</linearGradient>
<linearGradient id="paint5_linear_10628_3690" x1="75.1952" y1="-1009.69" x2="75.1952" y2="898.316" gradientUnits="userSpaceOnUse">
<stop stop-color="#5850EA"/>
<stop offset="1" stop-color="#5850EA" stop-opacity="0"/>
</linearGradient>
<linearGradient id="paint6_linear_10628_3690" x1="77.9402" y1="-1023.33" x2="77.9402" y2="898.112" gradientUnits="userSpaceOnUse">
<stop stop-color="#5850EA"/>
<stop offset="1" stop-color="#5850EA" stop-opacity="0"/>
</linearGradient>
<linearGradient id="paint7_linear_10628_3690" x1="81.0066" y1="-1035.56" x2="81.0066" y2="897.704" gradientUnits="userSpaceOnUse">
<stop stop-color="#5850EA"/>
<stop offset="1" stop-color="#5850EA" stop-opacity="0"/>
</linearGradient>
<linearGradient id="paint8_linear_10628_3690" x1="83.729" y1="-1048.61" x2="83.729" y2="897.501" gradientUnits="userSpaceOnUse">
<stop stop-color="#5850EA"/>
<stop offset="1" stop-color="#5850EA" stop-opacity="0"/>
</linearGradient>
<linearGradient id="paint9_linear_10628_3690" x1="86.6962" y1="-1061.45" x2="86.6962" y2="897.297" gradientUnits="userSpaceOnUse">
<stop stop-color="#5850EA"/>
<stop offset="1" stop-color="#5850EA" stop-opacity="0"/>
</linearGradient>
<linearGradient id="paint10_linear_10628_3690" x1="89.5875" y1="-1074.29" x2="89.5875" y2="897.093" gradientUnits="userSpaceOnUse">
<stop stop-color="#5850EA"/>
<stop offset="1" stop-color="#5850EA" stop-opacity="0"/>
</linearGradient>
<linearGradient id="paint11_linear_10628_3690" x1="92.7015" y1="-1087.34" x2="92.7015" y2="896.685" gradientUnits="userSpaceOnUse">
<stop stop-color="#5850EA"/>
<stop offset="1" stop-color="#5850EA" stop-opacity="0"/>
</linearGradient>
<linearGradient id="paint12_linear_10628_3690" x1="95.4427" y1="-1100.18" x2="95.4427" y2="896.481" gradientUnits="userSpaceOnUse">
<stop stop-color="#5850EA"/>
<stop offset="1" stop-color="#5850EA" stop-opacity="0"/>
</linearGradient>
<linearGradient id="paint13_linear_10628_3690" x1="98.7061" y1="-1113.03" x2="98.7061" y2="896.277" gradientUnits="userSpaceOnUse">
<stop stop-color="#5850EA"/>
<stop offset="1" stop-color="#5850EA" stop-opacity="0"/>
</linearGradient>
<linearGradient id="paint14_linear_10628_3690" x1="101.928" y1="-1126.28" x2="101.928" y2="896.073" gradientUnits="userSpaceOnUse">
<stop stop-color="#5850EA"/>
<stop offset="1" stop-color="#5850EA" stop-opacity="0"/>
</linearGradient>
<linearGradient id="paint15_linear_10628_3690" x1="105.076" y1="-1139.12" x2="105.076" y2="895.869" gradientUnits="userSpaceOnUse">
<stop stop-color="#5850EA"/>
<stop offset="1" stop-color="#5850EA" stop-opacity="0"/>
</linearGradient>
<linearGradient id="paint16_linear_10628_3690" x1="108.181" y1="-1151.97" x2="108.181" y2="895.462" gradientUnits="userSpaceOnUse">
<stop stop-color="#5850EA"/>
<stop offset="1" stop-color="#5850EA" stop-opacity="0"/>
</linearGradient>
<linearGradient id="paint17_linear_10628_3690" x1="111.414" y1="-1165.01" x2="111.414" y2="895.258" gradientUnits="userSpaceOnUse">
<stop stop-color="#5850EA"/>
<stop offset="1" stop-color="#5850EA" stop-opacity="0"/>
</linearGradient>
<linearGradient id="paint18_linear_10628_3690" x1="115.039" y1="-1178.27" x2="115.039" y2="895.054" gradientUnits="userSpaceOnUse">
<stop stop-color="#5850EA"/>
<stop offset="1" stop-color="#5850EA" stop-opacity="0"/>
</linearGradient>
<linearGradient id="paint19_linear_10628_3690" x1="118.133" y1="-1190.7" x2="118.133" y2="894.85" gradientUnits="userSpaceOnUse">
<stop stop-color="#5850EA"/>
<stop offset="1" stop-color="#5850EA" stop-opacity="0"/>
</linearGradient>
<linearGradient id="paint20_linear_10628_3690" x1="121.414" y1="-1203.34" x2="121.414" y2="894.646" gradientUnits="userSpaceOnUse">
<stop stop-color="#5850EA"/>
<stop offset="1" stop-color="#5850EA" stop-opacity="0"/>
</linearGradient>
<linearGradient id="paint21_linear_10628_3690" x1="124.778" y1="-1217" x2="124.778" y2="894.239" gradientUnits="userSpaceOnUse">
<stop stop-color="#5850EA"/>
<stop offset="1" stop-color="#5850EA" stop-opacity="0"/>
</linearGradient>
<linearGradient id="paint22_linear_10628_3690" x1="1088.49" y1="-271.348" x2="1088.49" y2="1587.54" gradientUnits="userSpaceOnUse">
<stop stop-color="#5850EA"/>
<stop offset="1" stop-color="#5850EA" stop-opacity="0"/>
</linearGradient>
<linearGradient id="paint23_linear_10628_3690" x1="1092.07" y1="-279.215" x2="1092.07" y2="1587.34" gradientUnits="userSpaceOnUse">
<stop stop-color="#5850EA"/>
<stop offset="1" stop-color="#5850EA" stop-opacity="0"/>
</linearGradient>
<linearGradient id="paint24_linear_10628_3690" x1="1094.92" y1="-288.374" x2="1094.92" y2="1586.93" gradientUnits="userSpaceOnUse">
<stop stop-color="#5850EA"/>
<stop offset="1" stop-color="#5850EA" stop-opacity="0"/>
</linearGradient>
<linearGradient id="paint25_linear_10628_3690" x1="1097.68" y1="-298.613" x2="1097.68" y2="1586.72" gradientUnits="userSpaceOnUse">
<stop stop-color="#5850EA"/>
<stop offset="1" stop-color="#5850EA" stop-opacity="0"/>
</linearGradient>
<linearGradient id="paint26_linear_10628_3690" x1="1100.5" y1="-309.539" x2="1100.5" y2="1586.52" gradientUnits="userSpaceOnUse">
<stop stop-color="#5850EA"/>
<stop offset="1" stop-color="#5850EA" stop-opacity="0"/>
</linearGradient>
<linearGradient id="paint27_linear_10628_3690" x1="1103.2" y1="-321.695" x2="1103.2" y2="1586.32" gradientUnits="userSpaceOnUse">
<stop stop-color="#5850EA"/>
<stop offset="1" stop-color="#5850EA" stop-opacity="0"/>
</linearGradient>
<linearGradient id="paint28_linear_10628_3690" x1="1105.94" y1="-335.327" x2="1105.94" y2="1586.11" gradientUnits="userSpaceOnUse">
<stop stop-color="#5850EA"/>
<stop offset="1" stop-color="#5850EA" stop-opacity="0"/>
</linearGradient>
<linearGradient id="paint29_linear_10628_3690" x1="1109.01" y1="-347.559" x2="1109.01" y2="1585.7" gradientUnits="userSpaceOnUse">
<stop stop-color="#5850EA"/>
<stop offset="1" stop-color="#5850EA" stop-opacity="0"/>
</linearGradient>
<linearGradient id="paint30_linear_10628_3690" x1="1111.73" y1="-360.607" x2="1111.73" y2="1585.5" gradientUnits="userSpaceOnUse">
<stop stop-color="#5850EA"/>
<stop offset="1" stop-color="#5850EA" stop-opacity="0"/>
</linearGradient>
<linearGradient id="paint31_linear_10628_3690" x1="1114.7" y1="-373.45" x2="1114.7" y2="1585.3" gradientUnits="userSpaceOnUse">
<stop stop-color="#5850EA"/>
<stop offset="1" stop-color="#5850EA" stop-opacity="0"/>
</linearGradient>
<linearGradient id="paint32_linear_10628_3690" x1="1117.59" y1="-386.294" x2="1117.59" y2="1585.09" gradientUnits="userSpaceOnUse">
<stop stop-color="#5850EA"/>
<stop offset="1" stop-color="#5850EA" stop-opacity="0"/>
</linearGradient>
<linearGradient id="paint33_linear_10628_3690" x1="1120.7" y1="-399.341" x2="1120.7" y2="1584.69" gradientUnits="userSpaceOnUse">
<stop stop-color="#5850EA"/>
<stop offset="1" stop-color="#5850EA" stop-opacity="0"/>
</linearGradient>
<linearGradient id="paint34_linear_10628_3690" x1="1123.44" y1="-412.185" x2="1123.44" y2="1584.48" gradientUnits="userSpaceOnUse">
<stop stop-color="#5850EA"/>
<stop offset="1" stop-color="#5850EA" stop-opacity="0"/>
</linearGradient>
<linearGradient id="paint35_linear_10628_3690" x1="1126.71" y1="-425.028" x2="1126.71" y2="1584.28" gradientUnits="userSpaceOnUse">
<stop stop-color="#5850EA"/>
<stop offset="1" stop-color="#5850EA" stop-opacity="0"/>
</linearGradient>
<linearGradient id="paint36_linear_10628_3690" x1="1129.93" y1="-438.28" x2="1129.93" y2="1584.07" gradientUnits="userSpaceOnUse">
<stop stop-color="#5850EA"/>
<stop offset="1" stop-color="#5850EA" stop-opacity="0"/>
</linearGradient>
<linearGradient id="paint37_linear_10628_3690" x1="1133.08" y1="-451.123" x2="1133.08" y2="1583.87" gradientUnits="userSpaceOnUse">
<stop stop-color="#5850EA"/>
<stop offset="1" stop-color="#5850EA" stop-opacity="0"/>
</linearGradient>
<linearGradient id="paint38_linear_10628_3690" x1="1136.18" y1="-463.967" x2="1136.18" y2="1583.46" gradientUnits="userSpaceOnUse">
<stop stop-color="#5850EA"/>
<stop offset="1" stop-color="#5850EA" stop-opacity="0"/>
</linearGradient>
<linearGradient id="paint39_linear_10628_3690" x1="1139.41" y1="-477.014" x2="1139.41" y2="1583.26" gradientUnits="userSpaceOnUse">
<stop stop-color="#5850EA"/>
<stop offset="1" stop-color="#5850EA" stop-opacity="0"/>
</linearGradient>
<linearGradient id="paint40_linear_10628_3690" x1="1143.04" y1="-490.265" x2="1143.04" y2="1583.05" gradientUnits="userSpaceOnUse">
<stop stop-color="#5850EA"/>
<stop offset="1" stop-color="#5850EA" stop-opacity="0"/>
</linearGradient>
<linearGradient id="paint41_linear_10628_3690" x1="1146.13" y1="-502.701" x2="1146.13" y2="1582.85" gradientUnits="userSpaceOnUse">
<stop stop-color="#5850EA"/>
<stop offset="1" stop-color="#5850EA" stop-opacity="0"/>
</linearGradient>
<linearGradient id="paint42_linear_10628_3690" x1="1149.41" y1="-515.341" x2="1149.41" y2="1582.65" gradientUnits="userSpaceOnUse">
<stop stop-color="#5850EA"/>
<stop offset="1" stop-color="#5850EA" stop-opacity="0"/>
</linearGradient>
<linearGradient id="paint43_linear_10628_3690" x1="1152.78" y1="-529" x2="1152.78" y2="1582.24" gradientUnits="userSpaceOnUse">
<stop stop-color="#5850EA"/>
<stop offset="1" stop-color="#5850EA" stop-opacity="0"/>
</linearGradient>
<clipPath id="clip0_10628_3690">
<rect width="357" height="371" fill="white"/>
</clipPath>
<clipPath id="clip1_10628_3690">
<rect width="869" height="474" fill="white" transform="translate(571 496)"/>
</clipPath>
<clipPath id="clip2_10628_3690">
<rect width="380" height="411" fill="white" transform="translate(0 561)"/>
</clipPath>
<clipPath id="clip3_10628_3690">
<rect width="824" height="970" fill="white" transform="translate(616)"/>
</clipPath>
</defs>
</svg>
