<svg width="380" height="409" viewBox="0 0 380 409" fill="none" xmlns="http://www.w3.org/2000/svg">
<path d="M20.5082 204.731L-29.4678 176.174L-29.8878 175.964V175.544C-30.0978 165.885 -30.0978 156.436 -30.3078 146.776L-30.7277 118.009V115.909L-29.0479 116.959C-20.6485 121.789 -12.6691 126.618 -4.47979 131.658L7.90924 139.007L13.9988 142.577L17.1485 144.467C18.1984 145.097 19.4583 145.937 20.0883 147.196C20.9282 148.456 20.9282 149.926 20.9282 151.186V154.756V161.895V176.174L20.7182 190.452C20.7182 195.072 20.7182 199.902 20.5082 204.731ZM20.5082 204.731C20.5082 195.282 20.0883 185.623 19.8783 176.174L19.4583 161.685L19.2483 154.546V150.976C19.2483 149.716 19.0384 148.876 18.6184 148.036C18.1984 147.196 17.3585 146.566 16.3086 146.147L13.1588 144.257L7.06931 140.687L-5.31972 133.548C-13.5091 128.718 -21.6984 123.889 -30.0978 119.059L-28.4179 118.009L-28.2079 146.567C-28.2079 156.226 -27.9979 165.675 -28.2079 175.334L-28.6279 174.494L20.5082 204.731Z" fill="#F0967D"/>
<path d="M20.5082 210.191L20.2982 237.908V251.767V258.696C20.2982 259.956 20.2982 261.006 20.2982 262.266C20.2982 263.526 19.6683 264.996 18.6184 265.626L-5.10978 280.114L-17.0788 287.254L-22.9584 290.823L-25.8981 292.503L-27.368 293.343C-27.998 293.553 -28.4179 293.973 -29.0479 294.183L-30.3078 294.813L-30.5178 293.343C-30.5178 292.923 -30.7278 292.293 -30.9377 291.453C-30.9377 291.243 -30.9377 291.033 -30.9377 290.823V290.403V289.563V285.994L-30.7278 278.854L-30.5178 264.576L-30.0978 250.297L-29.8878 243.158V239.588V237.698C-29.8878 237.068 -29.6778 236.228 -29.2579 235.808C-28.4179 234.549 -27.158 234.129 -26.1081 233.499L-22.9584 231.819L-16.6589 228.249L-4.26984 221.11L8.11919 213.97L14.2087 210.401C16.3085 209.351 18.1984 207.881 20.5082 207.041V210.191ZM20.5082 210.191L20.2982 207.041C17.9884 207.881 16.0986 209.351 13.9987 210.401L7.90919 213.97L-4.26984 221.32L-16.4489 228.669L-22.5384 232.449L-25.6882 234.339C-26.7381 234.968 -27.788 235.388 -28.208 236.228C-28.6279 237.068 -28.6279 238.118 -28.6279 239.378V242.948V250.087V264.366V278.644V285.784V289.353V290.193V290.613C-28.6279 290.823 -28.6279 290.823 -28.6279 290.823C-28.6279 291.243 -28.4179 291.873 -28.208 292.503L-29.8878 291.663C-29.4679 291.453 -28.8379 291.243 -28.4179 291.033L-26.9481 290.193L-24.0083 288.514L-17.9188 284.944L-5.94971 278.014L17.9884 264.366C19.8783 263.316 19.2483 260.586 19.4583 258.276L19.6683 251.347L20.0882 237.488L20.5082 210.191Z" fill="#F0967D"/>
<path d="M-27.368 178.694L-3.63985 191.922L8.32922 198.432L14.2087 201.582L17.1485 203.261L20.0883 204.941L20.7182 205.361L20.0883 205.781C19.0384 206.411 18.1984 207.251 17.1485 207.881L13.7888 209.771L7.69926 213.34L-4.68977 220.48L-17.0788 227.619L-23.3783 231.189L-26.5281 232.869C-27.578 233.499 -28.6279 234.339 -30.3078 234.339C-31.1477 234.339 -31.9876 234.129 -32.6176 233.709C-33.2475 233.289 -33.6675 233.079 -34.2974 232.869L-37.4472 231.189L-43.7467 227.619L-56.1357 220.48L-68.5248 213.34L-74.4043 209.771C-76.5041 208.511 -78.604 207.461 -80.4938 205.991L-81.3337 205.361L-80.4938 204.941L-54.0359 190.663L-40.8069 183.313L-34.2974 179.744C-33.2475 179.114 -32.1976 178.484 -30.9377 178.064C-29.6778 177.644 -28.4179 178.064 -27.368 178.694ZM-27.368 178.694C-28.4179 178.064 -29.6778 177.644 -30.9377 178.064C-32.1976 178.274 -33.2475 179.114 -34.2974 179.744L-40.8069 183.313L-53.8259 190.663L-79.8639 205.781V204.731C-77.974 205.991 -75.8742 207.251 -73.7743 208.301L-67.4748 211.661L-54.8758 218.59L-42.2768 225.519L-35.9773 229.089L-32.8276 230.769L-31.3577 231.609C-30.9377 231.819 -30.5177 232.029 -30.0978 232.029C-29.2578 232.029 -28.4179 231.609 -27.368 230.979L-24.2182 229.299L-17.9187 225.729L-5.31972 218.8L7.2793 211.871L13.5788 208.511L16.7286 206.831C17.7785 206.201 18.6184 205.571 19.6683 204.941V205.781L16.9385 203.891L13.9988 202.212L8.11923 198.852L-3.63985 192.132L-27.368 178.694Z" fill="#F0967D"/>
<path d="M-33.0376 410.092L-56.9757 396.654L-68.9448 390.144L-75.0343 386.785L-77.974 385.105C-79.024 384.475 -79.8639 383.845 -80.9138 383.215L-81.5438 382.795L-80.7038 382.375C-72.5145 377.545 -64.3251 372.716 -56.1358 367.886L-43.7467 360.747L-37.4472 357.177L-34.2975 355.497C-33.2476 354.868 -31.9877 354.238 -30.5178 354.238C-29.0479 354.238 -27.578 354.868 -26.5281 355.497L-23.3783 357.177L-17.2888 360.747L-4.89978 367.886L7.48925 375.026C11.4789 377.545 15.6786 379.645 19.6683 382.375L20.2982 382.795L19.6683 383.425L18.1984 384.685C17.5685 385.105 17.1485 385.315 16.5185 385.735L13.1588 387.625L6.64931 391.194L-6.57965 398.334L-19.5986 405.683L-26.1081 409.253C-27.158 409.882 -28.2079 410.512 -29.4678 410.932C-30.7277 411.142 -31.9877 410.722 -33.0376 410.092ZM-33.0376 410.092C-31.9877 410.722 -30.7277 411.142 -29.4678 410.722C-28.2079 410.302 -27.158 409.673 -26.1081 409.043L-19.5986 405.263L-6.57965 397.914L6.43933 390.354L12.9488 386.575L16.0986 384.685C16.5185 384.265 17.1485 384.055 17.5685 383.845L19.0383 382.585V383.635C10.849 378.805 2.44965 374.396 -5.9497 369.776L-18.3387 362.847L-24.6382 359.277L-27.788 357.597C-28.8379 356.967 -29.6778 356.757 -30.5178 356.757C-31.3577 356.757 -32.4076 357.177 -33.2476 357.807L-36.3973 359.487L-42.6968 363.057L-55.2958 369.986C-63.6952 374.606 -72.0945 379.015 -80.2839 383.635V382.795L-77.5541 384.685L-74.6143 386.365L-68.7348 389.934L-56.9757 396.864L-33.0376 410.092Z" fill="#F0967D"/>
<path d="M-29.6778 415.552C-29.6778 414.292 -29.2579 413.032 -28.2079 412.192C-27.158 411.562 -26.1081 410.932 -25.0582 410.302L-18.7587 406.523L-5.9497 398.963L6.85929 391.194L13.1588 387.415L16.3085 385.525C17.3585 384.895 18.4084 384.265 19.6683 383.845L20.5082 383.635V384.475C20.7182 386.995 20.7182 389.304 20.7182 391.614V398.753V413.032V427.311V434.45V438.02C20.7182 439.07 20.9282 440.54 20.0883 442.01C19.6683 442.639 19.0383 443.269 18.6184 443.689C17.9884 444.109 17.5685 444.319 16.9385 444.739L13.7888 446.629L7.69923 450.199L-4.68979 457.338L-17.0788 464.477L-23.3783 468.047C-25.4782 469.097 -27.368 470.567 -29.6778 471.407L-30.3078 471.617V470.987C-30.3078 470.357 -30.5178 469.937 -30.5178 469.307C-30.5178 468.677 -30.5178 468.047 -30.5178 467.417V464.058L-30.3078 457.128L-29.8878 443.479L-29.6778 415.552ZM-29.6778 415.552L-29.8878 443.059V456.708V463.638V466.997C-29.8878 467.627 -29.8878 468.257 -29.8878 468.677C-29.8878 469.097 -29.6778 469.727 -29.4678 470.357L-30.3078 469.937C-28.2079 469.097 -26.3181 467.627 -24.2183 466.367L-18.1287 462.588L-5.9497 455.238L6.22935 447.889L12.3189 444.319L15.4686 442.43C16.5185 441.8 17.3585 441.38 17.7784 440.54C18.1984 439.91 18.1984 438.86 18.1984 437.6V434.03L18.4084 426.891L18.6184 412.612L19.0383 398.334L19.2483 391.194C19.2483 388.884 19.4583 386.365 19.2483 384.055L20.0883 384.685C19.0383 384.895 17.9884 385.525 16.9385 386.155L13.7888 388.044L7.27927 391.824L-5.73971 399.173L-18.5487 406.733L-25.0582 410.512C-26.1081 411.142 -27.158 411.772 -28.2079 412.402C-29.2579 413.032 -29.6778 414.292 -29.6778 415.552Z" fill="#F0967D"/>
<path d="M20.0883 381.955L-4.68977 367.886L-29.8878 353.398L-30.3078 353.188V352.768C-30.5178 343.319 -30.5178 333.659 -30.7277 324.21L-31.1477 295.653V293.973L-29.6778 294.603C-29.2579 294.813 -28.6279 295.023 -27.998 295.233C-27.158 295.653 -26.738 295.863 -26.3181 296.283L-23.1683 298.173L-17.0788 301.952L-4.68977 309.302L7.69925 316.651L13.7888 320.431L16.9385 322.32L18.4084 323.37C19.0384 323.79 19.6683 324.21 19.8783 324.84C20.2983 325.47 20.2983 326.31 20.2983 326.94V328.83V332.4V339.539V353.818L20.0883 368.096V375.236V378.805V380.695C20.2983 380.905 20.0883 381.535 20.0883 381.955ZM20.0883 381.955C20.0883 381.325 20.2983 380.695 20.2983 380.275V378.385L20.0883 374.816L19.8783 367.676L19.4583 353.398L19.2483 339.119L19.0384 331.98V328.41V326.52C19.0384 326.1 19.0384 325.47 18.8284 325.26C18.4084 324.63 17.3585 324 16.3086 323.37L13.1588 321.481L7.06931 317.911L-5.31972 310.561L-17.7088 303.212L-23.7983 299.642L-26.948 297.753C-27.368 297.543 -27.9979 297.123 -28.4179 296.913L-30.0978 296.283L-28.6279 295.233L-28.4179 323.79C-28.4179 333.239 -28.2079 342.899 -28.4179 352.348L-28.8379 351.508L20.0883 381.955Z" fill="#F0967D"/>
<path d="M18.4084 321.271L-5.52969 307.832L-17.4987 301.322L-23.5883 297.963L-26.528 296.283L-29.4678 294.393L-30.3077 293.973L-29.4678 293.553L-4.68975 279.064L7.69927 271.925L13.9988 268.355L17.1485 266.676C18.1984 266.046 19.4584 265.416 20.9282 265.416C22.3981 265.416 23.868 266.046 24.9179 266.676L28.0677 268.355L34.3672 271.925L46.7562 279.064L59.1452 286.204L65.2347 289.773C67.3346 291.033 69.4344 292.083 71.3243 293.553L71.9542 293.973L71.3243 294.603C69.2244 296.283 67.1246 297.333 64.8148 298.383L58.3053 301.952L45.0763 309.092L32.0574 316.441L25.5479 320.011C24.4979 320.641 23.448 321.271 22.1881 321.691C20.7183 322.32 19.4583 321.901 18.4084 321.271ZM18.4084 321.271C19.4583 321.901 20.7183 322.32 21.9782 321.901C23.2381 321.481 24.288 320.851 25.3379 320.221L31.8474 316.441L44.8664 309.092L57.8853 301.532L64.3948 297.753C66.4946 296.493 68.8045 295.233 70.6943 293.763V294.813C62.505 289.983 54.1056 285.574 45.7063 280.954L33.3173 274.025L27.0178 270.455L23.868 268.775C22.8181 268.145 21.9781 267.725 21.1382 267.725C20.2983 267.725 19.4583 268.145 18.4084 268.775L15.2587 270.455L8.95917 274.025L-3.63983 280.954L-28.8379 294.603V293.763L-26.1081 295.653L-23.1683 297.333L-17.2888 300.902L-5.52969 307.832L18.4084 321.271Z" fill="#F0967D"/>
<path d="M121.09 203.681L96.7323 189.403L84.5532 182.473L78.4637 178.904L75.3139 177.224C74.894 177.014 74.264 176.594 73.844 176.174C73.4241 175.754 73.0041 175.124 72.7941 174.284C72.3742 164.625 72.3742 155.386 72.1642 146.147L71.9542 132.078V125.149V121.579V119.899C71.9542 119.269 72.1642 118.639 72.1642 118.009L72.3742 116.329L73.844 117.169C74.894 117.799 75.9439 118.219 76.9938 118.849L80.1436 120.739L86.2331 124.309L98.4121 131.658L110.591 139.007L116.681 142.787L119.62 144.677C120.67 145.307 121.72 145.937 122.56 147.197C123.4 148.456 123.19 149.926 123.19 150.976V154.546V161.685V175.964C123.19 185.413 123.4 195.072 123.19 204.521C122.35 204.101 121.72 204.101 121.09 203.681ZM121.09 203.681C121.72 204.101 122.35 204.101 122.98 204.311C123.19 194.862 122.77 185.413 122.77 175.754L122.35 161.475L122.14 154.336V150.766C122.14 149.506 122.14 148.456 121.51 147.616C120.88 146.777 120.04 146.357 118.99 145.727L115.841 144.047L109.751 140.477L97.3622 133.338L84.9732 126.198L78.8837 122.629L75.7339 120.739L72.5842 119.059L74.264 118.219C74.264 118.639 74.054 119.269 74.054 119.689V121.369V124.939V131.868V145.937C74.054 155.176 73.844 164.835 73.844 173.864C74.054 174.914 74.684 175.544 75.7339 175.964L78.6737 177.854L84.7632 181.423L96.7323 188.773L121.09 203.681Z" fill="#F0967D"/>
<path d="M122.98 210.191L122.77 237.908V251.767V258.696C122.77 259.956 122.77 261.006 122.77 262.266C122.56 263.526 121.93 264.786 120.88 265.626C112.901 270.665 105.132 275.285 97.1522 280.114L85.1832 287.254L79.3036 290.823L76.3639 292.503L73.2141 294.183L71.7442 295.023V293.343L71.5342 289.774V286.204L71.7442 279.064L71.9542 264.786L72.1642 250.507L72.3742 243.368V239.798C72.3742 238.538 72.3742 237.278 73.2141 236.018C73.8441 234.759 75.104 234.129 76.1539 233.499L79.3036 231.819L85.6031 228.249L97.9922 221.11L122.77 206.831L122.98 210.191ZM122.98 210.191L122.77 206.411L98.2021 221.11L86.0231 228.459L79.9336 232.239L76.7838 234.129C75.7339 234.759 74.894 235.388 74.264 236.228C73.8441 237.068 73.6341 238.118 73.6341 239.378V242.948V250.087V264.366V278.645V285.784V289.354L73.8441 292.923L72.1642 291.873L75.104 290.403L78.0437 288.724L84.1333 285.154L96.1023 278.225C104.082 273.605 112.271 269.195 120.04 264.576C120.88 263.946 121.3 263.106 121.51 262.056C121.72 261.006 121.72 259.746 121.72 258.696L121.93 251.767L122.35 237.908L122.98 210.191Z" fill="#F0967D"/>
<path d="M75.314 178.904L99.0421 192.132L111.011 198.642L116.891 202.001L119.83 203.681L122.77 205.571L123.4 205.991L122.56 206.411L97.7822 220.9L85.3932 228.039L79.0937 231.609L75.9439 233.289C74.894 233.919 73.6341 234.758 72.1642 234.758C70.4843 234.758 69.2244 233.919 68.1745 233.499L65.0248 231.819L58.7253 228.249L46.3362 221.11L33.9472 213.97L27.8577 210.401L24.7079 208.511C23.658 207.881 22.6081 207.251 21.7682 206.411L20.9282 205.781L21.7682 205.361C23.868 203.891 26.1778 202.841 28.2776 201.581L34.7871 198.012L48.0161 190.872L61.2451 183.523L67.7545 179.953C68.8045 179.324 69.8544 178.694 71.1143 178.484C73.0041 177.854 74.264 178.274 75.314 178.904ZM75.314 178.904C74.264 178.274 73.0041 177.854 71.7442 178.064C70.4843 178.274 69.4344 179.114 68.3845 179.534L61.875 183.313L48.856 190.872L35.8371 198.432L29.3276 202.211C27.2277 203.471 24.9179 204.731 23.0281 206.201V205.151C24.078 205.781 24.9179 206.411 25.9678 207.041L29.1176 208.721L35.4171 212.081L48.0161 219.01L60.4051 225.939L66.7046 229.509L69.8544 231.189C70.9043 231.819 71.7442 232.239 72.5842 232.239C73.4241 232.239 74.264 231.819 75.314 231.189L78.4637 229.509L84.7632 225.939L97.3622 219.01L122.56 205.361V206.201L119.83 204.311L116.891 202.631L111.011 199.272L99.2521 192.342L75.314 178.904Z" fill="#F0967D"/>
<path d="M71.3242 172.814C71.3242 174.074 70.9043 175.334 69.8543 176.174C68.8044 176.804 67.7545 177.434 66.7046 178.064L60.4051 181.843L47.5961 189.403L34.9971 197.172L28.6976 200.952C26.5977 202.211 24.4979 203.681 22.1881 204.731L21.3481 205.151L21.1382 204.311L20.9282 202.631C20.9282 202.002 20.9282 201.372 20.9282 200.742V197.172V190.033V175.754V161.475V154.336V150.766C20.9282 149.716 20.7182 148.246 21.5581 146.777C21.9781 145.937 22.608 145.517 23.238 145.097L24.7079 144.257L27.8576 142.367L33.9472 138.797L46.3362 131.658L58.7252 124.519L65.0247 120.949L68.1745 119.269L69.6444 118.429C69.8543 118.219 70.0643 118.219 70.4843 118.009L71.3242 117.799L71.9542 117.589V118.219C72.1642 120.529 71.9542 122.839 71.9542 125.149L71.7442 132.078L71.3242 145.727V172.814ZM71.3242 172.814L71.5342 145.517V131.868V124.939C71.5342 122.629 71.5342 120.319 71.3242 118.219L71.9542 118.639L71.1143 118.849C71.1143 118.849 70.6943 119.059 70.4843 119.269L69.0144 120.109L65.8647 121.999L59.7751 125.778L47.5961 133.128L35.2071 140.687L29.1175 144.257L25.9678 146.147L24.4979 146.987C24.0779 147.197 23.8679 147.407 23.658 147.826C23.238 148.456 23.448 149.506 23.238 150.766V154.336L23.028 161.475L22.818 175.754L22.3981 190.033L22.1881 197.172V200.742C22.1881 201.372 22.1881 202.002 22.1881 202.421L22.3981 204.101L21.5581 203.681C23.658 202.631 25.9678 201.372 28.0676 200.112L34.5771 196.542L47.3861 189.193L60.1951 181.633L66.7046 177.854C67.7545 177.224 68.8044 176.594 69.8543 175.964C70.9043 175.544 71.3242 174.074 71.3242 172.814Z" fill="#F0967D"/>
<path d="M71.1142 235.808C71.7442 254.497 72.1642 273.605 72.5841 292.503V293.763L71.5342 293.343L70.4843 292.923L69.6443 292.503L67.9645 291.663L64.8147 289.983C62.7149 288.933 60.6151 287.674 58.5152 286.414L46.1262 279.274L33.7372 271.925C29.5375 269.405 25.5478 267.095 21.5581 264.366L21.1382 263.946V263.316L20.7182 235.178C20.7182 225.729 20.5082 216.07 20.7182 206.621V204.941L21.9781 205.781L46.7561 220.9L71.1142 235.808ZM71.1142 235.808L45.9162 221.53L21.1382 207.251L22.3981 206.411C22.608 215.86 22.6081 225.519 22.818 234.968L23.238 263.526L22.818 262.686C26.5977 265.416 30.7974 267.725 34.7871 270.245L47.1761 277.595L59.5652 284.734L65.8647 288.304L69.0144 289.983L70.4843 290.823L71.3242 291.243L71.9542 291.453L70.9042 292.293C70.6943 273.815 70.9043 254.917 71.1142 235.808Z" fill="#F0967D"/>
<path d="M71.5342 297.753L71.3242 325.89V339.959V346.888V350.458C71.3242 351.718 70.9043 353.188 69.8543 354.028C68.8044 354.867 67.7545 355.287 66.9146 356.127L63.9748 358.017L57.8853 361.587L45.9162 368.936C37.9369 373.766 29.9575 378.595 21.7681 383.215L20.0883 384.055V382.165C19.8783 377.335 20.0883 372.506 20.0883 367.886L20.2982 353.608L20.7182 339.329L20.9282 332.19V328.62C20.9282 327.57 20.9282 326.1 21.5581 324.84C22.1881 323.58 23.448 322.95 24.4979 322.32L27.6477 320.641L33.9472 317.071L46.3362 309.932L58.7252 302.792L64.8147 299.223C66.9146 297.963 69.0144 296.703 71.1143 295.863C71.3242 296.283 71.5342 297.123 71.5342 297.753ZM71.5342 297.753C71.5342 296.913 71.3242 296.283 71.1143 295.443C69.0144 296.493 66.9146 297.753 64.8147 299.013L58.7252 302.582L46.5462 309.932L34.3671 317.281L28.2776 321.061L25.1279 322.95C24.0779 323.58 23.238 324.21 22.8181 325.05C22.3981 325.89 22.3981 327.15 22.3981 328.2V331.77V338.909V353.188C22.3981 362.637 22.1881 372.296 22.3981 381.745L20.7182 380.695C28.9076 376.076 36.8869 371.456 45.0763 366.626L57.2553 359.697L63.3449 356.337L66.4946 354.657C67.5445 354.028 68.5944 353.608 69.4344 352.978C70.2743 352.348 70.6943 351.298 70.6943 350.248V346.678L70.9043 339.749L71.3242 325.68L71.5342 297.753Z" fill="#F0967D"/>
<path d="M21.3482 384.055C29.7475 388.464 37.9369 393.294 46.3362 398.124L58.7252 405.263L64.8147 408.833L67.9645 410.512C69.0144 411.142 70.2743 411.772 70.9043 413.032C71.7442 414.292 71.7442 415.762 71.7442 417.022V420.591V427.731L71.9542 442.01L72.1642 456.288V463.428V466.997L71.9542 470.567V472.247L70.2743 471.617C67.9645 470.567 65.8647 469.307 63.9748 468.047L57.8853 464.477L45.4963 457.128L33.1072 449.779L27.0177 446.209L23.868 444.319C23.028 443.689 21.5581 443.269 20.7182 441.8C20.2982 441.17 20.0883 440.33 20.0883 439.7V437.81V434.24V427.101V412.822L20.2982 398.544V391.404C21.1382 388.674 20.9282 386.365 21.3482 384.055ZM21.3482 384.055C21.1382 386.365 21.3482 388.884 21.3482 391.194L21.5581 398.334L21.9781 412.612L22.1881 426.891L22.3981 434.03V437.6V439.28C22.3981 439.7 22.6081 440.12 22.818 440.54C23.238 441.17 24.2879 441.8 25.3378 442.429L28.4876 444.319L34.5771 447.889L46.9662 455.238L59.3552 462.588L65.4447 466.157L68.5944 468.047C69.6444 468.677 70.6943 469.097 71.7442 469.517L70.0643 470.567L70.2743 466.997V463.428V456.288V442.01V427.731V420.591V417.022C70.2743 415.762 70.2743 414.922 69.8543 414.082C69.4344 413.242 68.5944 412.612 67.5445 411.982L64.3948 410.092L58.3052 406.313L46.1262 398.963L21.3482 384.055Z" fill="#F0967D"/>
<path d="M69.8543 410.093L45.9162 396.654L33.9472 389.934L27.8576 386.575C25.7578 385.525 23.868 384.475 21.9781 383.005L21.3481 382.585L21.9781 382.165C23.868 380.695 25.9678 379.645 28.0676 378.385L34.1571 374.816L46.5462 367.676L58.9352 360.537L65.2347 356.967L68.3844 355.287C69.4344 354.658 70.4843 353.818 72.1642 353.818C73.844 353.818 75.1039 354.658 76.1538 355.078L79.3036 356.757L85.3931 360.327L97.7821 367.466L110.171 374.606L116.261 378.175C118.361 379.435 120.46 380.485 122.35 381.955L122.98 382.375L122.35 382.795L120.88 383.845C120.25 384.265 119.83 384.475 119.2 384.895L115.841 386.575L109.331 390.144L96.3123 397.284L83.2933 404.423L76.7838 407.993C75.7339 408.623 74.684 409.253 73.4241 409.673C72.1642 410.932 70.9042 410.722 69.8543 410.093ZM69.8543 410.093C70.9042 410.722 72.3741 410.932 73.4241 410.302C74.474 409.673 75.5239 409.043 76.5738 408.413L83.0833 404.633L95.8923 397.284L108.701 389.724L115.211 385.945L118.361 384.055C118.99 383.635 119.41 383.425 119.83 383.215L121.3 381.955V383.005C113.111 378.175 104.712 373.766 96.3123 369.146L83.9232 362.217L77.6237 358.647L74.474 356.967C73.4241 356.337 72.5841 355.917 71.7442 355.917C70.9042 355.917 70.0643 356.547 69.0144 356.967L65.8647 358.647L59.5652 362.007L47.3861 369.566L34.7871 376.286L28.4876 379.645C26.3878 380.695 24.2879 381.955 22.3981 383.215V382.375C24.0779 383.845 26.1778 384.895 28.2776 385.945L34.1571 389.514L46.1262 396.444L69.8543 410.093Z" fill="#F0967D"/>
<path d="M73.0041 415.972C73.0041 414.712 73.2141 413.452 74.264 412.612C75.104 411.772 76.3639 411.352 77.4138 410.512L83.7133 406.733L96.5223 399.173L109.331 391.404L115.631 387.625C117.731 386.365 119.83 384.895 122.14 383.845L122.77 383.425L122.98 384.265C122.98 384.895 123.19 385.315 123.4 385.945C123.4 386.785 123.4 387.205 123.4 387.835V391.404V398.544V412.822V427.101V434.24V437.81C123.4 438.86 123.61 440.33 122.77 441.8C122.35 442.429 121.72 443.059 121.09 443.479L119.62 444.319L116.471 446.209L110.381 449.779L97.9921 456.918L85.6031 464.058L79.3036 467.627L76.1539 469.307C75.1039 469.937 74.054 470.567 72.7941 470.987L72.1642 471.197V470.567C71.9542 468.257 72.1642 465.947 72.1642 463.638L72.3742 456.918L72.7941 443.269L73.0041 415.972ZM73.0041 415.972L72.7941 443.269V456.918V463.638C72.7941 465.947 72.7941 468.257 73.0041 470.357L72.3742 469.937C73.4241 469.517 74.474 468.887 75.5239 468.257L78.6737 466.367L84.7632 462.588L96.9422 455.238L109.121 447.889L115.211 444.319L118.361 442.43L119.83 441.59C120.25 441.38 120.46 441.17 120.67 440.75C121.09 440.12 121.09 439.07 121.09 437.81V434.24L121.3 427.101L121.51 412.822L121.93 398.544L122.14 391.404V387.835C122.14 387.205 122.14 386.575 122.14 386.155C122.14 385.735 121.93 385.105 121.93 384.475L122.77 384.895C120.46 385.945 118.361 387.205 116.261 388.464L109.751 392.244L96.7322 399.593L83.9233 407.153L77.4138 410.932C76.3639 411.562 75.104 412.192 74.264 412.822C73.2141 413.452 73.0041 414.712 73.0041 415.972Z" fill="#F0967D"/>
<path d="M119.62 380.275L95.8923 366.416L83.9232 359.487L78.0437 356.127L75.1039 354.448C74.054 353.818 73.0041 352.768 72.7941 351.508C72.3741 342.059 72.3741 333.03 72.1642 323.79C71.9542 314.551 71.7442 305.522 71.9542 296.283V295.653L72.3741 295.443L72.7941 295.023C72.7941 295.023 73.0041 295.023 73.2141 294.813C73.2141 294.813 73.4241 294.813 73.634 294.813C73.844 294.813 73.844 294.813 74.054 294.813H74.264L74.684 295.023L75.5239 295.443C76.1538 295.653 76.5738 296.073 77.2038 296.283L80.3535 298.173L86.443 301.742L98.6221 309.092C106.811 313.921 114.791 318.961 122.98 324L123.19 324.21V324.63L122.98 353.398V381.955L119.62 380.275ZM119.62 380.275L122.77 381.955L122.35 353.398L121.72 324.84L121.93 325.47C113.741 320.641 105.342 316.021 97.3622 311.192L85.1831 304.052L79.0936 300.482L75.9439 298.593C75.5239 298.383 74.8939 297.963 74.474 297.753L73.634 297.333L73.2141 297.123H73.4241C73.634 297.123 73.634 297.123 73.634 297.123C73.844 297.123 73.844 297.123 73.634 297.123L73.4241 297.333L73.844 296.493C73.634 305.522 73.844 314.761 73.844 324C73.844 333.24 73.634 342.479 73.634 351.508C73.844 353.608 76.3638 354.448 78.2537 355.707L84.1332 359.277L95.8923 366.416L119.62 380.275Z" fill="#F0967D"/>
<path d="M120.67 321.271L96.9422 308.042L84.9732 301.532L78.8836 298.173L75.9439 296.493L73.0041 294.603L72.1642 294.183L73.0041 293.763L97.7822 279.274L110.171 272.135L116.471 268.565L119.62 266.886C120.67 266.256 121.72 265.416 123.4 265.416C125.08 265.206 126.34 266.256 127.39 266.676L130.54 268.355L136.839 271.925L149.228 279.064L161.617 286.204L167.707 289.773C169.806 291.033 171.906 292.083 173.796 293.553L174.426 293.973L173.796 294.393C171.696 296.073 169.597 297.123 167.287 298.383L160.777 301.952L147.548 309.092L134.529 316.441L128.02 320.011C126.97 320.641 125.92 321.271 124.66 321.69C122.98 322.32 121.72 321.9 120.67 321.271ZM120.67 321.271C121.72 321.9 122.98 322.32 124.24 322.11C125.5 321.9 126.55 321.061 127.6 320.431L134.109 316.651L147.128 309.302L160.147 301.742L166.657 297.963C168.757 296.703 171.066 295.443 172.956 293.973V295.023C171.066 293.763 168.967 292.713 166.867 291.453L160.567 288.094L147.968 281.164L135.579 274.235L129.28 270.665L126.13 268.985C125.08 268.355 124.24 267.935 123.4 267.935C122.56 267.935 121.72 268.565 120.67 269.195L117.521 270.875L111.221 274.445L98.6221 281.374L73.4241 295.023V294.183L76.1539 296.073L79.0936 297.753L84.9732 301.112L96.7322 308.042L120.67 321.271Z" fill="#F0967D"/>
<path d="M174.006 172.814C174.006 174.074 173.796 175.334 172.746 176.174C171.696 177.014 170.646 177.434 169.596 178.064L163.087 181.843L150.278 189.403L137.679 197.382L131.38 201.372C129.28 202.631 127.18 204.101 124.87 205.151L124.03 205.571V204.731C124.03 203.471 123.82 202.211 123.82 201.162V197.592V190.453V176.174V161.895V154.756V151.186C123.82 150.136 123.61 148.666 124.45 147.197C124.87 146.567 125.5 145.937 126.13 145.517L127.81 144.677L130.96 142.787L137.049 139.217L149.438 132.078L161.827 124.939L168.127 121.369C170.226 120.319 172.116 118.849 174.426 118.009L175.056 117.799V118.639C175.266 120.949 175.056 123.259 175.056 125.568L174.846 132.288L174.426 145.937L174.006 172.814ZM174.006 172.814L174.216 145.517V131.868V125.149C174.216 122.839 174.216 120.529 174.006 118.429L174.846 118.849C172.746 119.899 170.646 121.159 168.757 122.419L162.667 126.198L150.488 133.548L138.099 140.897L132.009 144.467L128.86 146.357L127.18 146.987C126.76 147.197 126.55 147.616 126.34 147.826C125.92 148.456 125.92 149.506 125.92 150.766V154.336L125.71 161.475L125.5 175.754L125.08 190.033V197.382V200.952C125.08 202.211 125.29 203.261 125.29 204.521L124.45 204.101C126.76 203.051 128.86 201.792 130.96 200.532L137.469 196.752L150.488 189.403L163.297 181.843L169.806 178.064C170.856 177.434 171.906 176.804 172.956 176.174C173.586 175.334 174.006 174.074 174.006 172.814Z" fill="#F0967D"/>
<path d="M124.24 206.831C126.34 207.671 128.44 208.931 130.54 210.191L136.839 213.76L149.228 220.9L161.617 228.039L167.707 231.609L170.856 233.499C171.906 234.129 173.166 234.549 174.006 236.018C174.846 237.278 174.636 238.748 174.636 240.008V243.578V250.717L174.846 264.996L175.056 279.274V286.414C175.056 288.724 175.266 291.243 174.846 293.553L174.636 295.233L173.166 294.603C170.856 293.553 168.967 292.293 166.867 291.033L160.777 287.464L148.598 280.114L136.419 272.765L130.33 269.195L127.18 267.306C126.34 266.676 124.87 266.046 124.03 264.786C123.19 263.316 123.4 262.056 123.4 260.796V257.226V250.087V235.808L123.61 221.53V214.39C124.03 211.661 124.03 209.141 124.24 206.831ZM124.24 206.831C124.03 209.141 124.24 211.661 124.24 213.97L124.45 221.11L124.87 235.388L125.08 249.667L125.29 256.807V260.376C125.29 261.636 125.29 262.686 125.71 263.316C126.13 264.156 127.18 264.576 128.23 265.206L131.38 267.096L137.469 270.665L149.858 277.805L162.247 284.944L168.337 288.514C170.436 289.773 172.536 291.033 174.426 291.873L172.746 292.923C172.956 290.613 172.956 288.304 172.956 285.784V278.645V264.366V250.087V242.948V239.378C172.956 238.118 172.956 237.068 172.536 236.228C172.116 235.388 171.066 234.968 170.016 234.339L166.867 232.449L160.777 228.669L148.598 221.32L136.419 213.76L130.33 209.981C128.44 209.141 126.34 207.881 124.24 206.831Z" fill="#F0967D"/>
<path d="M174.006 298.593L173.796 326.31V340.169V347.098C173.796 348.358 173.796 349.408 173.796 350.668C173.796 351.928 173.166 353.188 172.116 354.028L148.388 368.516L136.419 375.656L130.54 379.225C128.65 380.485 126.55 381.535 124.45 382.585L122.98 383.425V381.745L122.77 378.175V374.606L122.98 367.466L123.19 353.188L123.4 338.909L123.61 331.77V328.2C123.61 326.94 123.61 325.68 124.45 324.42C125.08 323.16 126.34 322.53 127.39 321.9L130.54 320.221L136.839 316.651L149.228 309.512L174.006 295.233V298.593ZM174.006 298.593L173.796 295.233L149.228 309.932L137.049 317.281L130.96 321.061L127.81 322.95C126.76 323.58 125.92 324.21 125.29 325.05C124.87 325.89 124.66 326.94 124.66 328.2V331.77V338.909V353.188V367.466V374.606V378.175L124.87 381.745L123.19 380.695C125.29 379.855 127.18 378.595 129.28 377.335L135.369 373.766L147.338 366.836L171.486 353.188C173.376 352.138 172.956 349.408 172.956 347.098L173.166 340.169L173.586 326.31L174.006 298.593Z" fill="#F0967D"/>
<path d="M173.166 413.242C173.796 431.93 174.216 450.829 174.636 469.937V470.567L174.216 470.777L173.586 471.197C173.376 471.197 173.376 471.197 173.166 471.407H172.956C172.746 471.407 172.536 471.197 172.746 471.407L172.326 471.197L171.276 470.357C170.646 470.147 170.226 469.727 169.806 469.517L166.657 467.837L160.567 464.268L148.388 457.128L123.82 442.639L123.19 442.22V441.59L122.98 412.822C122.98 403.163 122.77 393.714 122.98 384.055V382.375L124.24 383.215L149.018 398.334L173.166 413.242ZM173.166 413.242L147.968 398.963L123.19 384.685L124.45 383.845C124.66 393.504 124.66 402.953 124.87 412.612L125.29 441.38L124.66 440.33L149.018 455.028L161.197 462.378L167.287 465.947L170.226 467.837C170.646 468.047 171.276 468.467 171.696 468.677L172.536 469.097L172.956 469.307C172.956 469.307 172.956 469.307 172.746 469.307H172.536C172.326 469.307 172.536 469.307 172.536 469.307L172.746 469.097L172.326 469.937C172.956 451.039 172.956 432.35 173.166 413.242Z" fill="#F0967D"/>
<path d="M172.326 410.302L148.388 396.864L136.419 390.354L130.33 386.995C128.44 385.945 126.34 384.895 124.45 383.425L123.82 383.005L124.45 382.585C126.34 380.905 128.44 379.855 130.54 378.595L136.629 375.026L149.018 367.886L161.407 360.747L167.707 357.177L170.856 355.497C171.906 354.868 172.956 354.028 174.636 354.028C175.476 354.028 176.316 354.238 176.946 354.658C177.576 355.077 177.996 355.287 178.626 355.497L181.776 357.177L188.075 360.747L200.464 367.886L212.853 375.026L218.943 378.595C221.042 379.855 223.142 380.905 225.032 382.375L225.662 383.005L224.822 383.425C220.413 385.945 216.213 388.254 211.803 390.564L198.784 397.704L185.765 404.843L179.256 408.413C178.206 409.043 177.156 409.672 175.896 410.092C174.846 411.142 173.376 410.932 172.326 410.302ZM172.326 410.302C173.376 410.932 174.846 411.142 175.896 410.512C176.946 410.092 177.996 409.253 179.046 408.623L185.555 404.843L198.574 397.494L211.383 389.934C215.583 387.415 219.993 384.895 224.192 382.375V383.425C222.302 381.955 220.203 380.905 218.103 379.855L211.803 376.496L199.204 369.566L186.605 362.637L180.306 359.067L177.156 357.387L175.686 356.547C175.266 356.337 174.846 356.127 174.426 356.127C173.586 356.127 172.746 356.547 171.696 357.177L168.547 358.857L162.247 362.427L149.648 369.356L137.049 376.286L130.75 379.645C128.65 380.695 126.55 381.955 124.66 383.215V382.375C126.34 383.845 128.44 384.685 130.33 385.945L136.209 389.514L147.968 396.444L172.326 410.302Z" fill="#F0967D"/>
<path d="M175.476 415.972C175.476 414.712 175.686 413.452 176.736 412.612C177.576 411.772 178.836 411.352 179.886 410.512L186.185 406.733L198.994 399.173L211.803 391.404L218.103 387.625C220.203 386.365 222.302 384.895 224.612 383.845L225.242 383.425L225.452 384.265C225.662 384.895 225.872 385.315 225.872 386.155V388.044V391.614V398.753V413.032V427.311V434.45V438.02V439.91C225.872 440.54 225.662 441.38 225.242 442.22C224.402 443.689 222.932 444.109 222.092 444.739L218.943 446.629L212.853 450.199L200.464 457.338C192.275 461.958 183.875 466.787 175.476 471.407L174.636 471.827V470.987C174.636 469.937 174.426 468.677 174.426 467.627V464.268L174.636 457.548L175.056 443.899L175.476 415.972ZM175.476 415.972L175.266 443.269V456.918V463.848V467.207C175.266 468.257 175.476 469.517 175.476 470.567L174.636 470.147C182.825 465.317 191.015 460.278 199.204 455.448L211.593 448.099L217.683 444.529L220.832 442.639C221.882 442.01 222.932 441.38 223.142 440.75C223.352 440.33 223.352 440.12 223.352 439.49V437.81V434.24L223.562 427.101L223.772 412.822L224.192 398.544L224.402 391.404V387.835V386.155C224.402 385.735 224.192 385.105 223.982 384.475L224.822 384.895C222.512 385.945 220.412 387.205 218.313 388.464L211.803 392.244L198.784 399.593L185.975 407.153L179.466 410.932C178.416 411.562 177.156 411.982 176.316 412.822C175.686 413.242 175.266 414.712 175.476 415.972Z" fill="#F0967D"/>
<path d="M223.142 380.905L198.994 366.836L186.815 359.907L180.726 356.337L177.786 354.658C177.366 354.448 176.736 354.028 176.316 353.608C175.896 353.188 175.476 352.348 175.476 351.718C175.056 342.269 175.056 333.03 174.846 323.58L174.636 309.512V302.582V299.013V297.333C174.636 296.703 174.846 296.073 174.846 295.443L175.056 293.763L176.526 294.603C177.576 295.233 178.626 295.653 179.676 296.283L182.825 298.173L188.915 301.742L201.094 309.092L213.273 316.441L219.363 320.221L222.302 322.11C223.352 322.74 224.612 323.37 225.242 324.63C226.082 325.89 225.872 327.36 225.872 328.41V331.98V339.119V353.398C225.872 362.847 226.082 372.506 225.872 381.955C224.402 381.325 223.772 381.325 223.142 380.905ZM223.142 380.905C223.772 381.325 224.612 381.325 225.242 381.745C225.242 372.296 225.032 362.637 225.032 353.188L224.612 338.909L224.402 331.77V328.2C224.402 326.94 224.402 325.89 223.772 325.05C223.142 324.21 222.302 323.79 221.252 323.16L218.103 321.481L212.013 317.911L199.624 310.772L187.235 303.632L181.146 300.062L177.996 298.173L174.846 296.493L176.526 295.653C176.526 296.073 176.316 296.703 176.316 297.123V298.803V302.372V309.302V323.37L176.106 351.298C176.106 352.348 176.946 352.978 177.996 353.608L180.936 355.497L186.815 359.067L198.784 366.416L223.142 380.905Z" fill="#F0967D"/>
<path d="M276.688 299.013L276.478 326.73V340.589V347.518C276.478 348.778 276.478 349.828 276.478 351.088C276.268 352.348 275.638 353.608 274.588 354.238C266.609 359.277 258.839 363.897 250.86 368.726L227.132 383.005L225.662 383.845L225.452 381.955C225.452 380.695 225.242 379.435 225.242 378.385V374.816L225.452 367.676L225.662 353.398L225.872 339.119L226.082 331.98V328.41C226.082 327.36 226.082 325.89 226.712 324.63C227.342 323.37 228.812 322.74 229.652 322.111L232.802 320.431L239.101 316.861L251.49 309.722L263.879 302.582L270.179 299.013C272.278 297.753 274.168 296.493 276.478 295.653L276.688 299.013ZM276.688 299.013V295.653C274.588 296.493 272.488 297.963 270.389 299.223L264.299 302.792L251.91 310.142L239.731 317.491L233.641 321.271L230.492 323.16C229.442 323.79 228.392 324.21 227.972 325.26C227.552 326.1 227.552 327.15 227.552 328.41V331.98V339.119V353.398V367.676V374.816V378.385C227.552 379.645 227.762 380.695 227.762 381.955L226.082 381.115L250.02 367.256C258 362.637 266.189 358.227 273.958 353.608C274.798 352.978 275.428 352.138 275.638 351.088C275.848 350.038 275.848 348.778 275.848 347.728L276.058 340.799L276.478 326.94L276.688 299.013Z" fill="#F0967D"/>
<path d="M275.848 413.452C276.478 432.14 276.898 451.039 277.318 470.147V471.407L276.268 470.987L275.218 470.567L274.378 470.147C273.748 469.937 273.328 469.517 272.698 469.307L269.549 467.627C267.449 466.577 265.349 465.317 263.249 464.058L250.86 456.918L238.471 449.569C234.271 447.049 230.282 444.739 226.292 442.01L225.872 441.59V440.96L225.662 412.612C225.662 403.163 225.452 393.714 225.662 384.265V383.005L226.712 383.425L227.762 383.845L228.602 384.265C229.232 384.475 229.652 384.895 230.282 385.105L233.431 386.785L239.731 390.354L252.12 397.704L264.299 405.263C267.869 407.993 271.858 410.512 275.848 413.452ZM275.848 413.452C271.858 410.932 267.659 408.413 263.459 406.103L251.07 398.963L238.471 392.034L232.172 388.674L229.022 386.995C228.392 386.785 227.972 386.365 227.342 386.155L226.502 385.735L225.872 385.525L226.922 384.685C227.132 394.134 227.132 403.583 227.342 413.032L227.762 441.38L227.342 440.54C231.122 443.269 235.321 445.789 239.311 448.099L251.7 455.448L264.089 462.588L270.389 466.157L273.538 467.837C273.958 468.047 274.588 468.467 275.008 468.677L275.848 469.097L276.478 469.307L275.428 470.147C275.428 451.459 275.638 432.56 275.848 413.452Z" fill="#F0967D"/>
<path d="M274.168 409.673L250.44 396.444L238.471 389.934C234.481 387.625 230.492 385.735 226.712 383.215L226.082 382.795L226.712 382.375C227.762 381.745 228.602 380.905 229.652 380.275L232.802 378.385L239.101 374.816L251.49 367.676L263.879 360.537L270.179 356.967L273.328 355.287C274.378 354.658 275.638 353.818 277.318 353.818C278.998 353.818 280.258 354.658 281.098 355.287L284.247 356.967L290.547 360.537L302.936 367.676L315.325 374.816L321.415 378.385C323.514 379.645 325.614 380.695 327.504 382.375L328.344 383.005L327.504 383.425L301.046 397.914L287.817 405.263L281.308 408.833C280.258 409.463 279.208 410.092 277.948 410.302C276.478 410.932 275.218 410.302 274.168 409.673ZM274.168 409.673C275.218 410.302 276.478 410.722 277.738 410.512C278.998 410.302 280.048 409.463 281.098 409.043L287.607 405.263L300.626 397.704L326.664 382.585V383.635C324.774 382.165 322.674 381.115 320.575 380.065L314.275 376.706L301.676 369.776L289.077 362.847L282.778 359.277L279.628 357.597C278.578 356.967 277.738 356.337 276.898 356.337C276.058 356.337 275.218 356.757 274.168 357.387L271.019 359.067L264.719 362.637L252.12 369.566L239.521 376.496L233.221 379.855L230.072 381.535C229.022 382.165 228.182 382.795 227.132 383.425V382.585C230.912 385.105 234.901 387.205 238.681 389.514L250.44 396.444L274.168 409.673Z" fill="#F0967D"/>
<path d="M277.948 415.972C277.948 414.712 278.158 413.452 279.208 412.612C280.048 411.772 281.308 411.352 282.358 410.512L288.867 406.733L301.676 399.173L314.485 391.404L320.785 387.625C322.884 386.365 324.984 384.895 327.294 383.845L328.134 383.425L328.344 384.265L328.554 385.945C328.554 386.575 328.554 387.205 328.554 387.835V391.404V398.544V412.822V427.101V434.24V437.81C328.554 438.86 328.554 440.54 327.924 441.8C327.084 443.269 325.614 443.899 324.774 444.529L321.625 446.419L315.535 449.989L303.146 457.128L290.757 464.268L284.457 467.837C282.358 468.887 280.468 470.357 278.158 471.197L277.528 471.407V470.777C277.318 468.467 277.528 466.157 277.528 463.848L277.738 457.128L278.158 443.479L277.948 415.972ZM277.948 415.972L277.738 443.269V456.918V463.848C277.738 466.157 277.738 468.467 277.948 470.567L277.108 470.147C279.208 469.307 281.308 467.837 283.198 466.787L289.287 463.008L301.466 455.658L313.855 448.309L319.945 444.739L323.094 442.849C324.144 442.22 324.984 441.8 325.404 440.96C325.824 440.33 325.824 439.28 325.824 438.02V434.45L326.034 427.311L326.244 413.032L326.664 398.753L326.874 391.614V388.044C326.874 387.415 326.874 386.785 326.874 386.365L326.664 384.685L327.504 385.105C325.194 386.155 323.094 387.415 320.995 388.674L314.485 392.454L301.466 399.803L288.657 407.363L282.148 411.142C281.098 411.772 279.838 412.402 278.998 413.032C278.158 413.452 277.948 414.712 277.948 415.972Z" fill="#F0967D"/>
<path d="M278.158 352.768C277.528 334.079 277.108 314.971 276.688 296.073V294.813L277.738 295.233L278.788 295.653L279.628 296.073C280.258 296.283 280.678 296.703 281.308 296.913L284.457 298.593C286.557 299.643 288.657 300.902 290.757 301.952L303.146 309.092L315.535 316.441C319.735 318.961 323.724 321.271 327.714 324L328.134 324.42V325.05L328.344 353.608C328.344 363.267 328.554 372.716 328.344 382.375V384.055L327.084 383.215L302.306 368.096L278.158 352.768ZM278.158 352.768L303.356 367.046L328.134 381.325L326.874 382.165C326.664 372.716 326.664 363.057 326.454 353.608L326.034 325.05L326.454 325.89C322.674 323.16 318.475 320.851 314.485 318.331L302.096 310.982L289.707 303.842L283.408 300.273L280.258 298.593C279.838 298.383 279.208 297.963 278.788 297.753L277.948 297.333L277.318 297.123L278.368 296.283C278.578 314.761 278.368 333.659 278.158 352.768Z" fill="#F0967D"/>
<path d="M378.32 413.242L379.16 441.8L379.79 470.777V472.247L378.53 471.407C370.131 466.577 361.941 461.748 353.752 456.918L328.974 442.43L328.344 442.01V441.38L328.134 412.612C328.134 402.953 327.924 393.504 328.134 383.845V382.165L329.394 383.005L354.172 398.124L378.32 413.242ZM378.32 413.242L353.122 398.964L328.344 384.685L329.604 383.845C329.814 393.504 329.814 402.953 330.024 412.612L330.444 441.38L329.814 440.33L354.592 455.028C362.781 460.068 371.181 464.897 379.37 469.937L378.11 470.777V442.22L378.32 413.242Z" fill="#F0967D"/>
<path d="M125.92 89.6618L149.858 103.101L161.827 109.61L167.917 112.97C170.016 114.02 171.906 115.069 173.796 116.539L174.426 116.959L173.796 117.379C172.746 118.009 171.906 118.849 170.856 119.479L167.707 121.369L161.617 124.939L149.228 132.078L136.839 139.217L130.54 142.787L127.39 144.467C126.34 145.097 125.29 145.937 123.61 145.937C122.77 145.937 121.93 145.727 121.3 145.307C120.67 144.887 120.25 144.677 119.62 144.467L116.471 142.787L110.171 139.217L97.7822 132.078L85.3931 124.939L79.3036 121.369C77.2038 120.109 75.1039 119.059 73.2141 117.589L72.5841 116.749L73.4241 116.329L99.672 102.051L112.691 94.9113L119.2 91.3416C120.25 90.7117 121.3 90.0817 122.56 89.6618C123.61 88.8218 124.87 89.0318 125.92 89.6618ZM125.92 89.6618C124.87 89.0318 123.4 88.8218 122.35 89.4518C121.3 89.8717 120.25 90.7117 118.99 91.3416L112.481 95.1212L99.462 102.471L86.653 110.03L73.844 117.589V116.539C75.7339 117.799 77.8337 119.059 79.9336 120.109L86.2331 123.469L98.8321 130.398L111.431 137.327L117.731 140.897L120.88 142.577L122.35 143.417C122.77 143.627 123.19 143.837 123.61 143.837C124.45 143.837 125.29 143.417 126.34 142.787L129.49 141.107L135.789 137.537L148.388 130.608L160.987 123.679L167.287 120.319L170.436 118.639C171.486 118.009 172.326 117.379 173.376 116.749V117.589C171.696 116.119 169.597 115.069 167.707 114.02L161.827 110.45L150.068 103.52L125.92 89.6618Z" fill="#F0967D"/>
<path d="M24.0779 30.4471L48.226 44.5159L60.4051 51.4452L66.4946 55.0149L69.4344 56.6947C70.4843 57.1147 71.7442 57.9546 71.9542 59.4245C72.1641 60.8944 72.1642 61.7343 72.1642 62.9942V66.5638L72.5841 73.4932L73.0041 87.3519L73.2141 101.211V108.14V111.71C73.2141 112.97 73.4241 114.02 73.2141 115.279L73.0041 116.539L71.9542 116.119C71.5342 115.909 71.1142 115.909 70.9042 115.699L70.0643 115.279C69.4344 115.069 69.0144 114.649 68.3845 114.439L65.2347 112.76L58.9352 109.19L46.5462 102.051C42.3465 99.5308 38.3568 97.0111 34.3671 94.4913C30.3774 91.9715 26.1778 89.4517 22.3981 86.722L22.1881 86.512V86.302L22.3981 57.7446V29.1873C22.6081 29.8172 23.448 30.0272 24.0779 30.4471ZM24.0779 30.4471C23.448 30.0272 22.6081 30.0272 21.7681 29.6072L22.1881 58.1646L22.818 86.722V86.0921C26.8077 88.6118 30.7974 91.1316 34.9971 93.4414L47.3861 100.581L59.7751 107.72L66.0746 111.08L69.2244 112.76L70.6943 113.6L71.5342 114.02C71.7442 114.02 71.9542 114.229 72.1642 114.229L70.9042 115.279C71.1142 114.439 70.9043 112.97 71.1142 111.92V108.35V101.421V87.5619V73.7032V66.7738V63.2041C71.1142 62.1542 71.1142 60.6844 71.1142 59.8445C70.9043 58.7945 70.0643 58.3746 69.0144 57.7446L66.0746 55.8548L59.9851 52.0752L48.0161 44.7258L24.0779 30.4471Z" fill="#F0967D"/>
<path d="M24.7079 90.5016L48.0161 103.52L71.5342 116.539L72.1642 116.959L71.5342 117.379C70.4843 118.009 69.6444 118.849 68.5945 119.479L65.4447 121.369L59.3552 124.938L46.9662 132.078L34.5771 139.217L28.2776 142.787L25.1279 144.467C24.078 145.097 22.8181 145.727 21.1382 145.727C19.6683 145.727 18.1984 144.887 17.3585 144.467L14.2087 142.787L7.90921 139.217L-4.47981 132.078L-16.8688 124.938L-22.9584 121.369L-26.1081 119.269L-29.0479 117.379L-29.8878 116.749L-29.0479 116.329C-20.2286 111.29 -11.1993 106.67 -2.37998 101.841L10.849 94.4913L17.5685 90.7116C18.6184 90.0817 19.8783 89.4517 21.1382 89.4517C22.3981 89.2417 23.658 89.8717 24.7079 90.5016ZM24.7079 90.5016C23.658 89.8717 22.3981 89.4517 21.1382 89.4517C19.8783 89.4517 18.6184 90.0817 17.5685 90.7116L11.059 94.4913L-2.16999 102.051C-10.9893 107.09 -19.8086 112.13 -28.4179 117.379V116.329C-20.2286 121.159 -11.6193 125.568 -3.4299 130.188L9.16912 137.117L15.4686 140.687L18.6184 142.367C19.6683 142.997 20.5082 143.417 21.3482 143.417C22.1881 143.417 23.028 142.997 24.078 142.367L27.2277 140.687L33.5272 137.117L46.1262 130.188L58.7252 123.259L65.0247 119.899L68.1745 118.219C69.2244 117.589 70.0644 116.959 71.1143 116.329V117.169L59.5652 110.45L48.0161 103.73L24.7079 90.5016Z" fill="#F0967D"/>
<path d="M20.9282 32.757L20.7182 60.4744V74.3332V81.2625C20.7182 82.5224 20.7182 83.5723 20.7182 84.8322C20.5082 86.0921 19.8783 87.352 18.8284 88.1919C10.849 93.2314 3.07959 97.851 -4.89978 102.681L-16.8688 109.82L-22.7484 113.39L-25.6881 115.069L-28.8379 116.749L-30.3078 117.589V115.699L-30.5178 112.13V108.56L-30.3078 101.421L-30.0978 87.142L-29.8878 72.8633L-29.6778 65.7239V62.1543C-29.6778 60.8944 -29.6778 59.6345 -28.8379 58.3746C-28.2079 57.1147 -26.948 56.4848 -25.8981 55.8548L-22.7484 54.175L-16.4489 50.6053L-4.05984 43.466L20.7182 29.1873L20.9282 32.757ZM20.9282 32.757L20.7182 28.9773L-3.84986 43.676L-16.0289 51.2353L-22.1184 55.0149L-25.2682 56.9047C-26.3181 57.5347 -27.158 58.1646 -27.788 59.0046C-28.2079 59.8445 -28.2079 60.8944 -28.2079 62.1543V65.7239V72.8633V87.142C-28.2079 96.5911 -28.4179 106.25 -28.2079 115.699L-29.8878 114.649L-26.948 113.18L-24.0083 111.5L-17.9188 107.93L-5.9497 101.001C2.02967 96.3811 10.219 91.9715 17.9884 87.352C18.8284 86.722 19.4583 85.8821 19.4583 84.8322C19.6683 83.7823 19.6683 82.5224 19.6683 81.4725L19.8783 74.5431L20.2982 60.6844L20.9282 32.757Z" fill="#F0967D"/>
<path d="M-77.3441 26.8775L-52.986 13.0188L-40.8069 6.08939L-34.7174 2.51971L-31.5677 0.839867C-30.5177 0.209924 -29.0479 -5.67138e-05 -27.788 0.419905C-19.3886 4.8295 -11.4092 9.44908 -3.21989 13.8587L8.95914 20.5781L15.0487 23.9378C17.1485 24.9877 19.0384 26.0376 21.1382 27.5074L22.6081 28.5573L20.9282 29.3973C12.7389 34.2268 4.33952 38.6364 -4.05982 43.256L-16.6588 50.1854L-22.9583 53.545L-26.1081 55.4349C-27.158 55.8548 -28.2079 56.6948 -29.6778 56.9047C-31.1477 56.9047 -32.4076 56.0648 -33.2475 55.6449L-36.3973 53.755L-42.4868 50.1854L-54.8758 43.046L-67.2648 35.6967L-73.5643 32.127C-75.6642 30.8671 -77.764 29.8172 -79.6539 28.3474L-77.3441 26.8775ZM-77.3441 26.8775L-79.6539 28.3474C-77.764 29.8172 -75.6642 30.8671 -73.5643 31.917L-67.2648 35.4867L-54.8758 42.4161L-42.2768 49.3454L-35.9773 52.7051L-32.8276 54.385C-31.7776 55.0149 -30.7277 55.6449 -29.8878 55.4349C-28.8379 55.4349 -27.9979 54.8049 -26.948 54.175L-23.7983 52.2852L-17.7087 48.7155L-5.31972 41.5761L19.4583 27.5074V29.3973C17.9884 28.1374 15.8886 26.8775 13.7888 25.8276L7.69925 22.2579L-4.47979 15.3285C-12.4592 10.709 -20.6485 5.87941 -28.6279 1.25983C-30.3078 0.419905 -32.4076 2.09975 -34.5074 3.14966L-40.5969 6.50935L-52.776 13.2287L-77.3441 26.8775Z" fill="#F0967D"/>
</svg>
