<svg width="117" height="107" viewBox="0 0 117 107" fill="none" xmlns="http://www.w3.org/2000/svg">
<g opacity="0.05">
<path d="M40.4187 76.8606C35.0386 78.9283 28.9359 78.1328 24.5841 74.2427C20.2323 70.3527 18.7594 64.3761 20.2137 58.7991L11.3541 56.0072C9.81044 60.5451 9.60528 65.3964 10.7637 69.9676C11.9221 74.5389 14.3939 78.632 17.8767 81.7463C21.3605 84.8592 25.7039 86.8582 30.3758 87.4987C35.0476 88.1393 39.8454 87.3937 44.1824 85.3532L40.4187 76.8606Z" fill="#EF6239"/>
<path d="M83.645 41.2055C86.342 43.6162 90.5428 43.3169 93.0279 40.5368C95.5129 37.7568 95.3412 33.5488 92.6442 31.138C89.9473 28.7273 85.7465 29.0266 83.2614 31.8067C80.7763 34.5867 80.9481 38.7947 83.645 41.2055Z" fill="#EF6239"/>
<path d="M105.593 59.1557C103.238 57.0515 100.48 55.4458 97.4752 54.4303C94.4703 53.4149 91.2775 53.0096 88.0791 53.2375C84.8807 53.4655 81.7394 54.3222 78.8346 55.7589C75.9297 57.1955 73.3182 59.1839 71.1491 61.6105C66.7684 66.5112 64.4558 72.8994 64.7199 79.3698C64.984 85.8401 67.8032 91.8626 72.5574 96.1123C77.3117 100.362 83.6113 102.491 90.0707 102.031C96.53 101.57 102.62 98.5584 107.001 93.6578C111.381 88.757 113.694 82.3688 113.43 75.8984C113.166 69.4281 110.347 63.4055 105.593 59.1557Z" fill="#EF6239"/>
<path d="M81.5056 86.1042C80.4266 85.1398 79.554 83.9657 78.9377 82.649C78.3213 81.3323 77.9731 79.8988 77.9132 78.4304C77.8532 76.962 78.0826 75.4873 78.5882 74.0907C79.0938 72.694 79.8657 71.4027 80.8599 70.2905C81.8541 69.1783 83.0511 68.2669 84.3826 67.6085C85.714 66.9501 87.1538 66.5574 88.6197 66.453C90.0856 66.3485 91.549 66.5343 92.9263 66.9998C94.3036 67.4653 95.5678 68.2013 96.6467 69.1658C97.7257 70.1302 98.5982 71.3042 99.2146 72.6209C99.8309 73.9375 100.179 75.371 100.239 76.8394C100.299 78.3078 100.069 79.7824 99.5638 81.179C99.0582 82.5756 98.2863 83.8669 97.2921 84.979C96.298 86.0912 95.101 87.0026 93.7696 87.661C92.4382 88.3195 90.9985 88.7122 89.5326 88.8167C88.0667 88.9211 86.6033 88.7354 85.226 88.27C83.8488 87.8046 82.5846 87.0687 81.5056 86.1042Z" fill="#F9F8FC"/>
<path d="M68.0625 25.6074C65.7084 23.5031 62.9501 21.8974 59.9452 20.882C56.9402 19.8665 53.7474 19.4612 50.5491 19.6892C47.3507 19.9171 44.2094 20.7739 41.3045 22.2105C38.3997 23.6471 35.7882 25.6355 33.6191 28.0622C29.2384 32.9629 26.9258 39.3511 27.1899 45.8214C27.454 52.2918 30.2732 58.3142 35.0274 62.564C39.7816 66.8137 46.0814 68.9426 52.5407 68.4823C59.0001 68.022 65.09 65.0103 69.4708 60.1096C73.8515 55.2088 76.1642 48.8205 75.9001 42.3501C75.636 35.8797 72.8167 29.8572 68.0625 25.6074Z" fill="#EF6239"/>
<path d="M43.9732 52.554C41.7941 50.6062 40.5019 47.8458 40.3809 44.8802C40.2598 41.9146 41.3198 38.9866 43.3277 36.7404C45.3355 34.4943 48.1268 33.1139 51.0873 32.9029C54.0479 32.692 56.9353 33.6677 59.1143 35.6155C60.1933 36.58 61.0658 37.754 61.6822 39.0707C62.2986 40.3873 62.6467 41.8208 62.7066 43.2892C62.7666 44.7576 62.5372 46.2322 62.0316 47.6289C61.526 49.0255 60.7541 50.3168 59.7599 51.429C58.7657 52.5412 57.5687 53.4526 56.2373 54.111C54.9059 54.7695 53.4661 55.1621 52.0002 55.2666C50.5343 55.3711 49.0709 55.1853 47.6936 54.7199C46.3163 54.2545 45.0521 53.5185 43.9732 52.554Z" fill="#F9F8FC"/>
</g>
</svg>
