<svg width="778" height="1183" viewBox="0 0 778 1183" fill="none" xmlns="http://www.w3.org/2000/svg">
<path d="M591.5 1183C571.302 1183 551.117 1181.98 531.022 1179.95C511.308 1177.94 491.707 1174.95 472.292 1170.98C453.235 1167.08 434.163 1162.18 415.606 1156.41C397.254 1150.7 378.97 1144.01 361.261 1136.52C343.716 1129.1 326.319 1120.72 309.556 1111.61C292.913 1102.57 276.504 1092.6 260.787 1081.98C245.146 1071.42 229.825 1059.96 215.251 1047.93C200.712 1035.93 186.579 1023.09 173.251 1009.76C159.923 996.422 147.072 982.287 135.075 967.755C123.048 953.182 111.592 937.862 101.024 922.22C90.4001 906.5 80.4321 890.087 71.3911 873.444C62.2851 856.682 53.9051 839.286 46.4831 821.739C38.9921 804.029 32.3001 785.745 26.5931 767.395C20.8211 748.837 15.9171 729.765 12.0181 710.709C8.05101 691.295 5.05959 671.693 3.05507 651.979C-1.01673 611.764 -1.01673 571.24 3.05507 531.024C5.05958 511.31 8.051 491.709 12.0181 472.294C15.9181 453.237 20.8181 434.165 26.5931 415.608C32.3011 397.257 38.9931 378.973 46.4831 361.263C53.9051 343.716 62.2831 326.32 71.3911 309.558C80.4321 292.914 90.4011 276.506 101.019 260.789C111.587 245.147 123.043 229.827 135.07 215.253C147.07 200.715 159.912 186.583 173.246 173.253C186.58 159.923 200.713 147.074 215.246 135.077C229.819 123.05 245.139 111.594 260.782 101.026C276.5 90.4003 292.912 80.4323 309.556 71.3913C326.319 62.2853 343.715 53.9053 361.261 46.4833C378.97 38.9923 397.255 32.3003 415.606 26.5933C434.163 20.8213 453.235 15.9173 472.292 12.0183C491.707 8.05124 511.308 5.05982 531.022 3.05531C571.238 -1.01648 611.762 -1.01648 651.977 3.05531C671.691 5.05984 691.292 8.05126 710.707 12.0183C729.764 15.9183 748.836 20.8183 767.393 26.5933C785.744 32.3013 804.028 38.9933 821.737 46.4833C839.284 53.9053 856.681 62.2833 873.442 71.3913C890.086 80.4323 906.494 90.4003 922.211 101.019C937.853 111.587 953.174 123.043 967.746 135.07C982.283 147.07 996.416 159.911 1009.75 173.246C1023.08 186.581 1035.92 200.712 1047.92 215.246C1059.95 229.82 1071.41 245.14 1081.97 260.782C1092.59 276.5 1102.56 292.908 1111.6 309.551C1120.71 326.315 1129.09 343.711 1136.51 361.256C1144 378.964 1150.69 397.248 1156.4 415.601C1162.17 434.158 1167.08 453.23 1170.97 472.287C1174.94 491.702 1177.93 511.303 1179.94 531.017C1184.01 571.233 1184.01 611.757 1179.94 651.972C1177.93 671.686 1174.94 691.288 1170.97 710.702C1167.07 729.759 1162.17 748.831 1156.4 767.388C1150.69 785.74 1144 804.024 1136.51 821.732C1129.09 839.278 1120.71 856.674 1111.6 873.437C1102.56 890.08 1092.59 906.489 1081.97 922.206C1071.41 937.847 1059.95 953.168 1047.92 967.741C1035.92 982.279 1023.08 996.412 1009.75 1009.74C996.412 1023.07 982.28 1035.92 967.746 1047.92C953.172 1059.95 937.852 1071.4 922.211 1081.97C906.493 1092.59 890.085 1102.56 873.442 1111.6C856.679 1120.7 839.283 1129.08 821.737 1136.5C804.029 1143.99 785.744 1150.69 767.393 1156.39C748.835 1162.17 729.763 1167.07 710.707 1170.97C691.292 1174.94 671.691 1177.93 651.977 1179.93C631.882 1181.97 611.698 1182.99 591.5 1183ZM591.5 168.458C358.234 168.458 168.458 358.234 168.458 591.5C168.458 824.766 358.234 1014.54 591.5 1014.54C824.766 1014.54 1014.54 824.767 1014.54 591.5C1014.54 358.233 824.767 168.458 591.5 168.458Z" fill="url(#paint0_linear_2_6)"/>
<defs>
<linearGradient id="paint0_linear_2_6" x1="171.535" y1="254.346" x2="784.328" y2="811.534" gradientUnits="userSpaceOnUse">
<stop stop-color="#F0967D"/>
<stop offset="1" stop-color="#EF6239"/>
</linearGradient>
</defs>
</svg>
