<svg width="14" height="14" viewBox="0 0 14 14" fill="none" xmlns="http://www.w3.org/2000/svg">
<path d="M1 5.78516H2.19998C2.33961 5.78516 2.44998 5.89456 2.44998 6.03516V12.5002C2.44998 12.6365 2.33634 12.7502 2.19998 12.7502H1C0.863642 12.7502 0.75 12.6365 0.75 12.5002V6.03516C0.75 5.8988 0.863642 5.78516 1 5.78516Z" fill="#17BD8D" stroke="#17BD8D"/>
<path d="M7.59988 2.89258H6.3999C5.9874 2.89258 5.6499 3.23008 5.6499 3.64258V12.5001C5.6499 12.9126 5.9874 13.2501 6.3999 13.2501H7.59988C8.01238 13.2501 8.34988 12.9126 8.34988 12.5001V3.64258C8.34988 3.23008 8.01238 2.89258 7.59988 2.89258Z" fill="#17BD8D"/>
<path d="M12.9998 0.5H11.7998C11.3873 0.5 11.0498 0.8375 11.0498 1.25V12.5C11.0498 12.9125 11.3873 13.25 11.7998 13.25H12.9998C13.4123 13.25 13.7498 12.9125 13.7498 12.5V1.25C13.7498 0.8375 13.4123 0.5 12.9998 0.5Z" fill="#17BD8D"/>
</svg>
