<svg width="18" height="18" viewBox="0 0 18 18" fill="none" xmlns="http://www.w3.org/2000/svg">
<path d="M15.75 16.5625H2.25C2.23694 16.5625 2.22128 16.5573 2.20699 16.543C2.1927 16.5287 2.1875 16.5131 2.1875 16.5C2.1875 16.4869 2.1927 16.4713 2.20699 16.457C2.22128 16.4427 2.23694 16.4375 2.25 16.4375H15.75C15.7631 16.4375 15.7787 16.4427 15.793 16.457C15.8073 16.4713 15.8125 16.4869 15.8125 16.5C15.8125 16.5131 15.8073 16.5287 15.793 16.543C15.7787 16.5573 15.7631 16.5625 15.75 16.5625Z" stroke="#EF6239"/>
<path d="M4.19998 6.28516H3C2.5875 6.28516 2.25 6.62266 2.25 7.03516V13.5002C2.25 13.9127 2.5875 14.2502 3 14.2502H4.19998C4.61248 14.2502 4.94998 13.9127 4.94998 13.5002V7.03516C4.94998 6.61516 4.61248 6.28516 4.19998 6.28516Z" fill="#EF6239"/>
<path d="M9.59988 3.89258H8.3999C7.9874 3.89258 7.6499 4.23008 7.6499 4.64258V13.5001C7.6499 13.9126 7.9874 14.2501 8.3999 14.2501H9.59988C10.0124 14.2501 10.3499 13.9126 10.3499 13.5001V4.64258C10.3499 4.23008 10.0124 3.89258 9.59988 3.89258Z" fill="#EF6239"/>
<path d="M14.9998 1.5H13.7998C13.3873 1.5 13.0498 1.8375 13.0498 2.25V13.5C13.0498 13.9125 13.3873 14.25 13.7998 14.25H14.9998C15.4123 14.25 15.7498 13.9125 15.7498 13.5V2.25C15.7498 1.8375 15.4123 1.5 14.9998 1.5Z" fill="#EF6239"/>
</svg>
