<svg width="28" height="28" viewBox="0 0 28 28" fill="none" xmlns="http://www.w3.org/2000/svg">
<path d="M24.767 13.5112C24.767 15.7378 24.1067 17.9144 22.8697 19.7658C21.6326 21.6172 19.8744 23.0601 17.8172 23.9122C15.7601 24.7643 13.4965 24.9872 11.3127 24.5529C9.12882 24.1185 7.12283 23.0462 5.54837 21.4718C3.97391 19.8973 2.90169 17.8913 2.4673 15.7075C2.03291 13.5237 2.25585 11.2601 3.10795 9.20292C3.96004 7.14579 5.403 5.38753 7.25437 4.15049C9.10574 2.91344 11.2824 2.25317 13.509 2.25317C16.4948 2.25317 19.3583 3.43928 21.4696 5.55057C23.5809 7.66185 24.767 10.5254 24.767 13.5112Z" fill="#14B47D"/>
<path d="M11.911 17.5412C11.7996 17.5415 11.6892 17.5197 11.5862 17.4772C11.4832 17.4346 11.3897 17.3721 11.311 17.2932L8.128 14.1082C8.04796 14.0302 7.9842 13.9371 7.94042 13.8343C7.89664 13.7315 7.8737 13.621 7.87294 13.5093C7.87219 13.3976 7.89363 13.2868 7.93602 13.1834C7.9784 13.08 8.0409 12.9861 8.11988 12.907C8.19885 12.828 8.29274 12.7654 8.39609 12.723C8.49944 12.6805 8.61019 12.6589 8.72193 12.6596C8.83366 12.6603 8.94415 12.6831 9.04699 12.7268C9.14983 12.7705 9.24297 12.8342 9.321 12.9142L11.911 15.5042L17.697 9.71716C17.8568 9.56713 18.0688 9.48517 18.288 9.48863C18.5072 9.4921 18.7164 9.58071 18.8714 9.73573C19.0265 9.89074 19.1151 10.1 19.1185 10.3192C19.122 10.5384 19.04 10.7503 18.89 10.9102L12.507 17.2942C12.3489 17.4522 12.1345 17.541 11.911 17.5412Z" fill="white"/>
</svg>