<svg width="17" height="17" viewBox="0 0 17 17" fill="none" xmlns="http://www.w3.org/2000/svg">
<path d="M10.292 6.70786L6.70786 10.292C6.24744 9.83161 5.96411 9.20119 5.96411 8.49994C5.96411 7.09744 7.09744 5.96411 8.49994 5.96411C9.20119 5.96411 9.83161 6.24744 10.292 6.70786Z" stroke="#9DA2B3" stroke-width="1.5" stroke-linecap="round" stroke-linejoin="round"/>
<path d="M12.6225 4.08709C11.3829 3.15209 9.96626 2.64209 8.50001 2.64209C5.99959 2.64209 3.66918 4.11542 2.04709 6.66542C1.40959 7.66417 1.40959 9.34292 2.04709 10.3417C2.60668 11.22 3.25834 11.9779 3.96668 12.5871" stroke="#9DA2B3" stroke-width="1.5" stroke-linecap="round" stroke-linejoin="round"/>
<path d="M5.96411 13.8337C6.77161 14.1737 7.62869 14.3579 8.49994 14.3579C11.0004 14.3579 13.3308 12.8846 14.9529 10.3346C15.5904 9.33582 15.5904 7.65707 14.9529 6.65832C14.7191 6.28998 14.4641 5.9429 14.202 5.61707" stroke="#9DA2B3" stroke-width="1.5" stroke-linecap="round" stroke-linejoin="round"/>
<path d="M10.9863 8.99585C10.8021 9.9946 9.98752 10.8092 8.98877 10.9934" stroke="#9DA2B3" stroke-width="1.5" stroke-linecap="round" stroke-linejoin="round"/>
<path d="M6.70788 10.2921L1.41663 15.5834" stroke="#9DA2B3" stroke-width="1.5" stroke-linecap="round" stroke-linejoin="round"/>
<path d="M15.5834 1.41663L10.2921 6.70788" stroke="#9DA2B3" stroke-width="1.5" stroke-linecap="round" stroke-linejoin="round"/>
</svg>
