<svg width="24" height="22" viewBox="0 0 24 22" fill="none" xmlns="http://www.w3.org/2000/svg">
<path d="M23.0022 20.5839H23.2292L22.7942 19.9259C23.0602 19.9259 23.2012 19.7569 23.2032 19.5499C23.2032 19.5419 23.2032 19.5329 23.2022 19.5249C23.2022 19.2429 23.0322 19.1079 22.6832 19.1079H22.1191V20.5839H22.3311V19.9409H22.5921L23.0022 20.5839ZM22.5771 19.7739H22.3311V19.2749H22.6432C22.8042 19.2749 22.9882 19.3009 22.9882 19.5119C22.9882 19.7539 22.8022 19.7739 22.5762 19.7739" fill="#9DA2B3"/>
<path d="M17.291 18.0729H14.284V13.3639C14.284 12.2409 14.264 10.7959 12.72 10.7959C11.154 10.7959 10.914 12.0189 10.914 13.2829V18.0729H7.908V8.38887H10.795V9.71187H10.835C11.424 8.70587 12.518 8.10487 13.683 8.14787C16.731 8.14787 17.292 10.1529 17.292 12.7599L17.291 18.0729ZM4.515 7.06487C3.551 7.06487 2.77 6.28387 2.77 5.31987C2.77 4.35587 3.551 3.57487 4.515 3.57487C5.479 3.57487 6.26 4.35587 6.26 5.31987C6.26 6.28387 5.479 7.06487 4.515 7.06487ZM6.018 18.0729H3.008V8.38887H6.018V18.0729ZM18.79 0.782875H1.497C0.68 0.773875 0.01 1.42887 0 2.24587V19.6099C0.01 20.4279 0.68 21.0829 1.497 21.0739H18.79C19.609 21.0839 20.282 20.4289 20.293 19.6099V2.24487C20.281 1.42587 19.608 0.770875 18.79 0.781875" fill="#9DA2B3"/>
<path d="M22.6025 18.4507C21.8385 18.4577 21.2245 19.0837 21.2325 19.8477C21.2395 20.6117 21.8655 21.2257 22.6295 21.2177C23.3935 21.2107 24.0075 20.5847 23.9995 19.8207C23.9925 19.0667 23.3825 18.4577 22.6295 18.4507H22.6025ZM22.6345 21.0587C21.9645 21.0697 21.3805 20.5367 21.3695 19.8667C21.3585 19.1967 21.8925 18.6447 22.5625 18.6337C23.2325 18.6227 23.7845 19.1567 23.7955 19.8267C23.7955 19.8337 23.7955 19.8397 23.7955 19.8467C23.8095 20.5017 23.2895 21.0447 22.6345 21.0587H22.6035H22.6345Z" fill="#9DA2B3"/>
</svg>
