<svg width="17" height="17" viewBox="0 0 17 17" fill="none" xmlns="http://www.w3.org/2000/svg">
<path d="M4.25 7.08329V5.66663C4.25 3.32204 4.95833 1.41663 8.5 1.41663C12.0417 1.41663 12.75 3.32204 12.75 5.66663V7.08329" stroke="#9DA2B3" stroke-width="1.5" stroke-linecap="round" stroke-linejoin="round"/>
<path d="M8.50002 13.1042C9.47802 13.1042 10.2709 12.3113 10.2709 11.3333C10.2709 10.3553 9.47802 9.5625 8.50002 9.5625C7.52202 9.5625 6.72919 10.3553 6.72919 11.3333C6.72919 12.3113 7.52202 13.1042 8.50002 13.1042Z" stroke="#9DA2B3" stroke-width="1.5" stroke-linecap="round" stroke-linejoin="round"/>
<path d="M12.0417 15.5834H4.95835C2.12502 15.5834 1.41669 14.875 1.41669 12.0417V10.625C1.41669 7.79171 2.12502 7.08337 4.95835 7.08337H12.0417C14.875 7.08337 15.5834 7.79171 15.5834 10.625V12.0417C15.5834 14.875 14.875 15.5834 12.0417 15.5834Z" stroke="#9DA2B3" stroke-width="1.5" stroke-linecap="round" stroke-linejoin="round"/>
</svg>
