<svg width="24" height="25" viewBox="0 0 24 25" fill="none" xmlns="http://www.w3.org/2000/svg">
<path d="M14 5.76352C14 4.66508 13.1 3.76636 12 3.76636C10.9 3.76636 10 4.66508 10 5.76352C10 6.86195 10.9 7.76068 12 7.76068C13.1 7.76068 14 6.86195 14 5.76352Z" fill="#565B6B"/>
<path d="M14 19.7435C14 18.6451 13.1 17.7463 12 17.7463C10.9 17.7463 10 18.6451 10 19.7435C10 20.8419 10.9 21.7407 12 21.7407C13.1 21.7407 14 20.8419 14 19.7435Z" fill="#565B6B"/>
<path d="M14 12.7535C14 11.6551 13.1 10.7563 12 10.7563C10.9 10.7563 10 11.6551 10 12.7535C10 13.8519 10.9 14.7507 12 14.7507C13.1 14.7507 14 13.8519 14 12.7535Z" fill="#565B6B"/>
</svg>
