<svg width="17" height="18" viewBox="0 0 17 18" fill="none" xmlns="http://www.w3.org/2000/svg">
<path d="M15.5621 13.4838C15.5621 13.7388 15.5054 14.0009 15.385 14.2559C15.2646 14.5109 15.1087 14.7517 14.9033 14.9784C14.5562 15.3609 14.1737 15.6371 13.7417 15.8142C13.3167 15.9913 12.8562 16.0834 12.3604 16.0834C11.6379 16.0834 10.8658 15.9134 10.0512 15.5663C9.23666 15.2192 8.42207 14.7517 7.61457 14.1638C6.79999 13.5688 6.02791 12.91 5.29124 12.1804C4.56166 11.4438 3.90291 10.6717 3.31499 9.86419C2.73416 9.05669 2.26666 8.24919 1.92666 7.44877C1.58666 6.64127 1.41666 5.86919 1.41666 5.13252C1.41666 4.65085 1.50166 4.19044 1.67166 3.76544C1.84166 3.33335 2.11082 2.93669 2.48624 2.58252C2.93957 2.13627 3.43541 1.91669 3.95957 1.91669C4.15791 1.91669 4.35624 1.95919 4.53332 2.04419C4.71749 2.12919 4.88041 2.25669 5.00791 2.44085L6.65124 4.7571C6.77874 4.93419 6.87082 5.0971 6.93457 5.25294C6.99832 5.40169 7.03374 5.55044 7.03374 5.68502C7.03374 5.85502 6.98416 6.02502 6.88499 6.18794C6.79291 6.35085 6.65832 6.52085 6.48832 6.69085L5.94999 7.25044C5.87207 7.32835 5.83666 7.42044 5.83666 7.53377C5.83666 7.59044 5.84374 7.64002 5.85791 7.69669C5.87916 7.75335 5.90041 7.79585 5.91457 7.83835C6.04207 8.0721 6.26166 8.37669 6.57332 8.74502C6.89207 9.11335 7.23207 9.48877 7.60041 9.86419C7.98291 10.2396 8.35124 10.5867 8.72666 10.9054C9.09499 11.2171 9.39957 11.4296 9.64041 11.5571C9.67582 11.5713 9.71832 11.5925 9.76791 11.6138C9.82457 11.635 9.88124 11.6421 9.94499 11.6421C10.0654 11.6421 10.1575 11.5996 10.2354 11.5217L10.7737 10.9904C10.9508 10.8134 11.1208 10.6788 11.2837 10.5938C11.4467 10.4946 11.6096 10.445 11.7867 10.445C11.9212 10.445 12.0629 10.4734 12.2187 10.5371C12.3746 10.6009 12.5375 10.6929 12.7146 10.8134L15.0592 12.4779C15.2433 12.6054 15.3708 12.7542 15.4487 12.9313C15.5196 13.1084 15.5621 13.2854 15.5621 13.4838Z" stroke="#9DA2B3" stroke-width="1.5" stroke-miterlimit="10"/>
<path d="M13.1042 6.87504C13.1042 6.45004 12.7712 5.79837 12.2754 5.26712C11.8221 4.77837 11.22 4.39587 10.625 4.39587" stroke="#9DA2B3" stroke-width="1.5" stroke-linecap="round" stroke-linejoin="round"/>
<path d="M15.5833 6.87502C15.5833 4.13377 13.3663 1.91669 10.625 1.91669" stroke="#9DA2B3" stroke-width="1.5" stroke-linecap="round" stroke-linejoin="round"/>
</svg>
