<svg width="24" height="18" viewBox="0 0 24 18" fill="none" xmlns="http://www.w3.org/2000/svg">
<path d="M22.2026 1.13794H1.79742C0.804703 1.13794 0 1.94264 0 2.93536V15.0647C0 16.0574 0.804703 16.8621 1.79742 16.8621H22.2026C23.1952 16.8621 24 16.0574 24 15.0647V2.93536C24 1.94264 23.1953 1.13794 22.2026 1.13794Z" fill="#F5F5F5"/>
<path d="M0.0996094 2.3475H23.9018C23.6583 1.64358 22.99 1.13794 22.2033 1.13794H1.79817C1.01142 1.13794 0.343219 1.64358 0.0996094 2.3475Z" fill="#FF4B55"/>
<path d="M24 5.97607H0V7.18559H24V5.97607Z" fill="#FF4B55"/>
<path d="M24 3.55688H0V4.7664H24V3.55688Z" fill="#FF4B55"/>
<path d="M0 9.19101C0 9.41953 0.185297 9.60483 0.413813 9.60483H24V8.39526H0V9.19101Z" fill="#FF4B55"/>
<path d="M24 13.2338H0V14.4433H24V13.2338Z" fill="#FF4B55"/>
<path d="M23.9019 15.6526H0.0996094C0.343219 16.3565 1.01147 16.8622 1.79817 16.8622H22.2033C22.9901 16.8622 23.6583 16.3565 23.9019 15.6526Z" fill="#FF4B55"/>
<path d="M24 10.8146H0V12.0241H24V10.8146Z" fill="#FF4B55"/>
<path d="M0.413813 9.60484H10.7587C10.9872 9.60484 11.1725 9.41954 11.1725 9.19102V1.55175C11.1725 1.32319 10.9872 1.13794 10.7587 1.13794H1.79742C0.804703 1.13799 0 1.94269 0 2.93541V9.19102C0 9.41959 0.185297 9.60484 0.413813 9.60484Z" fill="#41479B"/>
<path d="M1.16186 2.08771L1.25345 2.3624L1.543 2.3646C1.5805 2.36493 1.59602 2.41274 1.56588 2.43501L1.33295 2.60699L1.42033 2.88304C1.43167 2.91876 1.39094 2.94838 1.36042 2.92654L1.12488 2.75821L0.889329 2.92659C0.858814 2.94843 0.818173 2.91881 0.829423 2.88309L0.916798 2.60704L0.683876 2.43506C0.653736 2.41274 0.669251 2.36493 0.706751 2.36465L0.996298 2.36245L1.08789 2.08776C1.0997 2.05213 1.14995 2.05213 1.16186 2.08771Z" fill="#F5F5F5"/>
<path d="M1.16186 3.52457L1.25345 3.79926L1.543 3.80146C1.5805 3.80179 1.59602 3.84956 1.56588 3.87187L1.33295 4.0439L1.42033 4.31995C1.43167 4.35567 1.39094 4.3853 1.36042 4.36345L1.12488 4.19512L0.889329 4.3635C0.858814 4.3853 0.818173 4.35572 0.829423 4.32L0.916798 4.04395L0.683876 3.87192C0.653736 3.8496 0.669251 3.80184 0.706751 3.80151L0.996298 3.79931L1.08789 3.52461C1.0997 3.48904 1.14995 3.48904 1.16186 3.52457Z" fill="#F5F5F5"/>
<path d="M1.16186 4.96161L1.25345 5.2363L1.543 5.23851C1.5805 5.23883 1.59602 5.2866 1.56588 5.30891L1.33295 5.48094L1.42033 5.75699C1.43167 5.79271 1.39094 5.82233 1.36042 5.80049L1.12488 5.63216L0.889329 5.80054C0.858814 5.82233 0.818173 5.7928 0.829423 5.75704L0.916798 5.48099L0.683876 5.30896C0.653736 5.28665 0.669251 5.23888 0.706751 5.23855L0.996298 5.23635L1.08789 4.96166C1.0997 4.92604 1.14995 4.92604 1.16186 4.96161Z" fill="#F5F5F5"/>
<path d="M1.16186 6.3985L1.25345 6.67319L1.543 6.67539C1.5805 6.67572 1.59602 6.72353 1.56588 6.7458L1.33295 6.91783L1.42033 7.19387C1.43167 7.22959 1.39094 7.25921 1.36042 7.23737L1.12488 7.06904L0.889329 7.23742C0.858814 7.25921 0.818173 7.22964 0.829423 7.19392L0.916798 6.91787L0.683876 6.74584C0.653736 6.72363 0.669251 6.67577 0.706751 6.67544L0.996298 6.67323L1.08789 6.39855C1.0997 6.36293 1.14995 6.36293 1.16186 6.3985Z" fill="#F5F5F5"/>
<path d="M1.16186 7.83536L1.25345 8.11005L1.543 8.11225C1.5805 8.11258 1.59602 8.16034 1.56588 8.18265L1.33295 8.35469L1.42033 8.63073C1.43167 8.66645 1.39094 8.69608 1.36042 8.67423L1.12488 8.5059L0.889329 8.67428C0.858814 8.69607 0.818173 8.6665 0.829423 8.63078L0.916798 8.35473L0.683876 8.1827C0.653736 8.16039 0.669251 8.11262 0.706751 8.11229L0.996298 8.11009L1.08789 7.83541C1.0997 7.79983 1.14995 7.79983 1.16186 7.83536Z" fill="#F5F5F5"/>
<path d="M2.27715 2.79215L2.36875 3.06684L2.65829 3.06904C2.69579 3.06937 2.71131 3.11718 2.68117 3.13945L2.44825 3.31148L2.53562 3.58752C2.54697 3.62324 2.50623 3.65287 2.47572 3.63102L2.24017 3.46265L2.00462 3.63102C1.97411 3.65282 1.93347 3.62324 1.94472 3.58752L2.03209 3.31148L1.79917 3.13945C1.76903 3.11713 1.78455 3.06937 1.82205 3.06904L2.11159 3.06684L2.20319 2.79215C2.215 2.75662 2.2653 2.75662 2.27715 2.79215Z" fill="#F5F5F5"/>
<path d="M2.27715 4.2292L2.36875 4.50389L2.65829 4.50609C2.69579 4.50642 2.71131 4.55423 2.68117 4.5765L2.44825 4.74853L2.53562 5.02457C2.54697 5.06029 2.50623 5.08992 2.47572 5.06807L2.24017 4.8997L2.00462 5.06807C1.97411 5.08987 1.93347 5.06034 1.94472 5.02457L2.03209 4.74853L1.79917 4.5765C1.76903 4.55428 1.78455 4.50642 1.82205 4.50609L2.11159 4.50389L2.20319 4.2292C2.215 4.19362 2.2653 4.19362 2.27715 4.2292Z" fill="#F5F5F5"/>
<path d="M2.27715 5.66609L2.36875 5.94078L2.65829 5.94298C2.69579 5.94331 2.71131 5.99107 2.68117 6.01339L2.44825 6.18542L2.53562 6.46147C2.54697 6.49719 2.50623 6.52681 2.47572 6.50497L2.24017 6.33659L2.00462 6.50497C1.97411 6.52676 1.93347 6.49719 1.94472 6.46147L2.03209 6.18542L1.79917 6.01339C1.76903 5.99107 1.78455 5.94331 1.82205 5.94298L2.11159 5.94078L2.20319 5.66609C2.215 5.63051 2.2653 5.63051 2.27715 5.66609Z" fill="#F5F5F5"/>
<path d="M2.27715 7.10294L2.36875 7.37763L2.65829 7.37983C2.69579 7.38016 2.71131 7.42793 2.68117 7.45024L2.44825 7.62227L2.53562 7.89832C2.54697 7.93403 2.50623 7.96366 2.47572 7.94182L2.24017 7.77344L2.00462 7.94182C1.97411 7.96366 1.93347 7.93403 1.94472 7.89832L2.03209 7.62227L1.79917 7.45024C1.76903 7.42793 1.78455 7.38016 1.82205 7.37983L2.11159 7.37763L2.20319 7.10294C2.215 7.06741 2.2653 7.06741 2.27715 7.10294Z" fill="#F5F5F5"/>
<path d="M3.39233 2.08772L3.48392 2.36241L3.77347 2.36461C3.81097 2.36494 3.82648 2.41275 3.79634 2.43502L3.56342 2.607L3.6508 2.88305C3.66214 2.91877 3.62141 2.94839 3.59089 2.92655L3.35534 2.75817L3.1198 2.92655C3.08928 2.94839 3.04864 2.91877 3.05989 2.88305L3.14727 2.607L2.91434 2.43502C2.8842 2.4127 2.89972 2.36489 2.93722 2.36461L3.22677 2.36241L3.31836 2.08772C3.33017 2.05214 3.38047 2.05214 3.39233 2.08772Z" fill="#F5F5F5"/>
<path d="M3.39233 3.5247L3.48392 3.79938L3.77347 3.80159C3.81097 3.80191 3.82648 3.84968 3.79634 3.87199L3.56342 4.04402L3.6508 4.32007C3.66214 4.35579 3.62141 4.38541 3.59089 4.36357L3.35534 4.19519L3.1198 4.36357C3.08928 4.38537 3.04864 4.35579 3.05989 4.32007L3.14727 4.04402L2.91434 3.87199C2.8842 3.84968 2.89972 3.80191 2.93722 3.80159L3.22677 3.79938L3.31836 3.5247C3.33017 3.48916 3.38047 3.48916 3.39233 3.5247Z" fill="#F5F5F5"/>
<path d="M3.39233 4.9615L3.48392 5.23619L3.77347 5.23839C3.81097 5.23872 3.82648 5.28648 3.79634 5.3088L3.56342 5.48083L3.6508 5.75687C3.66214 5.79259 3.62141 5.82222 3.59089 5.80037L3.35534 5.632L3.1198 5.80037C3.08928 5.82217 3.04864 5.79264 3.05989 5.75687L3.14727 5.48083L2.91434 5.3088C2.8842 5.28648 2.89972 5.23872 2.93722 5.23839L3.22677 5.23619L3.31836 4.9615C3.33017 4.92592 3.38047 4.92592 3.39233 4.9615Z" fill="#F5F5F5"/>
<path d="M3.39233 6.39851L3.48392 6.6732L3.77347 6.6754C3.81097 6.67573 3.82648 6.72354 3.79634 6.74581L3.56342 6.91784L3.6508 7.19389C3.66214 7.22961 3.62141 7.25923 3.59089 7.23739L3.35534 7.06901L3.1198 7.23739C3.08928 7.25919 3.04864 7.22961 3.05989 7.19389L3.14727 6.91784L2.91434 6.74581C2.8842 6.72359 2.89972 6.67573 2.93722 6.6754L3.22677 6.6732L3.31836 6.39851C3.33017 6.36293 3.38047 6.36293 3.39233 6.39851Z" fill="#F5F5F5"/>
<path d="M3.39233 7.83536L3.48392 8.11005L3.77347 8.11225C3.81097 8.11258 3.82648 8.16035 3.79634 8.18266L3.56342 8.35469L3.6508 8.63074C3.66214 8.66646 3.62141 8.69608 3.59089 8.67424L3.35534 8.50586L3.1198 8.67424C3.08928 8.69603 3.04864 8.66646 3.05989 8.63074L3.14727 8.35469L2.91434 8.18266C2.8842 8.16035 2.89972 8.11258 2.93722 8.11225L3.22677 8.11005L3.31836 7.83536C3.33017 7.79983 3.38047 7.79983 3.39233 7.83536Z" fill="#F5F5F5"/>
<path d="M4.50756 2.79227L4.59916 3.06696L4.8887 3.06916C4.9262 3.06949 4.94172 3.1173 4.91158 3.13957L4.67866 3.3116L4.76603 3.58765C4.77738 3.62336 4.73664 3.65299 4.70613 3.63115L4.47058 3.46277L4.23503 3.63115C4.20452 3.65294 4.16388 3.62336 4.17513 3.58765L4.2625 3.3116L4.02958 3.13957C3.99944 3.11726 4.01495 3.06949 4.05245 3.06916L4.342 3.06696L4.4336 2.79227C4.44536 2.75674 4.4957 2.75674 4.50756 2.79227Z" fill="#F5F5F5"/>
<path d="M4.50756 4.22908L4.59916 4.50376L4.8887 4.50597C4.9262 4.5063 4.94172 4.55411 4.91158 4.57637L4.67866 4.7484L4.76603 5.02445C4.77738 5.06017 4.73664 5.0898 4.70613 5.06795L4.47058 4.89958L4.23503 5.06795C4.20452 5.08975 4.16388 5.06022 4.17513 5.02445L4.2625 4.7484L4.02958 4.57637C3.99944 4.55415 4.01495 4.5063 4.05245 4.50597L4.342 4.50376L4.4336 4.22908C4.44536 4.1935 4.4957 4.1935 4.50756 4.22908Z" fill="#F5F5F5"/>
<path d="M4.50756 5.66609L4.59916 5.94078L4.8887 5.94298C4.9262 5.94331 4.94172 5.99107 4.91158 6.01339L4.67866 6.18542L4.76603 6.46147C4.77738 6.49719 4.73664 6.52681 4.70613 6.50497L4.47058 6.33659L4.23503 6.50497C4.20452 6.52676 4.16388 6.49719 4.17513 6.46147L4.2625 6.18542L4.02958 6.01339C3.99944 5.99107 4.01495 5.94331 4.05245 5.94298L4.342 5.94078L4.4336 5.66609C4.44536 5.63051 4.4957 5.63051 4.50756 5.66609Z" fill="#F5F5F5"/>
<path d="M4.50756 7.10294L4.59916 7.37763L4.8887 7.37983C4.9262 7.38016 4.94172 7.42793 4.91158 7.45024L4.67866 7.62227L4.76603 7.89832C4.77738 7.93403 4.73664 7.96366 4.70613 7.94182L4.47058 7.77344L4.23503 7.94182C4.20452 7.96366 4.16388 7.93403 4.17513 7.89832L4.2625 7.62227L4.02958 7.45024C3.99944 7.42793 4.01495 7.38016 4.05245 7.37983L4.342 7.37763L4.4336 7.10294C4.44536 7.06741 4.4957 7.06741 4.50756 7.10294Z" fill="#F5F5F5"/>
<path d="M5.62284 2.08771L5.71443 2.3624L6.00398 2.3646C6.04148 2.36493 6.05699 2.41274 6.02685 2.43501L5.79393 2.60699L5.88131 2.88304C5.89265 2.91876 5.85192 2.94838 5.8214 2.92654L5.58581 2.75821L5.35027 2.92659C5.31975 2.94843 5.27911 2.91881 5.29036 2.88309L5.37773 2.60704L5.14481 2.43506C5.11467 2.41274 5.13019 2.36493 5.16769 2.36465L5.45723 2.36245L5.54883 2.08776C5.56069 2.05213 5.61098 2.05213 5.62284 2.08771Z" fill="#F5F5F5"/>
<path d="M5.62284 3.5247L5.71443 3.79938L6.00398 3.80159C6.04148 3.80191 6.05699 3.84968 6.02685 3.87199L5.79393 4.04402L5.88131 4.32007C5.89265 4.35579 5.85192 4.38541 5.8214 4.36357L5.58581 4.19519L5.35027 4.36357C5.31975 4.38537 5.27911 4.35579 5.29036 4.32007L5.37773 4.04402L5.14481 3.87199C5.11467 3.84968 5.13019 3.80191 5.16769 3.80159L5.45723 3.79938L5.54883 3.5247C5.56069 3.48916 5.61098 3.48916 5.62284 3.5247Z" fill="#F5F5F5"/>
<path d="M5.62284 4.9615L5.71443 5.23619L6.00398 5.23839C6.04148 5.23872 6.05699 5.28649 6.02685 5.3088L5.79393 5.48083L5.88131 5.75688C5.89265 5.7926 5.85192 5.82222 5.8214 5.80038L5.58581 5.63196L5.35027 5.80033C5.31975 5.82213 5.27911 5.79255 5.29036 5.75683L5.37773 5.48079L5.14481 5.30875C5.11467 5.28644 5.13019 5.23868 5.16769 5.23835L5.45723 5.23614L5.54883 4.96146C5.56069 4.92593 5.61098 4.92593 5.62284 4.9615Z" fill="#F5F5F5"/>
<path d="M5.62284 6.39851L5.71443 6.6732L6.00398 6.6754C6.04148 6.67573 6.05699 6.72354 6.02685 6.74581L5.79393 6.91784L5.88131 7.19389C5.89265 7.22961 5.85192 7.25923 5.8214 7.23739L5.58581 7.06901L5.35027 7.23739C5.31975 7.25919 5.27911 7.22961 5.29036 7.19389L5.37773 6.91784L5.14481 6.74581C5.11467 6.72359 5.13019 6.67573 5.16769 6.6754L5.45723 6.6732L5.54883 6.39851C5.56069 6.36293 5.61098 6.36293 5.62284 6.39851Z" fill="#F5F5F5"/>
<path d="M5.62284 7.83536L5.71443 8.11005L6.00398 8.11225C6.04148 8.11258 6.05699 8.16035 6.02685 8.18266L5.79393 8.35469L5.88131 8.63074C5.89265 8.66646 5.85192 8.69608 5.8214 8.67424L5.58581 8.50586L5.35027 8.67424C5.31975 8.69603 5.27911 8.66646 5.29036 8.63074L5.37773 8.35469L5.14481 8.18266C5.11467 8.16035 5.13019 8.11258 5.16769 8.11225L5.45723 8.11005L5.54883 7.83536C5.56069 7.79983 5.61098 7.79983 5.62284 7.83536Z" fill="#F5F5F5"/>
<path d="M6.73803 2.79227L6.82962 3.06696L7.11916 3.06916C7.15666 3.06949 7.17218 3.1173 7.14204 3.13957L6.90912 3.3116L6.99649 3.58765C7.00784 3.62336 6.9671 3.65299 6.93659 3.63115L6.70104 3.46277L6.4655 3.63115C6.43498 3.65294 6.39434 3.62336 6.40559 3.58765L6.49297 3.3116L6.26005 3.13957C6.22991 3.11726 6.24542 3.06949 6.28292 3.06916L6.57247 3.06696L6.66406 2.79227C6.67592 2.75674 6.72617 2.75674 6.73803 2.79227Z" fill="#F5F5F5"/>
<path d="M6.73803 4.22908L6.82962 4.50376L7.11916 4.50597C7.15666 4.5063 7.17218 4.55411 7.14204 4.57637L6.90912 4.7484L6.99649 5.02445C7.00784 5.06017 6.9671 5.0898 6.93659 5.06795L6.70104 4.89958L6.4655 5.06795C6.43498 5.08975 6.39434 5.06022 6.40559 5.02445L6.49297 4.7484L6.26005 4.57637C6.22991 4.55415 6.24542 4.5063 6.28292 4.50597L6.57247 4.50376L6.66406 4.22908C6.67592 4.1935 6.72617 4.1935 6.73803 4.22908Z" fill="#F5F5F5"/>
<path d="M6.73803 5.66609L6.82962 5.94078L7.11916 5.94298C7.15666 5.94331 7.17218 5.99107 7.14204 6.01339L6.90912 6.18542L6.99649 6.46147C7.00784 6.49719 6.9671 6.52681 6.93659 6.50497L6.70104 6.33659L6.4655 6.50497C6.43498 6.52676 6.39434 6.49719 6.40559 6.46147L6.49297 6.18542L6.26005 6.01339C6.22991 5.99107 6.24542 5.94331 6.28292 5.94298L6.57247 5.94078L6.66406 5.66609C6.67592 5.63051 6.72617 5.63051 6.73803 5.66609Z" fill="#F5F5F5"/>
<path d="M6.73803 7.10294L6.82962 7.37763L7.11916 7.37983C7.15666 7.38016 7.17218 7.42793 7.14204 7.45024L6.90912 7.62227L6.99649 7.89832C7.00784 7.93403 6.9671 7.96366 6.93659 7.94182L6.70104 7.77344L6.4655 7.94182C6.43498 7.96366 6.39434 7.93403 6.40559 7.89832L6.49297 7.62227L6.26005 7.45024C6.22991 7.42793 6.24542 7.38016 6.28292 7.37983L6.57247 7.37763L6.66406 7.10294C6.67592 7.06741 6.72617 7.06741 6.73803 7.10294Z" fill="#F5F5F5"/>
<path d="M7.85326 2.08772L7.94486 2.36241L8.2344 2.36461C8.2719 2.36494 8.28742 2.41275 8.25727 2.43502L8.02436 2.607L8.11173 2.88305C8.12307 2.91877 8.08234 2.94839 8.05182 2.92655L7.81628 2.75817L7.58073 2.92655C7.55022 2.94839 7.50958 2.91877 7.52083 2.88305L7.6082 2.607L7.37528 2.43502C7.34514 2.4127 7.36066 2.36489 7.39816 2.36461L7.6877 2.36241L7.77929 2.08772C7.79106 2.05214 7.8414 2.05214 7.85326 2.08772Z" fill="#F5F5F5"/>
<path d="M7.85326 3.5247L7.94486 3.79938L8.2344 3.80159C8.2719 3.80191 8.28742 3.84968 8.25727 3.87199L8.02436 4.04402L8.11173 4.32007C8.12307 4.35579 8.08234 4.38541 8.05182 4.36357L7.81628 4.19519L7.58073 4.36357C7.55022 4.38537 7.50958 4.35579 7.52083 4.32007L7.6082 4.04402L7.37528 3.87199C7.34514 3.84968 7.36066 3.80191 7.39816 3.80159L7.6877 3.79938L7.77929 3.5247C7.79106 3.48916 7.8414 3.48916 7.85326 3.5247Z" fill="#F5F5F5"/>
<path d="M7.85326 4.9615L7.94486 5.23619L8.2344 5.23839C8.2719 5.23872 8.28742 5.28648 8.25727 5.3088L8.02436 5.48083L8.11173 5.75687C8.12307 5.79259 8.08234 5.82222 8.05182 5.80037L7.81628 5.632L7.58073 5.80037C7.55022 5.82217 7.50958 5.79264 7.52083 5.75687L7.6082 5.48083L7.37528 5.3088C7.34514 5.28648 7.36066 5.23872 7.39816 5.23839L7.6877 5.23619L7.77929 4.9615C7.79106 4.92592 7.8414 4.92592 7.85326 4.9615Z" fill="#F5F5F5"/>
<path d="M7.85326 6.39851L7.94486 6.6732L8.2344 6.6754C8.2719 6.67573 8.28742 6.72354 8.25727 6.74581L8.02436 6.91784L8.11173 7.19389C8.12307 7.22961 8.08234 7.25923 8.05182 7.23739L7.81628 7.06901L7.58073 7.23739C7.55022 7.25919 7.50958 7.22961 7.52083 7.19389L7.6082 6.91784L7.37528 6.74581C7.34514 6.72359 7.36066 6.67573 7.39816 6.6754L7.6877 6.6732L7.77929 6.39851C7.79106 6.36293 7.8414 6.36293 7.85326 6.39851Z" fill="#F5F5F5"/>
<path d="M7.85326 7.83536L7.94486 8.11005L8.2344 8.11225C8.2719 8.11258 8.28742 8.16035 8.25727 8.18266L8.02436 8.35469L8.11173 8.63074C8.12307 8.66646 8.08234 8.69608 8.05182 8.67424L7.81628 8.50586L7.58073 8.67424C7.55022 8.69603 7.50958 8.66646 7.52083 8.63074L7.6082 8.35469L7.37528 8.18266C7.34514 8.16035 7.36066 8.11258 7.39816 8.11225L7.6877 8.11005L7.77929 7.83536C7.79106 7.79983 7.8414 7.79983 7.85326 7.83536Z" fill="#F5F5F5"/>
<path d="M8.9685 2.79227L9.06009 3.06696L9.34964 3.06916C9.38714 3.06949 9.40265 3.1173 9.37251 3.13957L9.13959 3.3116L9.22697 3.58765C9.23831 3.62336 9.19758 3.65299 9.16706 3.63115L8.93151 3.46277L8.69597 3.63115C8.66545 3.65294 8.62481 3.62336 8.63606 3.58765L8.72344 3.3116L8.49052 3.13957C8.46038 3.11726 8.47589 3.06949 8.51339 3.06916L8.80294 3.06696L8.89453 2.79227C8.90634 2.75674 8.95664 2.75674 8.9685 2.79227Z" fill="#F5F5F5"/>
<path d="M8.9685 4.22908L9.06009 4.50376L9.34964 4.50597C9.38714 4.5063 9.40265 4.55411 9.37251 4.57637L9.13959 4.7484L9.22697 5.02445C9.23831 5.06017 9.19758 5.0898 9.16706 5.06795L8.93151 4.89958L8.69597 5.06795C8.66545 5.08975 8.62481 5.06022 8.63606 5.02445L8.72344 4.7484L8.49052 4.57637C8.46038 4.55415 8.47589 4.5063 8.51339 4.50597L8.80294 4.50376L8.89453 4.22908C8.90634 4.1935 8.95664 4.1935 8.9685 4.22908Z" fill="#F5F5F5"/>
<path d="M8.9685 5.66609L9.06009 5.94078L9.34964 5.94298C9.38714 5.94331 9.40265 5.99107 9.37251 6.01339L9.13959 6.18542L9.22697 6.46147C9.23831 6.49719 9.19758 6.52681 9.16706 6.50497L8.93151 6.33659L8.69597 6.50497C8.66545 6.52676 8.62481 6.49719 8.63606 6.46147L8.72344 6.18542L8.49052 6.01339C8.46038 5.99107 8.47589 5.94331 8.51339 5.94298L8.80294 5.94078L8.89453 5.66609C8.90634 5.63051 8.95664 5.63051 8.9685 5.66609Z" fill="#F5F5F5"/>
<path d="M8.9685 7.10294L9.06009 7.37763L9.34964 7.37983C9.38714 7.38016 9.40265 7.42793 9.37251 7.45024L9.13959 7.62227L9.22697 7.89832C9.23831 7.93403 9.19758 7.96366 9.16706 7.94182L8.93151 7.77344L8.69597 7.94182C8.66545 7.96366 8.62481 7.93403 8.63606 7.89832L8.72344 7.62227L8.49052 7.45024C8.46038 7.42793 8.47589 7.38016 8.51339 7.37983L8.80294 7.37763L8.89453 7.10294C8.90634 7.06741 8.95664 7.06741 8.9685 7.10294Z" fill="#F5F5F5"/>
<path d="M10.0837 2.08772L10.1753 2.36241L10.4649 2.36461C10.5024 2.36494 10.5179 2.41275 10.4878 2.43502L10.2548 2.607L10.3422 2.88305C10.3535 2.91877 10.3128 2.94839 10.2823 2.92655L10.0468 2.75817L9.81121 2.92655C9.78069 2.94839 9.74005 2.91877 9.7513 2.88305L9.83867 2.607L9.60575 2.43502C9.57561 2.4127 9.59113 2.36489 9.62863 2.36461L9.91817 2.36241L10.0098 2.08772C10.0216 2.05214 10.0718 2.05214 10.0837 2.08772Z" fill="#F5F5F5"/>
<path d="M10.0837 3.5247L10.1753 3.79938L10.4649 3.80159C10.5024 3.80191 10.5179 3.84968 10.4878 3.87199L10.2548 4.04402L10.3422 4.32007C10.3535 4.35579 10.3128 4.38541 10.2823 4.36357L10.0468 4.19519L9.81121 4.36357C9.78069 4.38537 9.74005 4.35579 9.7513 4.32007L9.83867 4.04402L9.60575 3.87199C9.57561 3.84968 9.59113 3.80191 9.62863 3.80159L9.91817 3.79938L10.0098 3.5247C10.0216 3.48916 10.0718 3.48916 10.0837 3.5247Z" fill="#F5F5F5"/>
<path d="M10.0837 4.9615L10.1753 5.23619L10.4649 5.23839C10.5024 5.23872 10.5179 5.28648 10.4878 5.3088L10.2548 5.48083L10.3422 5.75687C10.3535 5.79259 10.3128 5.82222 10.2823 5.80037L10.0468 5.632L9.81121 5.80037C9.78069 5.82217 9.74005 5.79264 9.7513 5.75687L9.83867 5.48083L9.60575 5.3088C9.57561 5.28648 9.59113 5.23872 9.62863 5.23839L9.91817 5.23619L10.0098 4.9615C10.0216 4.92592 10.0718 4.92592 10.0837 4.9615Z" fill="#F5F5F5"/>
<path d="M10.0837 6.39851L10.1753 6.6732L10.4649 6.6754C10.5024 6.67573 10.5179 6.72354 10.4878 6.74581L10.2548 6.91784L10.3422 7.19389C10.3535 7.22961 10.3128 7.25923 10.2823 7.23739L10.0468 7.06901L9.81121 7.23739C9.78069 7.25919 9.74005 7.22961 9.7513 7.19389L9.83867 6.91784L9.60575 6.74581C9.57561 6.72359 9.59113 6.67573 9.62863 6.6754L9.91817 6.6732L10.0098 6.39851C10.0216 6.36293 10.0718 6.36293 10.0837 6.39851Z" fill="#F5F5F5"/>
<path d="M10.0837 7.83536L10.1753 8.11005L10.4649 8.11225C10.5024 8.11258 10.5179 8.16035 10.4878 8.18266L10.2548 8.35469L10.3422 8.63074C10.3535 8.66646 10.3128 8.69608 10.2823 8.67424L10.0468 8.50586L9.81121 8.67424C9.78069 8.69603 9.74005 8.66646 9.7513 8.63074L9.83867 8.35469L9.60575 8.18266C9.57561 8.16035 9.59113 8.11258 9.62863 8.11225L9.91817 8.11005L10.0098 7.83536C10.0216 7.79983 10.0718 7.79983 10.0837 7.83536Z" fill="#F5F5F5"/>
</svg>
