<svg width="16" height="20" viewBox="0 0 16 20" fill="none" xmlns="http://www.w3.org/2000/svg">
<path d="M8.99999 16.0693V15.9307C12.9394 15.4356 16 12.0723 16 8C16 3.58887 12.4111 0 7.99999 0C3.58886 0 0 3.58887 0 8C0 12.0723 3.06006 15.4356 6.99999 15.9307V16.0693C5.27099 16.2852 3.66699 17.0488 2.4082 18.2871C2.01465 18.6748 2.00976 19.3076 2.39697 19.7012C2.59277 19.9004 2.85107 20 3.10986 20C3.36328 20 3.6167 19.9043 3.81152 19.7129C4.93359 18.6084 6.42138 18 7.99999 18C9.57909 18 11.0664 18.6084 12.1885 19.7129C12.582 20.1006 13.2148 20.0947 13.6025 19.7012C13.9892 19.3076 13.9844 18.6748 13.5908 18.2871C12.333 17.0488 10.7295 16.2852 8.99999 16.0693V16.0693ZM2 8C2 4.69141 4.6914 2 7.99999 2C11.3086 2 14 4.69141 14 8C14 11.3086 11.3086 14 7.99999 14C4.6914 14 2 11.3086 2 8ZM11 8C11 6.3457 9.65429 5 7.99999 5C6.3457 5 5 6.3457 5 8C5 9.6543 6.3457 11 7.99999 11C9.65429 11 11 9.6543 11 8ZM6.99999 8C6.99999 7.44824 7.44872 7 7.99999 7C8.55126 7 8.99999 7.44824 8.99999 8C8.99999 8.55176 8.55126 9 7.99999 9C7.44872 9 6.99999 8.55176 6.99999 8ZM6.99999 3.5C6.99999 2.94727 7.44726 2.5 7.99999 2.5C8.55273 2.5 8.99999 2.94727 8.99999 3.5C8.99999 4.05274 8.55273 4.5 7.99999 4.5C7.44726 4.5 6.99999 4.05274 6.99999 3.5Z" fill="#FFA114"/>
</svg>
